<svg width="60" height="60" viewBox="0 0 60 60" fill="none" xmlns="http://www.w3.org/2000/svg">
<path d="M59.82 26.736C59.7311 25.9767 59.3645 25.2771 58.7907 24.7719C58.2169 24.2668 57.4764 23.9918 56.712 24C56.4196 23.9983 56.136 23.8996 55.9058 23.7193C55.6756 23.539 55.5118 23.2874 55.44 23.004C54.8528 20.9088 54.0105 18.8937 52.932 17.004C52.7824 16.7514 52.7212 16.4562 52.7581 16.165C52.7951 15.8738 52.928 15.6032 53.136 15.396C53.7223 14.8003 54.0537 13.9998 54.06 13.164C54.0633 12.4751 53.8303 11.8059 53.4 11.268C52.788 10.512 52.2 9.79197 51.468 9.09597L50.952 8.57997C50.256 7.89597 49.536 7.25997 48.78 6.64797C48.1794 6.17777 47.4269 5.94484 46.6657 5.99352C45.9045 6.04221 45.1878 6.3691 44.652 6.91197C44.4071 7.15738 44.0747 7.2955 43.728 7.29597C43.4883 7.29586 43.2527 7.23386 43.044 7.11597C41.1542 6.03743 39.1391 5.19512 37.044 4.60797C36.7436 4.54381 36.4749 4.37688 36.2843 4.13593C36.0938 3.89498 35.9932 3.5951 36 3.28797C36.0015 2.52047 35.7243 1.77851 35.22 1.19997C34.7189 0.626747 34.0208 0.262694 33.264 0.179973C31.0946 -0.0599911 28.9054 -0.0599911 26.736 0.179973C25.9767 0.268823 25.2771 0.635462 24.772 1.20928C24.2668 1.78311 23.9918 2.52353 24 3.28797C23.9983 3.58037 23.8996 3.86392 23.7193 4.09414C23.539 4.32436 23.2874 4.48821 23.004 4.55997C20.9088 5.14712 18.8937 5.98943 17.004 7.06797C16.7514 7.21761 16.4562 7.2788 16.165 7.24185C15.8738 7.2049 15.6032 7.07194 15.396 6.86397C15.0926 6.5754 14.7347 6.35032 14.3432 6.20195C13.9516 6.05359 13.5344 5.98492 13.116 5.99997C12.4278 6.00049 11.7598 6.23301 11.22 6.65997C10.464 7.27197 9.74399 7.85997 9.04799 8.59197L8.53199 9.10797C7.84799 9.74397 7.19999 10.464 6.59999 11.22C6.1323 11.8216 5.90095 12.5736 5.94958 13.334C5.99822 14.0945 6.32347 14.8108 6.86399 15.348C7.1094 15.5929 7.24751 15.9253 7.24799 16.272C7.24788 16.5117 7.18588 16.7473 7.06799 16.956C5.98945 18.8457 5.14714 20.8608 4.55999 22.956C4.49751 23.2483 4.33766 23.5108 4.10658 23.7004C3.87551 23.8901 3.5869 23.9957 3.28799 24C2.52048 23.9985 1.77852 24.2756 1.19999 24.78C0.626763 25.281 0.262709 25.9791 0.179988 26.736C-0.0599758 28.9054 -0.0599758 31.0946 0.179988 33.264C0.268839 34.0233 0.635477 34.7229 1.2093 35.228C1.78312 35.7331 2.52355 36.0081 3.28799 36C3.58038 36.0017 3.86394 36.1004 4.09416 36.2807C4.32437 36.4609 4.48822 36.7125 4.55999 36.996C5.14714 39.0911 5.98945 41.1062 7.06799 42.996C7.21763 43.2485 7.27881 43.5438 7.24187 43.835C7.20492 44.1262 7.07195 44.3968 6.86399 44.604C6.57541 44.9073 6.35034 45.2653 6.20197 45.6568C6.0536 46.0483 5.98493 46.4655 5.99999 46.884C6.00051 47.5722 6.23303 48.2402 6.65999 48.78C7.27199 49.536 7.85999 50.256 8.59199 50.952L9.10799 51.468C9.80399 52.152 10.524 52.788 11.28 53.4C11.8816 53.8677 12.6336 54.099 13.394 54.0504C14.1545 54.0017 14.8709 53.6765 15.408 53.136C15.6529 52.8906 15.9853 52.7524 16.332 52.752C16.5717 52.7521 16.8073 52.8141 17.016 52.932C18.9057 54.0105 20.9208 54.8528 23.016 55.44C23.2972 55.514 23.5461 55.6788 23.7241 55.9088C23.902 56.1388 23.999 56.4212 24 56.712C23.9985 57.4795 24.2756 58.2214 24.78 58.8C25.281 59.3732 25.9792 59.7373 26.736 59.82C28.9054 60.0599 31.0946 60.0599 33.264 59.82C34.0233 59.7311 34.7229 59.3645 35.228 58.7907C35.7332 58.2168 36.0081 57.4764 36 56.712C36.0017 56.4196 36.1004 56.136 36.2807 55.9058C36.4609 55.6756 36.7125 55.5117 36.996 55.44C39.0911 54.8528 41.1062 54.0105 42.996 52.932C43.2485 52.7823 43.5438 52.7212 43.835 52.7581C44.1262 52.795 44.3968 52.928 44.604 53.136C45.1996 53.7223 46.0002 54.0537 46.836 54.06C47.5249 54.0633 48.1941 53.8303 48.732 53.4C49.488 52.788 50.208 52.2 50.904 51.468L51.42 50.952C52.104 50.256 52.74 49.536 53.352 48.78C53.8222 48.1794 54.0551 47.4269 54.0064 46.6657C53.9578 45.9045 53.6309 45.1878 53.088 44.652C52.8426 44.407 52.7045 44.0747 52.704 43.728C52.7041 43.4883 52.7661 43.2527 52.884 43.044C53.9625 41.1542 54.8048 39.1391 55.392 37.044C55.4562 36.7435 55.6231 36.4749 55.864 36.2843C56.105 36.0938 56.4049 35.9932 56.712 36C57.4795 36.0015 58.2215 35.7243 58.8 35.22C59.3732 34.7189 59.7373 34.0208 59.82 33.264C60.06 31.0946 60.06 28.9054 59.82 26.736ZM30 51.6C25.7279 51.6 21.5518 50.3332 17.9997 47.9597C14.4476 45.5863 11.679 42.2128 10.0442 38.2659C8.40934 34.3191 7.98159 29.976 8.81503 25.786C9.64847 21.596 11.7057 17.7473 14.7265 14.7265C17.7473 11.7057 21.596 9.64845 25.786 8.81501C29.976 7.98157 34.3191 8.40932 38.266 10.0442C42.2128 11.679 45.5863 14.4476 47.9597 17.9997C50.3332 21.5518 51.6 25.7279 51.6 30C51.6 35.7286 49.3243 41.2227 45.2735 45.2735C41.2227 49.3243 35.7287 51.6 30 51.6Z" fill="#23c050"/>
<path d="M30 20.3999C31.8987 20.3999 33.7548 20.9629 35.3335 22.0178C36.9122 23.0727 38.1426 24.572 38.8692 26.3261C39.5958 28.0803 39.786 30.0106 39.4155 31.8728C39.0451 33.735 38.1308 35.4455 36.7882 36.7881C35.4456 38.1307 33.7351 39.045 31.8729 39.4154C30.0107 39.7859 28.0804 39.5957 26.3262 38.8691C24.5721 38.1425 23.0728 36.9121 22.0179 35.3334C20.963 33.7547 20.4 31.8986 20.4 29.9999C20.4 27.4538 21.4114 25.012 23.2118 23.2117C25.0121 21.4113 27.4539 20.3999 30 20.3999ZM30 14.3999C26.9146 14.3999 23.8985 15.3148 21.3331 17.029C18.7677 18.7431 16.7682 21.1795 15.5875 24.03C14.4068 26.8806 14.0978 30.0172 14.6998 33.0433C15.3017 36.0694 16.7874 38.8491 18.9691 41.0308C21.1508 43.2125 23.9305 44.6982 26.9566 45.3002C29.9827 45.9021 33.1193 45.5931 35.9699 44.4124C38.8204 43.2317 41.2568 41.2322 42.9709 38.6668C44.6851 36.1014 45.6 33.0853 45.6 29.9999C45.6 27.9513 45.1965 25.9227 44.4125 24.03C43.6285 22.1374 42.4795 20.4176 41.0309 18.969C39.5823 17.5204 37.8625 16.3714 35.9699 15.5874C34.0772 14.8034 32.0486 14.3999 30 14.3999Z" fill="white"/>
</svg>
