<?xml version="1.0" encoding="utf-8"?>
<!-- Generator: Adobe Illustrator 22.1.0, SVG Export Plug-In . SVG Version: 6.00 Build 0)  -->
<svg width="60" height="60" version="1.1" id="Слой_1" xmlns="http://www.w3.org/2000/svg" xmlns:xlink="http://www.w3.org/1999/xlink" x="0px" y="0px"
	 viewBox="0 0 60 60" style="enable-background:new 0 0 60 60;" xml:space="preserve">
<style type="text/css">
	.st0{fill:#23c050;}
	.st1{fill:#FFFFFF;}
</style>
<path class="st0" d="M58.6,16.7l-7.1-9.6c-0.7-1-1.7-1.7-2.8-2.3C47.6,4.3,46.4,4,45.2,4H14.8c-1.2,0-2.5,0.3-3.6,0.8
	c-1.1,0.5-2.1,1.3-2.8,2.3l-7.1,9.6C0.5,17.9,0,19.3,0,20.8v32c0,1.9,0.8,3.7,2.3,5.1C3.7,59.2,5.7,60,7.7,60h44.5
	c2,0,4-0.8,5.5-2.1c1.4-1.4,2.3-3.2,2.3-5.1v-32C60,19.3,59.5,17.9,58.6,16.7z M45.2,9.6c0.3,0,0.6,0.1,0.8,0.2
	c0.2,0.1,0.5,0.3,0.6,0.5l4.5,6H33V9.6H45.2z M13.4,10.3c0.2-0.2,0.4-0.4,0.6-0.5c0.2-0.1,0.5-0.2,0.8-0.2H27v6.7H9L13.4,10.3z
	 M54,52.8c0,0.2,0,0.4-0.1,0.6c-0.1,0.2-0.2,0.4-0.4,0.5c-0.2,0.2-0.4,0.3-0.6,0.3c-0.2,0.1-0.4,0.1-0.7,0.1H7.7
	c-0.2,0-0.5,0-0.7-0.1c-0.2-0.1-0.4-0.2-0.6-0.3c-0.2-0.1-0.3-0.3-0.4-0.5C6,53.2,6,53,6,52.8V23.3c0-0.4,0.2-0.7,0.4-1
	c0.3-0.3,0.7-0.4,1.1-0.4h45c0.4,0,0.8,0.1,1.1,0.4c0.3,0.3,0.4,0.6,0.4,1V52.8z"/>
<path class="st1" d="M39,25.2H21c-1.7,0-3,1.3-3,3c0,1.7,1.3,3,3,3h18c1.7,0,3-1.3,3-3C42,26.5,40.7,25.2,39,25.2z"/>
</svg>
