<?xml version="1.0" encoding="utf-8"?>
<!-- Generator: Adobe Illustrator 22.1.0, SVG Export Plug-In . SVG Version: 6.00 Build 0)  -->
<svg width="60" height="60" version="1.1" id="Слой_1" xmlns="http://www.w3.org/2000/svg" xmlns:xlink="http://www.w3.org/1999/xlink" x="0px" y="0px"
	 viewBox="0 0 60 60" style="enable-background:new 0 0 60 60;" xml:space="preserve">
<style type="text/css">
	.st0{fill:#FFD910;}
	.st1{fill:#FFFFFF;}
</style>
<path class="st0" d="M56.4,33.4v-6c0-2.5-1-5-2.8-6.8c-1.8-1.8-4.2-2.8-6.8-2.8H9.6c-0.5,0-1-0.1-1.4-0.3c-0.4-0.2-0.9-0.5-1.2-0.8
	c-0.3-0.4-0.6-0.8-0.8-1.2S6,14.6,6,14.1c0.1-0.9,0.5-1.8,1.2-2.5s1.6-1,2.6-1h37c0.7,0,1.3,0.2,1.9,0.5c0.6,0.3,1,0.8,1.3,1.4
	c0.4,0.7,1,1.2,1.8,1.5c0.8,0.2,1.6,0.2,2.3-0.2c0.7-0.4,1.2-1,1.5-1.8c0.2-0.8,0.2-1.6-0.2-2.3c-0.8-1.6-2-2.9-3.5-3.8
	c-1.5-0.9-3.2-1.4-5-1.4H9.6c-2.5,0-5,1-6.8,2.8C1,9.3,0,11.8,0,14.3v35.9c0,2.5,1,5,2.8,6.8c1.8,1.8,4.2,2.8,6.8,2.8h37.2
	c2.5,0,5-1,6.8-2.8c1.8-1.8,2.8-4.2,2.8-6.8v-6h-6v6c0,1-0.4,1.9-1.1,2.5c-0.7,0.7-1.6,1.1-2.5,1.1H9.6c-1,0-1.9-0.4-2.5-1.1
	C6.4,52,6,51.1,6,50.2v-27c1.1,0.5,2.4,0.7,3.6,0.7h37.2c1,0,1.9,0.4,2.5,1.1c0.7,0.7,1.1,1.6,1.1,2.5v6H56.4z"/>
<path class="st1" d="M54,35.8v6H38.4v-6H54z M54.9,29.9H37.5c-1.4,0-2.7,0.5-3.6,1.5c-1,1-1.5,2.3-1.5,3.6v7.7
	c0,1.4,0.5,2.7,1.5,3.6c1,1,2.3,1.5,3.6,1.5h17.3c1.4,0,2.7-0.5,3.6-1.5c1-1,1.5-2.3,1.5-3.6V35c0-1.4-0.5-2.7-1.5-3.6
	C57.5,30.4,56.2,29.9,54.9,29.9z"/>
</svg>
