<svg width="1920" height="200" viewBox="0 0 1920 200" fill="none" xmlns="http://www.w3.org/2000/svg">
<mask id="mask0" mask-type="alpha" maskUnits="userSpaceOnUse" x="0" y="0" width="1920" height="200">
<rect width="1920" height="200" fill="white"/>
</mask>
<g mask="url(#mask0)">
<g filter="url(#filter0_d)">
<g opacity="0.4">
<rect width="3.11722" height="11.8298" transform="matrix(0.731055 0.682318 -0.731055 0.682318 1591.78 28.8806)" fill="#FFD910"/>
<rect width="3.11722" height="11.8424" transform="matrix(0.731055 -0.682318 0.731055 0.682318 1583.04 30.97)" fill="#FFD910"/>
</g>
<g opacity="0.2">
<rect width="6.46838" height="24.5475" transform="matrix(0.706637 -0.707577 0.706637 0.707577 1822.04 137.472)" fill="#FFD910"/>
<rect width="6.46838" height="24.5737" transform="matrix(-0.706637 -0.707577 0.706637 -0.707577 1826.53 155.029)" fill="#FFD910"/>
</g>
<g opacity="0.5">
<rect x="412.358" y="45.0307" width="5.37132" height="20.3841" transform="rotate(-45 412.358 45.0307)" fill="#FFD910"/>
<rect x="416.089" y="59.5995" width="5.37132" height="20.4059" transform="rotate(-135 416.089 59.5995)" fill="#FFD910"/>
</g>
<g opacity="0.3">
<rect width="1.3912" height="5.27958" transform="matrix(0.706636 -0.707577 0.706636 0.707577 1488.87 144.822)" fill="#FFD910"/>
<rect width="1.3912" height="5.28522" transform="matrix(-0.706636 -0.707577 0.706636 -0.707577 1489.83 148.598)" fill="#FFD910"/>
</g>
<g opacity="0.5">
<rect x="1279.66" y="80.5523" width="4.0822" height="15.4919" transform="rotate(45 1279.66 80.5523)" fill="#FFD910"/>
<rect x="1268.58" y="83.3882" width="4.0822" height="15.5085" transform="rotate(-45 1268.58 83.3882)" fill="#FFD910"/>
</g>
<g opacity="0.2">
<rect width="6.46838" height="24.5475" transform="matrix(-0.706637 -0.707577 -0.706637 0.707577 161.044 119.472)" fill="#FFD910"/>
<rect width="6.46838" height="24.5737" transform="matrix(0.706637 -0.707577 -0.706637 -0.707577 156.554 137.029)" fill="#FFD910"/>
</g>
<g opacity="0.3">
<rect width="1.3912" height="5.27958" transform="matrix(-0.706636 -0.707577 -0.706636 0.707577 485.085 121.49)" fill="#FFD910"/>
<rect width="1.3912" height="5.28522" transform="matrix(0.706636 -0.707577 -0.706636 -0.707577 484.119 125.266)" fill="#FFD910"/>
</g>
<g opacity="0.3">
<rect width="3.17938" height="12.0657" transform="matrix(0.706636 -0.707577 -0.706636 -0.707577 672.629 62.8186)" fill="#FFD910"/>
<rect width="3.17938" height="12.0786" transform="matrix(0.706636 0.707578 0.706636 -0.707577 664.012 60.6085)" fill="#FFD910"/>
</g>
</g>
</g>
<defs>
<filter id="filter0_d" x="131" y="-212" width="1721.09" height="419" filterUnits="userSpaceOnUse" color-interpolation-filters="sRGB">
<feFlood flood-opacity="0" result="BackgroundImageFix"/>
<feColorMatrix in="SourceAlpha" type="matrix" values="0 0 0 0 0 0 0 0 0 0 0 0 0 0 0 0 0 0 127 0"/>
<feOffset dy="4"/>
<feGaussianBlur stdDeviation="2"/>
<feColorMatrix type="matrix" values="0 0 0 0 0 0 0 0 0 0 0 0 0 0 0 0 0 0 0.25 0"/>
<feBlend mode="normal" in2="BackgroundImageFix" result="effect1_dropShadow"/>
<feBlend mode="normal" in="SourceGraphic" in2="effect1_dropShadow" result="shape"/>
</filter>
</defs>
</svg>
