<svg width="148" height="147" viewBox="0 0 148 147" fill="none" xmlns="http://www.w3.org/2000/svg">
<path fill-rule="evenodd" clip-rule="evenodd" d="M65.5639 2.65912L65.9794 2.49292L66.3118 2.24363L66.6441 1.99434L66.9765 1.82814L67.392 1.66195L67.7244 1.49575L68.1399 1.32956L68.4723 1.16336L68.8878 0.997169L69.3033 0.830975L69.7188 0.747877L70.2173 0.581682L70.6328 0.498585L71.0483 0.33239L71.5469 0.249292L71.9624 0.166195L72.461 0.0830975H72.9596L73.4581 0H73.9567H74.4553H75.037L75.5356 0.0830975H76.0342L76.4497 0.249292L76.9482 0.33239L77.4468 0.581682L77.8623 0.66478L78.3609 0.830975L78.7764 1.08027L79.1088 1.24646L79.5243 1.49575L79.8566 1.74505L80.189 1.91124L80.6045 2.16053L80.9369 2.40983L81.2693 2.57602L81.6017 2.82531L81.851 3.07461L82.1834 3.3239L82.5158 3.49009L82.7651 3.73939L83.0974 3.90558L83.4298 4.15487L83.7622 4.40417L84.0115 4.57036L84.427 4.73655L84.6763 4.98585L85.0087 5.23514L85.3411 5.40133L85.6735 5.65063L85.9228 5.73372L86.089 5.81682L86.2551 5.89992L86.5044 6.06611L86.6706 6.14921H86.8368L87.003 6.23231L87.1692 6.31541L87.2523 6.3985H87.4185H87.5847L87.6678 6.4816H87.834L87.9171 6.5647H88.0833H88.1664L88.3326 6.6478H88.4157H88.5819H88.665H88.8312H88.9974H89.1636H89.3298L89.579 6.5647H89.7452H89.9114L90.1607 6.4816L90.41 6.3985H90.6593H90.9086L91.1579 6.31541L91.4903 6.23231L91.8227 6.14921H92.072L92.4044 6.06611L92.7367 5.98302L93.0691 5.89992H93.4015L93.7339 5.81682L94.1494 5.73372L94.3987 5.65063H94.8142H95.1466L95.5621 5.56753L95.9775 5.48443H96.3099H96.7254H97.1409L97.5564 5.40133H97.9719H98.3874H98.8029H99.3014L99.7169 5.48443H100.132L100.548 5.56753L101.046 5.65063H101.462L101.961 5.81682L102.376 5.89992L102.875 6.06611L103.373 6.14921L103.872 6.3985L104.37 6.5647L104.786 6.73089L105.201 6.98019L105.617 7.22948L106.032 7.47877L106.448 7.81116L106.78 8.06045L107.113 8.30974L107.445 8.64213L107.777 8.97452L108.027 9.22382L108.359 9.63931L108.608 9.8886L108.858 10.221L109.024 10.5534L109.273 10.8858L109.522 11.2182L109.689 11.5505L109.855 11.7998L110.021 12.2153L110.187 12.4646L110.437 12.797L110.603 13.1294L110.769 13.3787L110.935 13.7111L111.184 14.0435L111.351 14.2928L111.434 14.6252L111.683 14.9575L111.849 15.2068L112.098 15.5392L112.265 15.7885L112.431 16.1209L112.597 16.3702L112.846 16.6195L113.013 16.8688L113.179 17.1181L113.345 17.2843L113.511 17.4505L113.677 17.6167L113.76 17.7829L114.01 17.866L114.093 18.0321L114.259 18.1152L114.425 18.1983L114.508 18.2814L114.674 18.3645L114.841 18.5307H115.007L115.173 18.6969H115.339L115.589 18.78L115.838 18.9462H116.004L116.253 19.0293L116.503 19.1955H116.752L117.084 19.2786L117.417 19.4448H117.666L118.081 19.611L118.414 19.6941L118.829 19.7772L119.245 19.8603L119.494 19.9434H119.743L120.076 20.1096H120.325L120.657 20.1927L120.907 20.2758L121.156 20.3589L121.488 20.442L121.821 20.6082H122.07L122.403 20.7744L122.735 20.8575L123.067 20.9406L123.317 21.0237L123.649 21.1898L123.981 21.356L124.231 21.5222L124.563 21.6053L124.895 21.7715L125.228 21.9377L125.56 22.1039L125.81 22.2701L126.142 22.4363L126.557 22.6856L126.807 22.9349L127.139 23.1842L127.471 23.3504L127.721 23.5997L128.053 23.849L128.386 24.0983L128.635 24.3476L128.967 24.6799L129.3 25.0123L129.715 25.5109L130.048 25.8433L130.297 26.3419L130.546 26.7574L130.795 27.1729L131.045 27.5884L131.211 28.0869L131.46 28.5024L131.543 29.001L131.626 29.4165L131.793 29.832L131.876 30.2475L131.959 30.663L132.042 31.0784L132.125 31.577V31.9094L132.208 32.3249L132.291 32.7404V33.1559L132.374 33.4883V33.8207V34.3192L132.457 34.6516L132.54 34.984V35.3995L132.624 35.7319V36.1474L132.707 36.5629L132.79 36.8953V37.3108L132.873 37.6431L133.039 38.1417L133.122 38.5572L133.288 38.8896V39.222L133.454 39.4713L133.538 39.7206L133.704 39.8868L133.787 40.1361L133.953 40.3023L134.119 40.4685L134.285 40.7178L134.452 40.967L134.784 41.2163L135.033 41.4656L135.366 41.798L135.781 42.0473L136.031 42.2135L136.28 42.4628L136.529 42.629L136.778 42.8783L137.028 43.0445L137.277 43.2107L137.609 43.46L137.859 43.6262L138.191 43.8755L138.44 44.1247L138.773 44.374L139.022 44.6233L139.354 44.8726L139.604 45.1219L139.936 45.3712L140.268 45.7036L140.518 45.9529L140.767 46.2022L141.099 46.5346L141.432 46.867L141.681 47.1994L141.93 47.6148L142.263 47.9472L142.512 48.2796L142.761 48.6951L143.094 49.0275L143.343 49.443L143.509 49.9416L143.759 50.3571L144.008 50.7725L144.174 51.2711L144.423 51.7697L144.59 52.2683L144.673 52.7669L144.839 53.3486L144.922 53.8472L145.005 54.3457V54.8443V55.3429V55.8415V56.3401L144.922 56.8387V57.2541L144.756 57.6696L144.673 58.0851L144.59 58.5006L144.506 58.9992L144.34 59.3316L144.257 59.7471L144.091 60.1626L144.008 60.578L143.842 60.9104L143.759 61.3259L143.592 61.6583L143.509 61.9907L143.343 62.4062L143.26 62.7386L143.094 63.1541V63.4865L142.928 63.9019L142.844 64.3174L142.761 64.6498L142.595 65.0653V65.4808L142.512 65.647V65.8963L142.429 66.0625V66.3118L142.346 66.478V66.7273V66.8104V66.9765V67.1427V67.2258V67.392V67.5582V67.6413L142.429 67.8075V67.8906L142.512 68.0568V68.1399L142.595 68.3061V68.3892V68.5554L142.678 68.7216L142.761 68.8878L142.844 69.054V69.2202L142.928 69.3864L143.094 69.5526V69.8019L143.26 69.9681L143.343 70.2173L143.509 70.4666L143.592 70.7159L143.759 70.9652L143.842 71.2145L144.174 71.7962L144.257 72.0455L144.506 72.2948L144.59 72.6272L144.756 72.9596L144.922 73.2089L145.088 73.5412L145.171 73.8736L145.421 74.1229L145.504 74.5384L145.67 74.8708L145.836 75.2032L146.002 75.5356L146.085 75.868L146.252 76.2004L146.335 76.6158L146.501 76.9482L146.584 77.3637L146.75 77.7792L146.833 78.1947L146.916 78.6102L146.999 79.0257L147.082 79.5243L147.166 79.9397V80.3552L147.249 80.7707V81.2693V81.6848V82.1834V82.682V83.1805L147.166 83.6791L146.999 84.0946V84.5932L146.833 85.0918L146.667 85.5073L146.501 86.0059L146.335 86.4213L146.085 86.7537L145.919 87.1692L145.67 87.5847L145.421 87.834L145.254 88.2495L145.005 88.5819L144.756 88.8312L144.506 89.1636L144.257 89.496L144.008 89.7452L143.759 90.0776L143.592 90.3269L143.343 90.5762L143.094 90.9086L142.844 91.1579L142.595 91.3241L142.346 91.6565L142.097 91.9058L141.847 92.1551L141.598 92.4044L141.349 92.7368L141.099 92.9861L140.85 93.2353L140.684 93.4846L140.518 93.7339L140.268 93.9832L140.102 94.1494L139.936 94.3987L139.853 94.648L139.687 94.8142L139.521 95.0635L139.438 95.2297L139.354 95.3959L139.271 95.5621L139.188 95.7283L139.105 95.8945V95.9776L139.022 96.1438L138.939 96.31V96.4761L138.856 96.6423V96.7254V96.9747V97.1409L138.773 97.3071V97.4733V97.6395L138.69 97.8888V98.055V98.3043V98.6367V98.886V99.2184V99.4676L138.773 99.8V100.216V100.465L138.856 101.13V101.379V101.711V102.044V102.376L138.939 102.708V103.041V103.373V103.706V104.121V104.453V104.869V105.201L138.856 105.534V105.949V106.365L138.773 106.78L138.69 107.196L138.607 107.528V107.944L138.523 108.359L138.44 108.775L138.274 109.19L138.191 109.606L138.025 110.021L137.859 110.437L137.692 110.852L137.526 111.267L137.36 111.683L137.111 112.098L136.861 112.514L136.612 113.013L136.28 113.428L136.114 113.76L135.781 114.176L135.449 114.425L135.116 114.841L134.784 115.09L134.452 115.339L134.119 115.589L133.704 115.838L133.371 116.087L133.122 116.336L132.707 116.503L132.374 116.752L132.042 116.918L131.626 117.001L131.294 117.167L130.962 117.417L130.629 117.5L130.297 117.666L130.048 117.832L129.632 117.915L129.3 118.081L129.05 118.165L128.635 118.331L128.386 118.497L128.053 118.58L127.721 118.746L127.471 118.912L127.056 119.079L126.807 119.162L126.474 119.328L126.142 119.494L125.893 119.66L125.643 119.827L125.394 119.993L125.145 120.159L124.979 120.325L124.812 120.408L124.646 120.574L124.397 120.741L124.314 120.907L124.231 120.99L124.064 121.156L123.981 121.322L123.815 121.405L123.732 121.655L123.566 121.821L123.483 121.987L123.317 122.153L123.234 122.319L123.067 122.569V122.818L122.901 123.067L122.818 123.317L122.652 123.649L122.486 123.981L122.319 124.231L122.236 124.646L122.07 124.895L121.904 125.311L121.821 125.726L121.655 126.142L121.572 126.391L121.405 126.641L121.322 126.89L121.156 127.139V127.471L120.99 127.638L120.907 127.887L120.741 128.219L120.657 128.469L120.491 128.801L120.408 129.05L120.242 129.3L120.076 129.549L119.91 129.881L119.743 130.131L119.577 130.463L119.411 130.712L119.245 130.962L119.079 131.294L118.829 131.543L118.58 131.876L118.414 132.125L118.165 132.374L117.915 132.624L117.749 132.956L117.5 133.205L117.251 133.455L117.001 133.787L116.669 133.953L116.42 134.202L116.087 134.452L115.838 134.784L115.422 135.033L115.09 135.283L114.674 135.532L114.259 135.698L113.927 135.947L113.511 136.114L113.096 136.28L112.68 136.363L112.348 136.529L111.932 136.612L111.517 136.695L111.184 136.778L110.769 136.861H110.437L110.021 136.945H109.689L109.273 137.028H108.941H108.608H108.276H107.944H107.611H107.279H106.946H106.614H106.282H105.949L105.617 136.945H105.368H104.952H104.62H104.37H103.955L103.623 137.028H103.29H102.958H102.625H102.293L102.127 137.111H101.877L101.628 137.194H101.379H101.13L100.963 137.277L100.797 137.36L100.631 137.443H100.465L100.216 137.526L100.132 137.609L99.9662 137.692L99.8 137.776L99.5507 137.942H99.4676L99.3014 138.108L99.0522 138.191L98.8029 138.357L98.6367 138.523L98.4705 138.69L98.2212 138.856L97.9719 139.105L97.7226 139.354L97.4733 139.521L97.224 139.77L96.9747 140.019L96.8085 140.269L96.6423 140.435L96.393 140.684L96.2268 140.933L95.9775 141.099L95.7283 141.349L95.479 141.598L95.2297 141.847L94.9804 142.097L94.7311 142.346L94.4818 142.512L94.1494 142.761L93.9832 143.011L93.6508 143.26L93.4015 143.509L93.0691 143.759L92.8198 143.925L92.4875 144.174L92.1551 144.34L91.8227 144.59L91.4903 144.756L91.1579 145.005L90.7424 145.171L90.41 145.337L89.9945 145.587L89.6621 145.753L89.2467 145.919L88.8312 146.085L88.4157 146.252L88.0002 146.335L87.5847 146.501L87.0861 146.667L86.5044 146.75L86.0059 146.833L85.5904 146.916L85.0087 146.999H84.5101L84.0115 146.916H83.596L83.0974 146.833L82.682 146.75L82.1834 146.667L81.851 146.501L81.3524 146.418L80.9369 146.335L80.6045 146.085L80.189 146.002L79.8566 145.836L79.5243 145.67L79.1088 145.504L78.7764 145.337L78.3609 145.171L78.1116 145.088L77.6961 144.922L77.4468 144.673L77.1144 144.59L76.6989 144.423L76.4497 144.174L76.0342 144.091L75.7849 143.925L75.3694 143.759L75.037 143.675L74.7046 143.509L74.3722 143.343L74.1229 143.26L73.8736 143.177L73.6243 143.094L73.375 143.011H73.1258L72.9596 142.928L72.7934 142.845H72.5441H72.3779H72.2117L72.0455 142.761H71.8793H71.7962H71.63H71.4638H71.3807H71.2145H71.0483L70.8821 142.845H70.7159H70.5497H70.4666L70.2173 142.928L69.968 143.011H69.8019L69.5526 143.094L69.3033 143.177L69.054 143.26L68.8047 143.343L68.5554 143.509H68.3061L67.9737 143.675L67.1427 144.008L66.8103 144.091L66.478 144.174L66.2287 144.34L65.8963 144.423L65.5639 144.59L65.3146 144.673L64.8991 144.756L64.6498 144.922L64.2343 145.005L63.9019 145.088L63.5695 145.171L63.2372 145.337H62.8217L62.4893 145.504L62.0738 145.587H61.6583L61.3259 145.67L60.9104 145.753L60.4118 145.836H60.0795H59.664H59.2485H58.7499H58.3344H57.8358H57.4203L56.9217 145.753L56.5063 145.67L56.0077 145.587L55.5091 145.504L55.0936 145.337L54.595 145.254L54.1795 145.088L53.681 144.922L53.2655 144.673L52.85 144.423L52.5176 144.257L52.1021 144.008L51.7697 143.759L51.3542 143.509L51.1049 143.26L50.7725 142.928L50.4402 142.678L50.1909 142.346L49.9416 142.097L49.6923 141.847L49.443 141.515L49.1937 141.266L48.9444 140.933L48.6951 140.684L48.4458 140.435L48.2796 140.185L48.0303 139.853L47.781 139.604L47.6148 139.354L47.3655 139.105L47.1163 138.856L46.867 138.607L46.7008 138.357L46.4515 138.025L46.2022 137.776L45.9529 137.526L45.7036 137.36L45.5374 137.111L45.2881 136.945L45.1219 136.778L44.9557 136.612L44.7895 136.529L44.6233 136.363L44.374 136.28L44.2909 136.114L44.1247 136.031L43.9585 135.947L43.8755 135.864L43.7093 135.781H43.5431L43.46 135.698L43.2938 135.615L43.1276 135.532H42.9614L42.7952 135.449L42.629 135.366H42.4628H42.2135L42.0473 135.283H41.798L41.5487 135.2L41.2994 135.116H40.967H40.6347H40.3854H40.053L39.7206 135.033H39.4713H39.1389L38.8065 134.95H38.5572H38.2248L37.8093 134.867H37.56H37.1446H36.8953H36.4798L36.2305 134.784L35.815 134.701H35.4826L35.0671 134.618H34.7347L34.3192 134.535L33.9869 134.452L33.6545 134.369L33.1559 134.202H32.8235L32.4911 134.036L31.9925 133.953L31.6601 133.787L31.3277 133.621L30.9123 133.455L30.4968 133.288L30.0813 133.122L29.6658 132.873L29.2503 132.707L28.9179 132.457L28.5024 132.208L28.0869 131.959L27.6714 131.626L27.3391 131.377L26.9236 131.045L26.6743 130.712L26.3419 130.463L26.0095 130.048L25.7602 129.798L25.5109 129.383L25.2616 129.05L25.0954 128.718L24.9292 128.386L24.763 127.97L24.5968 127.638L24.3476 127.305L24.2645 126.973L24.0983 126.557L24.0152 126.308L23.849 125.893L23.7659 125.56L23.6828 125.228L23.5997 124.895L23.4335 124.563V124.231L23.2673 123.981L23.1011 123.234L23.018 122.984L22.9349 122.652L22.8518 122.319L22.6856 121.987V121.655L22.5194 121.405L22.4363 121.073L22.3532 120.741L22.187 120.408L22.1039 120.242L22.0208 119.993L21.9377 119.743L21.8546 119.494L21.7715 119.245L21.6884 119.079L21.5222 118.912V118.746L21.356 118.58V118.414L21.1898 118.331L21.1068 118.165L21.0237 118.081L20.9406 117.915L20.8575 117.832L20.6913 117.666L20.6082 117.583L20.442 117.417L20.3589 117.334L20.1927 117.167L20.1096 117.084L19.9434 116.918L19.6941 116.835L19.5279 116.752L19.3617 116.586L19.1124 116.503L18.9462 116.336L18.6138 116.17L18.3645 116.004L18.0321 115.838L17.866 115.672L17.5336 115.589L17.2012 115.339L16.8688 115.256L16.6195 115.09L16.3702 114.924L15.9547 114.758L15.7054 114.591L15.373 114.425L15.0406 114.176L14.7913 114.01L14.3759 113.844L14.1266 113.677L13.7111 113.428L13.3787 113.262L13.0463 113.013L12.7139 112.763L12.3815 112.514L12.0491 112.265L11.7167 111.932L11.3843 111.6L11.052 111.351L10.7196 111.018L10.3872 110.686L10.0548 110.353L9.7224 110.021L9.47311 109.606L9.14072 109.273L8.80833 108.858L8.55904 108.442L8.30974 107.944L8.06045 107.528L7.81116 107.113L7.56187 106.697L7.39567 106.199L7.31258 105.783L7.14638 105.284L7.06328 104.869L6.98019 104.37L6.89709 103.955V103.456L6.81399 103.041V102.708V102.293L6.89709 101.794V101.462V101.047V100.714L6.98019 100.299L7.06328 99.9662V99.5508L7.14638 99.2184V98.8029L7.22948 98.5536L7.31258 98.1381L7.39567 97.8057V97.3902V97.1409L7.47877 96.7254L7.56187 96.393V96.0607V95.7283L7.64496 95.3128V95.0635V94.7311L7.72806 94.3987V94.1494V93.9001V93.6508L7.64496 93.4846V93.2353V92.9861V92.8199L7.56187 92.6537V92.5706V92.3213L7.47877 92.2382V92.072L7.39567 91.9058V91.7396L7.31258 91.5734L7.22948 91.4072L7.14638 91.3241V91.1579L6.98019 90.9086L6.89709 90.8255L6.81399 90.6593L6.6478 90.41L6.4816 90.2438L6.3985 89.9945L6.23231 89.7452L6.06611 89.496L5.89992 89.2467L5.65063 89.0805L5.48443 88.7481L5.23514 88.5819L5.06894 88.3326L4.90275 88.0833L4.73655 87.834L4.48726 87.5847L4.32107 87.2523L4.07177 87.003L3.90558 86.7537L3.65629 86.5044L3.49009 86.1721L3.2408 85.9228L3.07461 85.5904L2.90841 85.3411L2.65912 85.0087L2.49292 84.6763L2.24363 84.3439L2.07744 84.0115L1.91124 83.6791L1.74505 83.3467L1.57885 83.0144L1.32956 82.5989L1.24646 82.2665L1.08027 81.7679L0.914072 81.4355L0.747877 81.02L0.581682 80.6876L0.498585 80.189L0.415487 79.7736L0.33239 79.275L0.249292 78.8595L0.166195 78.444L0.0830975 77.9454L0 77.3637V76.9482V76.3666L0.0830975 75.868L0.166195 75.3694V74.8708L0.33239 74.3722L0.415487 73.9567L0.581682 73.4581L0.747877 73.0427L0.830974 72.7103L1.08027 72.2948L1.24646 71.8793L1.49575 71.5469L1.66195 71.1314L1.82814 70.799L1.99434 70.3835L2.24363 70.1343L2.49292 69.7188L2.65912 69.4695L2.90841 69.1371L3.3239 68.4723L3.49009 68.1399L3.65629 67.8075L3.90558 67.5582L4.07177 67.1427L4.32107 66.8934L4.48726 66.5611L4.65346 66.2287L4.81965 65.8963L4.98585 65.5639L5.15204 65.3146L5.23514 65.0653L5.40133 64.816L5.48443 64.6498V64.4836L5.56753 64.3174L5.65063 64.1512L5.73372 63.9019V63.8188L5.81682 63.6526V63.4865L5.89992 63.4034V63.2372V63.071L5.98302 62.9879V62.8217V62.7386V62.4893V62.4062V62.24V62.0738L5.89992 61.9076V61.7414V61.5752L5.81682 61.3259L5.73372 61.0766V60.9104V60.6611L5.65063 60.4118L5.56753 60.0795L5.48443 59.8302V59.4978L5.31824 59.2485L5.23514 58.9161V58.5837L5.15204 58.3344L5.06894 57.9189L4.98585 57.5865L4.90275 57.3372L4.81965 56.9218V56.6725L4.73655 56.257L4.57036 55.9246V55.5922L4.48726 55.2598L4.40416 54.8443V54.4288L4.32107 54.0964V53.681V53.2655L4.23797 52.9331V52.5176V52.1021V51.6866V51.2711L4.32107 50.8556V50.3571V49.9416L4.40416 49.443L4.57036 49.0275V48.612L4.73655 48.1134L4.81965 47.6979L4.98585 47.1994L5.06894 46.7839L5.23514 46.3684L5.48443 45.9529L5.73372 45.5374L5.89992 45.1219L6.14921 44.7895L6.3985 44.374L6.6478 44.1247L6.89709 43.7093L7.14638 43.46L7.47877 43.1276L7.72806 42.8783L8.06045 42.5459L8.30974 42.2966L8.64213 42.0473L8.97452 41.8811L9.22382 41.6318L9.47311 41.4656L9.8055 41.2163L10.1379 41.0501L10.3872 40.8008L10.6365 40.6347L10.9689 40.4685L11.2182 40.3023L11.5505 40.1361L11.7998 39.8868L12.0491 39.7206L12.3815 39.5544L12.6308 39.3882L12.9632 39.222L13.2125 38.9727L13.4618 38.7234L13.7111 38.5572L13.9604 38.391L14.2097 38.3079L14.3759 38.0586L14.5421 37.9755L14.7913 37.8093L14.8744 37.6431L15.0406 37.56L15.1237 37.3939H15.2068L15.2899 37.2277V37.1446L15.373 37.0615L15.4561 36.9784V36.8953L15.5392 36.8122V36.7291L15.6223 36.646L15.7054 36.5629V36.3967V36.2305L15.7885 36.1474L15.8716 35.9812L15.9547 35.7319V35.4826V35.2333L16.0378 34.984L16.1209 34.8178L16.204 34.4854V34.1531V33.8207L16.2871 33.4883L16.3702 33.1559L16.4533 32.9066V32.5742V32.3249L16.5364 31.9925L16.6195 31.7432V31.3277L16.7026 31.0784L16.7857 30.7461L16.8688 30.4137V30.1644L16.9519 29.7489L17.1181 29.4165V29.0841L17.2843 28.7517L17.3674 28.4193L17.5336 28.0869L17.6167 27.7546L17.7829 27.4222L17.866 27.0898L18.0321 26.6743L18.1983 26.425L18.3645 26.0095L18.5307 25.6771L18.78 25.3447L18.9462 25.0123L19.1955 24.5968L19.3617 24.3476L19.611 23.9321L19.8603 23.5997L20.1096 23.2673L20.3589 22.9349L20.6913 22.6025L21.0237 22.2701L21.356 22.0208L21.6053 21.6884L22.0208 21.4391L22.3532 21.1068L22.6856 20.9406L23.1011 20.6913L23.4335 20.5251L23.7659 20.3589L24.0983 20.1096L24.5137 20.0265L24.8461 19.8603L25.2616 19.6941H25.594L25.9264 19.5279L26.2588 19.4448L26.6743 19.3617L26.9236 19.2786L27.3391 19.1955L27.5884 19.1124L27.9207 19.0293L28.2531 18.9462H28.5855L29.2503 18.8631L29.5827 18.6969H29.9151H30.1644L30.5799 18.5307H30.9123L31.1615 18.4476L31.4939 18.3645L31.8263 18.2814H32.0756L32.3249 18.1983L32.5742 18.1152L32.8235 18.0321L32.9897 17.949L33.1559 17.866L33.4052 17.7829H33.4883L33.6545 17.6998L33.8207 17.6167H33.9038L33.9869 17.5336L34.153 17.4505V17.3674H34.3192V17.2843L34.4854 17.2012L34.5685 17.1181L34.6516 17.035L34.7347 16.8688L34.8178 16.7857L34.984 16.6195L35.0671 16.4533L35.2333 16.2871L35.3164 16.1209L35.4826 15.9547L35.6488 15.7054L35.815 15.4561L35.9812 15.2068L36.2305 14.8744L36.3136 14.6252L36.4798 14.3759L36.7291 14.1266L36.8122 13.8773L36.9784 13.628L37.1446 13.2956L37.3939 13.0463L37.56 12.7139L37.7262 12.4646L37.8924 12.2153L38.0586 11.8829L38.3079 11.5505L38.5572 11.3013L38.7234 11.052L38.9727 10.7196L39.222 10.3872L39.4713 10.1379L39.7206 9.8886L39.8868 9.55621L40.2192 9.22382L40.4685 8.97452L40.8008 8.72523L41.1332 8.39284L41.4656 8.06045L41.798 7.81116L42.1304 7.56187L42.4628 7.31258L42.7952 7.06328L43.2107 6.81399L43.6262 6.5647L43.9585 6.31541L44.4571 6.14921L44.8726 5.89992L45.4543 5.65063L45.9529 5.48443L46.4515 5.31824L46.9501 5.23514L47.3655 5.15204L47.8641 5.06894L48.3627 4.98585H48.8613H49.2768H49.7754L50.1909 5.06894H50.6894L51.1049 5.15204L51.5204 5.23514H51.9359L52.2683 5.40133L52.7669 5.48443H53.0993L53.4317 5.65063H53.8471L54.2626 5.73372L54.595 5.89992H55.0105L55.3429 5.98302L55.7584 6.14921H56.0908L56.5063 6.23231L56.9217 6.31541L57.2541 6.3985H57.6696H58.002L58.4175 6.4816H58.7499H58.9992H59.2485H59.4978L59.5809 6.3985H59.7471H59.9133L59.9964 6.31541L60.2456 6.23231L60.4118 6.14921L60.6611 5.98302L60.9104 5.89992L61.2428 5.65063L61.5752 5.40133L61.9907 5.15204L62.24 4.98585L62.4893 4.81965L62.7386 4.57036L62.9879 4.40417L63.2372 4.23797L63.4865 4.07178L63.8188 3.82248L64.0681 3.57319L64.4005 3.407L64.6498 3.2408L64.9822 3.07461L65.3146 2.82531L65.5639 2.65912Z" fill="#B8B8B6" fill-opacity="0.1"/>
<path fill-rule="evenodd" clip-rule="evenodd" d="M129.467 73.5415L137.527 66.8106L128.22 61.9078L134.785 53.6812L124.647 50.7728L129.3 41.2997L118.747 40.718L121.406 30.497L111.019 31.9927L111.434 21.5225L101.629 25.1787L99.7177 14.7916L90.8263 20.4422L86.9207 10.7198L79.4419 18.0324L73.542 9.30713L67.7252 18.0324L60.2464 10.7198L56.3408 20.4422L47.4494 14.7916L45.7043 25.1787L35.8157 21.5225L36.2312 31.9927L25.8441 30.497L28.5032 40.718L18.0329 41.3827L22.6863 50.8559L12.4654 53.5981L19.0301 61.8247L9.72314 66.7275L17.7836 73.4584L9.72314 80.1062L19.0301 85.0089L12.4654 93.2356L22.6033 96.144L17.9498 105.534L28.4201 106.199L25.761 116.42L36.1481 114.924L35.8157 125.477L45.7043 121.821L47.5325 132.208L56.4239 126.558L60.3295 136.363L67.8083 128.967L73.6251 137.693L79.525 128.967L87.0038 136.363L90.9094 126.558L99.8008 132.208L101.629 121.821L111.351 125.477L110.936 115.007L121.323 116.503L118.664 106.282L129.134 105.617L124.481 96.2271L134.619 93.3187L128.054 85.092L137.361 80.1893L129.467 73.5415ZM73.6251 124.314C45.5381 124.314 22.6863 101.462 22.6863 73.3753C22.6863 45.2052 45.5381 22.4365 73.6251 22.4365C101.795 22.4365 124.564 45.2883 124.564 73.3753C124.564 101.462 101.795 124.314 73.6251 124.314Z" fill="#B8B8B6"/>
<path d="M121.655 73.3751C121.572 86.6707 116.253 98.5537 107.611 107.279C98.8861 116.004 86.837 121.322 73.6245 121.322V119.162C86.3384 119.162 97.7227 114.01 106.116 105.7C114.342 97.3903 119.494 85.9229 119.494 73.292C119.494 60.5781 114.342 49.1938 106.116 40.8009C97.8058 32.5743 86.3384 27.4223 73.6245 27.4223V25.2617C86.9201 25.2617 98.8861 30.58 107.611 39.3052C116.253 48.1135 121.572 60.1627 121.655 73.3751ZM73.6245 121.322C60.412 121.322 48.4459 115.921 39.7207 107.279C30.9955 98.5537 25.6772 86.6707 25.6772 73.3751C25.6772 60.0796 31.0786 48.1135 39.7207 39.3883C48.4459 30.7462 60.412 25.4279 73.6245 25.4279V27.5884C60.9937 27.5884 49.5262 32.7405 41.2165 40.9671C32.9067 49.2769 27.7547 60.7443 27.7547 73.4582C27.7547 86.0891 32.9067 97.5565 41.2165 105.866C49.5262 114.176 60.9937 119.328 73.6245 119.328V121.322Z" fill="#B8B8B6"/>
<path d="M68.8882 106.697C68.8882 106.614 68.9713 106.614 68.9713 106.531C68.9713 106.365 68.9713 106.365 68.8882 106.282V106.199C68.8051 106.116 68.722 106.116 68.6389 106.032C68.6389 106.032 68.4727 106.032 68.2234 105.949C67.9741 105.949 67.6417 105.866 67.3924 105.783C67.1431 105.7 66.8107 105.617 66.5614 105.534C66.229 105.451 66.146 105.368 66.146 105.368C66.0629 105.368 65.8967 105.368 65.8136 105.368C65.7305 105.451 65.7305 105.451 65.7305 105.617C65.7305 105.7 65.7305 105.783 65.7305 105.866C65.8136 105.949 65.8136 105.949 65.9798 105.949C65.9798 105.949 66.0629 105.949 66.146 106.032C66.3121 106.032 66.3952 106.032 66.4783 106.032C66.6445 106.116 66.7276 106.199 66.8107 106.282C66.8107 106.365 66.8107 106.448 66.8107 106.614L65.8967 110.27C65.8967 110.437 65.8136 110.603 65.7305 110.686C65.6474 110.769 65.5643 110.769 65.3981 110.686C65.315 110.686 65.2319 110.686 65.0657 110.603C64.8995 110.52 64.8995 110.52 64.8995 110.52C64.8164 110.437 64.7333 110.437 64.6502 110.52C64.5671 110.603 64.5671 110.686 64.484 110.686C64.484 110.852 64.484 110.852 64.5671 110.935C64.6502 111.018 64.6502 111.101 64.8164 111.101C64.8164 111.184 64.8995 111.184 65.2319 111.268C65.5643 111.268 65.8136 111.351 66.146 111.434C66.3952 111.517 66.6445 111.6 66.9769 111.6C67.2262 111.683 67.3093 111.766 67.3093 111.766C67.4755 111.766 67.5586 111.766 67.6417 111.683C67.7248 111.683 67.8079 111.6 67.8079 111.517C67.891 111.434 67.891 111.351 67.8079 111.268C67.7248 111.184 67.6417 111.184 67.5586 111.184C67.5586 111.184 67.4755 111.184 67.3924 111.184C67.3093 111.101 67.1431 111.101 67.06 111.101C66.9769 111.018 66.8107 110.935 66.8107 110.935C66.7276 110.769 66.7276 110.686 66.8107 110.52L67.7248 106.863C67.8079 106.697 67.891 106.531 67.891 106.448C68.0572 106.365 68.0572 106.365 68.3065 106.448C68.3896 106.448 68.3896 106.531 68.5558 106.531C68.722 106.614 68.722 106.614 68.722 106.614C68.6389 106.78 68.6389 106.78 68.8882 106.697ZM72.3783 108.608C72.3783 108.692 72.3783 108.775 72.4614 108.775C72.5445 108.858 72.6276 108.858 72.6276 108.941C72.7938 108.941 72.7937 108.858 72.8768 108.775C72.9599 108.775 72.9599 108.608 72.9599 108.525C72.9599 108.525 72.9599 108.442 73.043 108.442C73.043 108.11 73.043 107.777 73.043 107.445C73.043 107.279 73.1261 107.113 73.1261 107.03C73.2092 106.863 73.2092 106.863 73.2092 106.863C73.2092 106.78 73.2092 106.697 73.1261 106.697C73.043 106.614 72.9599 106.614 72.8768 106.531C72.7937 106.531 72.7107 106.614 72.7107 106.697C72.6276 106.697 72.6276 106.863 72.6276 106.863V106.947C72.4614 106.78 72.2121 106.614 71.9628 106.614C71.7966 106.531 71.5473 106.448 71.298 106.448C70.7163 106.365 70.3008 106.531 69.8853 106.78C69.4698 107.113 69.3037 107.445 69.2206 107.944C69.2206 108.193 69.2206 108.442 69.3037 108.608C69.4699 108.775 69.5529 108.941 69.7191 109.19C69.8853 109.356 70.3008 109.523 70.9656 109.689H71.0487C71.7135 109.855 72.0459 110.104 72.129 110.27C72.2952 110.437 72.2952 110.686 72.2952 110.935C72.2121 111.268 72.129 111.6 71.8797 111.766C71.6304 111.849 71.298 112.015 70.8825 111.932C70.467 111.849 70.1346 111.766 69.8853 111.517C69.636 111.268 69.4698 110.852 69.5529 110.52V110.27C69.5529 110.104 69.5529 109.938 69.4698 109.855C69.4698 109.772 69.3037 109.689 69.3037 109.689C69.1375 109.689 69.1375 109.772 69.0544 109.855C68.9713 109.938 68.8882 109.938 68.8882 110.187C68.8882 110.187 68.8882 110.354 68.8882 110.52C68.8882 110.769 68.8882 111.018 68.8051 111.184C68.8051 111.351 68.8051 111.517 68.722 111.683C68.722 111.849 68.6389 112.015 68.6389 112.015C68.6389 112.099 68.6389 112.182 68.722 112.265V112.348C68.8051 112.431 68.8051 112.431 68.9713 112.514C69.0544 112.514 69.1375 112.431 69.2206 112.431C69.3037 112.348 69.3037 112.265 69.3037 112.099C69.3037 112.099 69.3037 112.099 69.3037 112.015V111.932C69.4699 112.099 69.7191 112.265 69.9684 112.348C70.1346 112.431 70.467 112.514 70.7994 112.514C71.3811 112.597 71.8797 112.431 72.2952 112.099C72.7107 111.766 72.9599 111.434 72.9599 110.769C73.043 110.52 72.9599 110.354 72.8768 110.187C72.7937 110.021 72.7107 109.772 72.5445 109.606C72.3783 109.439 71.9628 109.273 71.3811 109.107C71.298 109.107 71.2149 109.024 71.2149 109.024C70.6332 108.858 70.3008 108.608 70.0515 108.525C69.9684 108.359 69.8853 108.11 69.8853 107.861C69.9684 107.528 70.0515 107.279 70.3008 107.196C70.467 107.03 70.7163 106.947 71.1318 106.947C71.4642 107.03 71.7966 107.113 71.9628 107.279C72.2121 107.445 72.3783 107.694 72.3783 107.944C72.3783 108.11 72.3783 108.193 72.3783 108.359C72.2952 108.359 72.2952 108.525 72.3783 108.608ZM63.8192 108.525C63.7361 108.442 63.653 108.442 63.5699 108.525C63.4868 108.608 63.4037 108.692 63.4037 108.775C63.4037 108.775 63.3206 108.941 63.3206 109.107C63.2375 109.273 63.2375 109.356 63.1544 109.523C63.0713 109.772 62.9882 109.938 62.8221 110.021C62.6559 110.104 62.4066 110.104 62.1573 109.938L61.2432 109.606C61.077 109.523 60.9108 109.523 60.9108 109.356C60.8277 109.273 60.8277 109.107 60.9939 108.858L62.1573 105.451C62.2404 105.285 62.2404 105.118 62.3235 105.118C62.4897 105.035 62.5728 105.035 62.739 105.118C62.739 105.118 62.8221 105.201 62.9051 105.285C62.9882 105.285 63.0713 105.368 63.0713 105.368C63.1544 105.451 63.2375 105.451 63.3206 105.368C63.4037 105.285 63.4868 105.285 63.4868 105.201C63.4868 105.118 63.4868 105.035 63.4037 104.952C63.3206 104.786 63.2375 104.786 63.0713 104.703C62.9883 104.703 62.8221 104.62 62.4897 104.537C62.2404 104.454 61.9911 104.454 61.8249 104.37C61.6587 104.287 61.4094 104.204 61.1601 104.121C60.9108 103.955 60.7446 103.955 60.7446 103.955C60.5784 103.872 60.4953 103.872 60.4122 103.872C60.3291 103.955 60.3291 103.955 60.3291 104.121C60.246 104.204 60.246 104.287 60.3291 104.37C60.3291 104.454 60.4122 104.537 60.4953 104.537C60.4953 104.537 60.5784 104.62 60.6615 104.62C60.8277 104.62 60.9108 104.703 60.9939 104.703C61.077 104.786 61.2432 104.869 61.2432 104.952C61.3263 105.035 61.3263 105.201 61.2432 105.368L59.9967 108.941C59.9967 109.107 59.8305 109.19 59.8305 109.273C59.7474 109.356 59.5813 109.356 59.4151 109.273C59.332 109.19 59.332 109.19 59.1658 109.107C59.0827 109.024 58.9996 109.024 58.9996 109.024C58.9165 108.941 58.8334 108.941 58.7503 109.024C58.6672 109.024 58.6672 109.024 58.5841 109.107C58.5841 109.107 58.501 109.19 58.501 109.273C58.4179 109.439 58.4179 109.439 58.501 109.523C58.501 109.606 58.5841 109.606 58.5841 109.606C58.6672 109.689 58.7503 109.689 58.7503 109.689C58.7503 109.689 58.8334 109.689 58.9165 109.689L58.9996 109.772C59.332 109.855 59.6644 109.855 59.9136 110.021L61.908 110.686C62.1573 110.769 62.4066 110.852 62.6559 111.018C62.739 111.018 62.739 111.101 62.739 111.101C62.9052 111.101 62.9882 111.101 63.1544 111.101C63.2375 111.018 63.2375 110.935 63.3206 110.769C63.3206 110.686 63.4037 110.603 63.4037 110.437C63.4868 110.27 63.5699 110.104 63.5699 110.104C63.653 109.938 63.653 109.772 63.7361 109.523C63.8192 109.356 63.9023 109.19 63.9023 109.19C63.9023 109.107 63.9023 109.024 63.9023 108.858C64.0685 108.608 63.9854 108.525 63.8192 108.525ZM58.0024 105.368C58.2517 105.534 58.5841 105.534 58.7503 105.368C58.8334 105.368 58.8334 105.368 58.8334 105.368C58.9165 105.285 59.0827 105.285 59.1658 105.201C59.332 105.035 59.332 104.952 59.4982 104.786C59.6644 104.37 59.7474 103.872 59.5813 103.54C59.4982 103.373 59.4151 103.207 59.1658 103.124C59.0827 102.958 58.9996 102.875 58.8334 102.792C58.7503 102.709 58.5841 102.625 58.501 102.542C58.4179 102.459 58.0855 102.376 57.7531 102.127C57.4207 102.044 57.0883 101.878 56.9221 101.794C56.839 101.711 56.6728 101.628 56.5066 101.545C56.5066 101.545 56.4236 101.462 56.3405 101.462C56.0912 101.296 56.0081 101.213 56.0081 101.213C55.8419 101.13 55.7588 101.047 55.6757 101.13C55.5926 101.13 55.5095 101.213 55.5095 101.296C55.4264 101.379 55.4264 101.462 55.4264 101.462C55.5095 101.545 55.5095 101.545 55.5926 101.628C55.6757 101.628 55.7588 101.711 55.8419 101.711C55.925 101.794 56.0081 101.794 56.0912 101.794C56.2574 101.878 56.2574 101.961 56.3405 102.127C56.3405 102.21 56.2574 102.376 56.2574 102.542L54.5954 105.7C54.5123 105.949 54.3461 106.032 54.263 106.116C54.1799 106.199 54.0137 106.116 53.8475 106.032C53.7644 105.949 53.7644 105.949 53.6813 105.949C53.5982 105.866 53.5151 105.783 53.5151 105.783C53.3489 105.7 53.3489 105.7 53.2658 105.7C53.1827 105.7 53.0997 105.783 53.0997 105.783C53.0166 105.866 53.0166 105.949 53.0997 106.032V106.116C53.1828 106.199 53.2658 106.199 53.2658 106.282C53.2658 106.282 53.432 106.365 53.6813 106.448C53.9306 106.614 54.0968 106.697 54.3461 106.863C54.5123 106.947 54.7616 107.113 55.094 107.279C55.4264 107.445 55.5926 107.611 55.7588 107.694C56.0912 107.861 56.3405 107.944 56.5897 108.027C56.9221 108.11 57.1714 108.193 57.5038 108.11C58.0024 108.027 58.3348 107.694 58.5841 107.279C58.7503 106.863 58.8334 106.531 58.7503 106.199C58.501 105.949 58.3348 105.7 58.0024 105.368ZM56.4236 103.706L56.839 102.958C56.9221 102.792 57.0052 102.709 57.1714 102.709C57.3376 102.625 57.5869 102.792 57.8362 102.958C58.3348 103.207 58.6672 103.456 58.7503 103.623C58.9165 103.872 58.9165 104.121 58.7503 104.37C58.6672 104.537 58.501 104.786 58.3348 104.786C58.1686 104.952 57.9193 104.952 57.67 104.869C57.5038 104.786 57.4207 104.786 57.2545 104.703C57.0883 104.537 56.9221 104.537 56.6728 104.37C56.5897 104.287 56.5067 104.204 56.3405 104.204L56.2574 104.121C56.1743 103.955 56.1743 103.955 56.1743 103.872L56.4236 103.706ZM57.7531 106.947C57.5869 107.279 57.3376 107.528 57.0052 107.611C56.839 107.611 56.6728 107.611 56.4236 107.611C56.2574 107.528 56.0081 107.445 55.8419 107.362C55.4264 107.113 55.1771 106.947 55.0109 106.78C54.9278 106.614 54.9278 106.448 55.094 106.282L55.6757 105.118C55.7588 104.952 55.925 104.786 56.0912 104.786C56.1743 104.786 56.2574 104.869 56.5066 104.952C56.5897 105.035 56.6728 105.035 56.839 105.118C57.4207 105.451 57.67 105.783 57.9193 105.949C58.0024 106.199 57.9193 106.614 57.7531 106.947ZM41.2998 91.6566C41.466 91.5735 41.6322 91.4904 41.7153 91.4904C41.7984 91.4073 41.8815 91.3242 41.8815 91.3242C41.9646 91.158 41.9646 91.158 41.8815 91.0749C41.7984 90.9918 41.7153 90.9918 41.7153 90.9087C41.5491 90.9087 41.5491 90.9087 41.3829 90.9918C41.2998 90.9918 41.2167 91.0749 41.1336 91.0749C41.0505 91.2411 40.8843 91.2411 40.7181 91.3242C40.4688 91.4904 40.3026 91.4904 40.0534 91.4904C39.9703 91.4073 39.8041 91.2411 39.6379 90.9087L39.0562 89.6623C38.9731 89.4961 38.9731 89.3299 38.9731 89.2468C39.0562 89.0806 39.1393 89.0806 39.3886 88.9144L40.635 88.2496C40.7181 88.1665 40.8012 88.1665 40.8843 88.1665C40.9674 88.2496 41.0505 88.3327 41.1336 88.4158C41.2998 88.8313 41.3829 89.0806 41.3829 89.1637C41.3829 89.2468 41.2167 89.413 40.9674 89.4961C40.9674 89.5791 40.8843 89.5792 40.8843 89.5792C40.8012 89.6623 40.7181 89.6623 40.7181 89.6623C40.5519 89.7453 40.5519 89.7453 40.5519 89.8284C40.5519 89.9115 40.5519 89.9946 40.5519 89.9946C40.635 90.0777 40.7181 90.0777 40.8012 90.0777C40.8843 90.0777 40.9674 90.0777 41.2167 89.9946C41.2998 89.9946 41.3829 89.9115 41.5491 89.8284C41.7153 89.7453 41.9646 89.5791 42.0477 89.4961C42.1308 89.413 42.3801 89.3299 42.6294 89.2468C42.7125 89.1637 42.7956 89.1637 42.8787 89.0806C42.9618 89.0806 42.9618 89.0806 42.9618 88.9975C43.128 88.9144 43.2111 88.8313 43.2942 88.8313C43.3773 88.6651 43.3773 88.6651 43.3773 88.582C43.2942 88.4989 43.2111 88.4158 43.2111 88.4158C43.128 88.4158 43.0449 88.4158 42.9618 88.4989H42.8787C42.7956 88.582 42.7125 88.582 42.7125 88.6651C42.6294 88.7482 42.6294 88.7482 42.5463 88.7482C42.3801 88.8313 42.1308 88.9144 42.1308 88.8313C41.9646 88.7482 41.7984 88.4989 41.7153 88.1665C41.6322 88.0003 41.6322 88.0003 41.6322 87.9172C41.7153 87.751 41.7153 87.751 41.8815 87.6679L42.7956 87.2524C42.8787 87.1693 42.9618 87.1693 43.0449 87.1693C43.128 87.1693 43.128 87.1693 43.2111 87.1693C43.2942 87.1693 43.3773 87.2524 43.5434 87.5017L44.1251 88.582C44.2913 88.9144 44.2913 89.1637 44.2913 89.2468C44.2082 89.413 44.1251 89.5792 43.7927 89.6623C43.7096 89.7453 43.6265 89.8284 43.4603 89.8284C43.2942 89.9115 43.2111 89.9115 43.128 89.9946C43.0449 89.9946 43.0449 89.9946 43.0449 90.0777C42.9618 90.1608 42.9618 90.1608 42.9618 90.1608C42.8787 90.327 42.8787 90.327 42.9618 90.4101C42.9618 90.4932 42.9618 90.4932 43.0449 90.5763C43.0449 90.5763 43.128 90.5763 43.128 90.6594C43.2111 90.6594 43.2942 90.6594 43.3773 90.5763C43.4603 90.4932 43.5434 90.4101 43.7096 90.4101C43.8758 90.2439 44.1251 90.1608 44.2913 90.0777C44.3744 89.9946 44.4575 89.9946 44.6237 89.9115C44.7068 89.8284 44.873 89.7453 44.9561 89.7453C45.1223 89.6623 45.1223 89.5791 45.2054 89.4961C45.2054 89.3299 45.2054 89.2468 45.1223 89.1637C45.1223 89.0806 45.1223 89.0806 45.1223 89.0806C44.9561 88.8313 44.7899 88.582 44.7068 88.3327L43.8758 86.6707L43.6265 86.2553C43.5434 86.0891 43.4603 85.8398 43.3773 85.5905C43.2942 85.3412 43.2111 85.175 43.128 85.0919C43.128 85.0088 43.0449 85.0088 43.0449 84.9257C42.9618 84.8426 42.9618 84.8426 42.8787 84.8426C42.7956 84.7595 42.7125 84.7595 42.6294 84.8426C42.5463 84.9257 42.4632 84.9257 42.4632 85.0088C42.4632 85.0919 42.4632 85.175 42.5463 85.2581C42.5463 85.3412 42.6294 85.3412 42.7125 85.4243C42.7956 85.5074 42.7956 85.5905 42.8787 85.5905C42.9618 85.7567 42.9618 85.9229 42.9618 86.006C42.8787 86.1722 42.8787 86.2553 42.6294 86.3384L39.3886 88.0003C39.2224 88.0834 38.9731 88.1665 38.9731 88.0834C38.89 88.0834 38.8069 88.0003 38.6407 87.751C38.6407 87.6679 38.5576 87.5848 38.5576 87.5848C38.4745 87.5017 38.4745 87.4186 38.3914 87.4186C38.3914 87.2524 38.3083 87.2524 38.2252 87.2524C38.1421 87.2524 38.1421 87.2524 38.059 87.2524C37.8928 87.3355 37.8928 87.3355 37.8928 87.5017C37.8097 87.5848 37.8928 87.5848 37.9759 87.751C37.9759 87.751 37.9759 87.8341 38.059 87.9172C38.2252 88.1665 38.3914 88.4989 38.5576 88.7482L39.721 90.9087C39.8041 91.158 39.9703 91.4073 40.0534 91.6566C40.0534 91.7397 40.1365 91.7397 40.1365 91.7397C40.2195 91.9059 40.3026 91.9059 40.3857 91.989C40.4688 91.989 40.5519 91.989 40.7181 91.9059C40.8012 91.8228 40.8843 91.7397 41.0505 91.7397C41.2167 91.6566 41.2998 91.6566 41.3829 91.5735C40.9674 91.8228 41.1336 91.7397 41.2998 91.6566ZM44.873 95.7284C44.9561 95.5622 45.0392 95.396 45.0392 95.1467C45.1223 94.8974 44.9561 94.4819 44.7068 93.9002C44.6237 93.8171 44.5406 93.734 44.5406 93.734C44.2913 93.1523 44.2082 92.82 44.2082 92.5707C44.2082 92.4045 44.2913 92.1552 44.6237 91.989C44.873 91.8228 45.1223 91.7397 45.3716 91.8228C45.5378 91.9059 45.704 91.989 45.7871 92.0721C45.8702 92.1552 45.9533 92.1552 46.0364 92.3214C46.2026 92.6538 46.3688 92.903 46.3688 93.1523C46.3688 93.4016 46.2857 93.6509 46.1195 93.8171C46.0364 93.9002 45.9533 93.9833 45.7871 94.0664L45.704 94.1495C45.6209 94.3157 45.4547 94.3157 45.3716 94.3988C45.3716 94.4819 45.2885 94.4819 45.2885 94.565C45.2885 94.6481 45.3716 94.7312 45.3716 94.7312C45.4547 94.8143 45.5378 94.8974 45.6209 94.8974H45.704C45.704 94.8143 45.7871 94.8143 45.8702 94.7312C45.8702 94.7312 45.9533 94.7312 45.9533 94.6481C46.2857 94.4819 46.535 94.2326 46.7842 93.9833C46.8673 93.9002 47.0335 93.8171 47.1997 93.8171C47.2828 93.734 47.3659 93.6509 47.3659 93.6509C47.449 93.5678 47.5321 93.5678 47.5321 93.4847C47.5321 93.4016 47.449 93.3185 47.3659 93.3185C47.3659 93.2354 47.2828 93.1523 47.1997 93.1523C47.1166 93.1523 47.0335 93.1523 46.9504 93.2354L46.8673 93.3185C46.9504 93.0692 46.8673 92.82 46.7842 92.6538C46.7011 92.4045 46.6181 92.1552 46.4519 91.989C46.2026 91.6566 45.9533 91.4073 45.704 91.3242C45.6209 91.2411 45.4547 91.2411 45.2885 91.2411C44.873 91.0749 44.4575 91.2411 44.042 91.4904C43.7927 91.6566 43.7096 91.8228 43.5434 91.989C43.4604 92.2383 43.4603 92.4045 43.4603 92.6538C43.4603 92.9031 43.5434 93.3185 43.8758 93.9002L43.9589 93.9833C44.2082 94.6481 44.3744 94.9805 44.2913 95.2298C44.2913 95.396 44.1251 95.5622 43.8758 95.8115C43.5434 95.9777 43.2942 96.0608 43.0449 95.9777C42.9618 95.9777 42.8787 95.9777 42.7956 95.8946C42.6294 95.7284 42.3801 95.5622 42.2139 95.396C41.9646 94.9805 41.7984 94.6481 41.8815 94.3157C41.9646 93.9833 42.1308 93.6509 42.4632 93.4847L42.7125 93.3185C42.7125 93.2354 42.7125 93.2354 42.7956 93.2354C42.8787 93.1523 42.8787 93.0692 42.9618 92.9861C42.9618 92.9031 42.9618 92.82 42.8787 92.7369C42.7956 92.6538 42.7956 92.6538 42.7956 92.6538C42.7125 92.6538 42.7125 92.6538 42.6294 92.6538C42.5463 92.6538 42.4632 92.6538 42.297 92.7369C42.297 92.7369 42.2139 92.82 42.0477 92.9031C41.8815 93.0692 41.7153 93.2354 41.466 93.3185C41.3829 93.4016 41.2167 93.4847 41.0505 93.5678C40.8843 93.6509 40.8012 93.734 40.7181 93.734C40.635 93.8171 40.635 93.9002 40.635 93.9833C40.5519 94.0664 40.635 94.1495 40.635 94.2326C40.7181 94.3157 40.8012 94.3157 40.8843 94.3157C40.9674 94.3157 40.9674 94.3157 41.1336 94.2326C41.1336 94.1495 41.1336 94.1495 41.2167 94.1495C41.2167 94.1495 41.2167 94.0664 41.2998 94.0664C41.2998 94.3157 41.2998 94.565 41.3829 94.8143C41.466 95.1467 41.5491 95.396 41.7984 95.6453C42.1308 96.0608 42.4632 96.31 42.8787 96.4762C42.9618 96.5593 42.9618 96.5593 43.0449 96.5593C43.5434 96.7255 43.9589 96.5593 44.4575 96.227C44.6237 96.0608 44.7899 95.8946 44.873 95.7284ZM46.4519 100.299C46.3688 100.216 46.2857 100.216 46.2857 100.216C46.1195 100.049 46.0364 99.8832 46.0364 99.8001C46.0364 99.717 46.2026 99.5508 46.2857 99.4677L48.9448 97.0579C49.111 96.8917 49.2772 96.8086 49.3603 96.8086C49.4434 96.8086 49.5265 96.8917 49.7758 97.0579C50.025 97.3072 50.1912 97.5565 50.1912 97.7227C50.1912 97.8889 50.1081 98.0551 49.8589 98.2213C49.7758 98.3875 49.6927 98.3875 49.5265 98.5537C49.3603 98.6368 49.3603 98.7199 49.2772 98.7199C49.1941 98.803 49.111 98.8861 49.111 98.9692C49.111 99.0523 49.111 99.1354 49.1941 99.2185C49.2772 99.3016 49.3603 99.3016 49.4434 99.3016C49.5265 99.3016 49.6096 99.2185 49.6927 99.2185C49.6927 99.2185 49.8589 99.0523 49.9419 98.9692C50.1081 98.803 50.1912 98.6368 50.3574 98.5537C50.4405 98.4706 50.5236 98.4706 50.6898 98.3044C50.7729 98.2213 50.856 98.2213 50.9391 98.1382C51.0222 98.1382 51.0222 98.0551 51.0222 98.0551C51.1053 97.972 51.1053 97.8889 51.1053 97.8058C51.1053 97.7227 51.0222 97.6396 51.0222 97.5565C51.0222 97.4734 50.9391 97.4734 50.9391 97.4734C50.9391 97.3903 50.9391 97.3903 50.856 97.3072C50.4405 96.9748 50.1912 96.6424 49.7758 96.227L49.2772 95.6453C48.8617 95.3129 48.6124 94.9805 48.28 94.565C48.1969 94.4819 48.1969 94.4819 48.1969 94.4819C48.0307 94.3157 47.9476 94.3157 47.8645 94.3157C47.7814 94.3157 47.6152 94.3988 47.449 94.3988C47.449 94.4819 47.2828 94.4819 47.2828 94.6481C47.1997 94.7312 47.1166 94.8974 47.0335 94.9805C46.9504 95.0636 46.7011 95.1467 46.6181 95.396C46.4519 95.5622 46.2857 95.5622 46.2857 95.5622C46.2026 95.6453 46.1195 95.7284 46.1195 95.8115C46.0364 95.9777 46.1195 95.9777 46.2026 96.0608C46.2857 96.1438 46.3688 96.1438 46.4519 96.1438C46.535 96.0608 46.6181 96.0608 46.7011 96.0608C46.7842 95.9777 46.8673 95.8946 46.8673 95.8115C46.9504 95.6453 47.1166 95.5622 47.1997 95.4791C47.3659 95.3129 47.6152 95.1467 47.7814 95.2298C47.9476 95.2298 48.1969 95.3129 48.4462 95.6453C48.6124 95.8115 48.6955 95.9777 48.6955 96.0608C48.6955 96.1438 48.6124 96.31 48.3631 96.4762L45.7871 98.8861V98.9692C45.6209 99.0523 45.4547 99.1354 45.3716 99.1354C45.2885 99.1354 45.1223 99.0523 44.9561 98.8861C44.873 98.8861 44.873 98.803 44.873 98.7199C44.7899 98.6368 44.7899 98.5537 44.7068 98.5537C44.6237 98.4706 44.5406 98.4706 44.5406 98.4706C44.3744 98.4706 44.3744 98.5537 44.2913 98.5537C44.2082 98.6368 44.1251 98.6368 44.1251 98.803C44.1251 98.8861 44.2082 98.9692 44.2913 99.0523C44.3744 99.1354 44.5406 99.3016 44.7899 99.4677C44.9561 99.717 45.2054 99.8832 45.2885 99.9663C45.3716 100.133 45.6209 100.382 45.7871 100.631L45.8702 100.714C46.0364 100.88 46.1195 101.047 46.2026 101.13C46.2857 101.213 46.3688 101.296 46.4519 101.296C46.535 101.379 46.6181 101.296 46.7011 101.213C46.7842 101.13 46.7842 101.047 46.7842 100.964C46.7842 100.88 46.7011 100.797 46.7011 100.714C46.6181 100.382 46.535 100.382 46.4519 100.299ZM52.518 105.285C52.4349 105.285 52.4349 105.285 52.3518 105.201H52.2687C52.1025 105.035 52.1025 104.952 52.0194 104.869C52.0194 104.703 52.0194 104.62 52.1856 104.37L52.9335 102.127L53.5982 100.133C53.6813 99.8832 53.6813 99.717 53.6813 99.6339C53.5982 99.4678 53.5982 99.3847 53.432 99.3016C53.3489 99.1354 53.2658 99.1354 53.0997 99.1354C53.0166 99.1354 53.0166 99.1354 52.8504 99.2185C52.7673 99.2185 52.7673 99.3016 52.6011 99.3847L50.9391 100.382L48.7786 101.711C48.6124 101.794 48.3631 101.878 48.28 101.878C48.1138 101.878 48.0307 101.794 47.8645 101.711C47.8645 101.711 47.8645 101.711 47.7814 101.628C47.6983 101.545 47.6983 101.545 47.6152 101.462C47.5321 101.379 47.5321 101.379 47.449 101.379C47.3659 101.462 47.2828 101.462 47.2828 101.545C47.1997 101.628 47.1997 101.711 47.1997 101.794C47.1997 101.878 47.2828 101.961 47.2828 102.044C47.2828 102.044 47.449 102.127 47.6983 102.376C48.0307 102.542 48.28 102.709 48.5293 102.958C48.6124 103.041 48.7786 103.207 48.9448 103.373C49.111 103.54 49.111 103.623 49.1941 103.623C49.2772 103.706 49.3603 103.789 49.4434 103.789C49.5265 103.706 49.6096 103.706 49.6096 103.623C49.6927 103.54 49.6927 103.456 49.6927 103.456C49.6927 103.29 49.6096 103.29 49.6096 103.207C49.5265 103.124 49.4434 103.124 49.4434 103.124C49.3603 103.041 49.3603 102.958 49.2772 102.958C49.1941 102.875 49.1941 102.792 49.1941 102.792C49.1941 102.709 49.1941 102.625 49.1941 102.625C49.2772 102.542 49.2772 102.542 49.2772 102.459C49.3603 102.376 49.4434 102.376 49.4434 102.376L50.1081 102.044C50.1912 101.961 50.2743 101.961 50.2743 101.961C50.3574 101.878 50.4405 101.961 50.4405 101.961L51.0222 102.459L51.7701 103.124C51.8532 103.124 51.8532 103.207 51.8532 103.29C51.9363 103.373 51.8532 103.456 51.8532 103.54L51.5208 103.872C51.5208 103.955 51.4377 103.955 51.4377 104.038C51.3546 104.121 51.3546 104.121 51.3546 104.204C51.2715 104.287 51.1884 104.37 51.1884 104.37C51.1053 104.37 51.0222 104.371 51.0222 104.287H50.9391C50.856 104.204 50.856 104.121 50.7729 104.121C50.7729 103.872 50.6898 103.872 50.6898 103.872C50.6067 103.789 50.6067 103.789 50.4405 103.789C50.3574 103.789 50.2743 103.872 50.2743 103.872C50.1912 104.038 50.1912 104.038 50.1912 104.121C50.1912 104.204 50.1912 104.287 50.2743 104.37C50.2743 104.37 50.4405 104.454 50.5236 104.537C50.6898 104.703 50.856 104.703 50.9391 104.869C51.2715 105.118 51.6039 105.368 51.8532 105.7C51.9363 105.783 52.0194 105.783 52.0194 105.783C52.1025 105.866 52.1856 105.866 52.2687 105.866C52.4349 105.866 52.4349 105.866 52.518 105.783C52.6011 105.7 52.6011 105.7 52.6011 105.534C52.6842 105.451 52.6011 105.451 52.518 105.285ZM51.8532 102.127L50.9391 101.462C50.856 101.379 50.7729 101.296 50.7729 101.296C50.7729 101.213 50.7729 101.213 50.856 101.213C50.856 101.213 50.9391 101.213 50.9391 101.13H51.0222L52.9335 99.9663H53.0166L52.9335 100.133L52.1856 102.044C52.1856 102.127 52.1856 102.127 52.1025 102.127V102.21C52.0194 102.21 52.0194 102.21 52.0194 102.21C51.9363 102.21 51.9363 102.21 51.8532 102.127ZM90.7428 103.041C90.4935 102.958 90.1611 102.875 89.9118 102.875C89.4963 102.875 88.9978 102.958 88.4992 103.29C88.4161 103.373 88.1668 103.456 87.8344 103.706C87.502 103.872 87.2527 103.955 87.0865 104.038C86.9203 104.121 86.8372 104.204 86.671 104.204C86.5879 104.204 86.5879 104.204 86.5879 104.204C86.5048 104.204 86.4217 104.287 86.2555 104.287C86.0893 104.371 86.0062 104.37 86.0062 104.454C85.84 104.537 85.7569 104.537 85.7569 104.62C85.6739 104.703 85.7569 104.786 85.7569 104.869C85.84 104.952 85.84 105.035 85.9231 105.035C86.0062 105.118 86.0893 105.118 86.1724 105.035H86.2555C86.3386 104.952 86.3386 104.952 86.3386 104.869C86.5048 104.786 86.5048 104.786 86.5879 104.703C86.7541 104.62 86.8372 104.62 87.0034 104.62C87.0865 104.703 87.1696 104.786 87.2527 104.952L88.8316 108.359C88.9147 108.525 88.9147 108.692 88.9147 108.775C88.9147 108.941 88.8316 108.941 88.6654 109.024C88.5823 109.107 88.4992 109.107 88.4161 109.107C88.333 109.19 88.2499 109.19 88.2499 109.273C88.1668 109.273 88.0837 109.356 88.0837 109.439C88.0006 109.523 88.0006 109.606 88.0837 109.689C88.1668 109.772 88.2499 109.772 88.2499 109.772C88.333 109.772 88.4161 109.772 88.5823 109.689C88.6654 109.606 88.8316 109.523 89.0808 109.439C89.247 109.356 89.4963 109.19 89.6625 109.107C89.7456 109.024 89.8287 109.024 89.9949 108.941C90.078 108.858 90.1611 108.775 90.3273 108.775C90.6597 108.608 90.909 108.525 91.0752 108.442C91.9062 108.11 92.4047 107.528 92.654 106.78C92.8202 106.116 92.7371 105.368 92.4047 104.537C91.9062 103.872 91.4076 103.29 90.7428 103.041ZM91.9062 106.947C91.8231 107.445 91.3245 107.861 90.7428 108.11C90.4104 108.276 90.1611 108.359 89.9949 108.359H89.9118C89.8287 108.359 89.6625 108.193 89.4963 107.944L88.0837 104.952L88.0006 104.786C87.9175 104.454 87.8344 104.287 87.9175 104.204C87.9175 104.038 88.0837 103.955 88.4161 103.789C88.9978 103.54 89.4963 103.456 89.9118 103.456C90.078 103.456 90.1611 103.456 90.3273 103.54C90.8259 103.706 91.2414 104.204 91.5738 104.952C91.9062 105.7 91.9893 106.365 91.9062 106.947ZM106.365 92.4876C106.199 92.4876 106.033 92.5707 105.95 92.7369C105.867 92.7369 105.867 92.7369 105.867 92.82C105.783 92.903 105.7 93.0692 105.7 93.1523C105.783 93.3185 105.783 93.3185 105.867 93.4016C105.867 93.4847 105.867 93.4847 105.867 93.4847C106.033 93.5678 106.033 93.5678 106.199 93.5678C106.282 93.5678 106.282 93.4847 106.365 93.4016C106.448 93.3185 106.448 93.3185 106.448 93.2354C106.448 93.1523 106.448 93.0692 106.448 93.0692C106.448 92.9861 106.531 92.9861 106.531 92.9861C106.531 93.0692 106.614 93.0692 106.614 93.0692C106.781 93.2354 106.864 93.3185 106.864 93.4847C106.947 93.5678 106.864 93.734 106.781 93.9002C106.614 94.0664 106.365 94.2326 105.867 94.3157L105.617 94.3988C105.534 94.4819 105.285 94.4819 105.202 94.6481C105.119 94.7312 105.036 94.8143 104.952 94.9805C104.786 95.0636 104.786 95.3129 104.703 95.396C104.62 95.5622 104.62 95.7284 104.703 95.8946C104.537 95.8115 104.371 95.4791 104.371 95.2298C104.371 94.8974 104.454 94.3988 104.786 93.4847C104.786 93.4016 104.786 93.4016 104.786 93.3185C104.952 92.7369 105.036 92.2383 104.952 91.989C104.952 91.8228 104.869 91.6566 104.786 91.4904C104.62 91.3242 104.537 91.2411 104.371 91.158C103.955 90.8256 103.54 90.7425 103.041 90.9087C102.792 90.9918 102.543 91.0749 102.376 91.3242C102.21 91.4904 101.961 91.7397 101.712 91.989C101.545 92.3214 101.379 92.6538 101.296 92.9861V93.4847V93.8171C101.462 94.1495 101.629 94.4819 101.961 94.7312C102.044 94.8143 102.21 94.8143 102.376 94.8143C102.376 94.8143 102.376 94.8143 102.46 94.8143C102.543 94.8143 102.792 94.7312 102.875 94.565C103.041 94.4819 103.041 94.3157 103.041 94.1495C103.041 93.9833 102.958 93.9002 102.875 93.8171C102.709 93.734 102.709 93.6509 102.626 93.6509C102.543 93.6509 102.543 93.6509 102.543 93.734C102.46 93.734 102.46 93.734 102.376 93.8171C102.376 93.9002 102.376 93.9002 102.376 93.9002C102.293 93.9833 102.293 93.9833 102.293 93.9833C102.21 93.9833 102.21 93.9833 102.127 93.9002C102.044 93.734 101.878 93.5678 101.961 93.2354C101.961 92.903 102.127 92.6538 102.376 92.3214C102.376 92.2383 102.46 92.2383 102.543 92.1552C102.709 91.9059 102.958 91.7397 103.207 91.6566C103.54 91.5735 103.872 91.5735 104.121 91.8228C104.288 91.989 104.371 91.989 104.454 92.2383C104.537 92.4045 104.537 92.5707 104.537 92.6538C104.454 92.82 104.454 93.1523 104.288 93.5678C104.121 93.9833 104.121 94.3157 104.038 94.565C103.955 94.9805 103.955 95.4791 104.121 95.8946C104.288 96.2269 104.537 96.5593 104.786 96.8086C105.036 96.8917 105.202 96.9748 105.451 96.9748C105.617 96.9748 105.783 96.8917 105.867 96.8086C105.95 96.6424 106.033 96.5593 106.033 96.4762C106.033 96.3931 105.95 96.31 105.867 96.227C105.7 96.1439 105.534 96.1439 105.368 96.31C105.285 96.2269 105.285 96.1438 105.285 96.0608C105.285 95.8946 105.368 95.8115 105.368 95.7284C105.534 95.5622 105.534 95.4791 105.783 95.3129C105.867 95.3129 105.95 95.2298 106.033 95.2298C106.199 95.1467 106.282 95.0636 106.448 95.0636C106.531 95.0636 106.531 95.0636 106.614 94.9805C107.03 94.8143 107.279 94.6481 107.445 94.3988C107.612 94.1495 107.695 93.8171 107.612 93.5678C107.528 93.2354 107.362 92.9861 107.113 92.82C106.781 92.5707 106.531 92.4876 106.365 92.4876ZM109.938 88.2496C109.606 87.5848 109.024 87.0862 108.276 86.6707C107.362 86.2553 106.698 86.0891 106.033 86.2553H105.95C105.285 86.4215 104.869 86.8369 104.537 87.4186C104.205 88.0834 104.205 88.6651 104.454 89.3299C104.703 89.9115 105.202 90.4101 105.95 90.7425C106.033 90.8256 106.116 90.8256 106.116 90.9087C106.947 91.3242 107.695 91.4904 108.359 91.3242C109.024 91.2411 109.523 90.8256 109.855 90.1608C110.188 89.4961 110.188 88.8313 109.938 88.2496ZM109.357 89.8284C109.107 90.2439 108.775 90.4932 108.193 90.5763C107.695 90.6594 107.113 90.4932 106.448 90.1608C106.282 90.0777 106.033 89.9946 105.95 89.8284C105.534 89.5792 105.285 89.2468 105.119 88.9144C104.869 88.4989 104.869 88.0834 105.119 87.5848C105.285 87.1693 105.534 86.92 105.95 86.92C106.033 86.8369 106.116 86.8369 106.116 86.8369C106.614 86.7538 107.279 86.92 107.861 87.2524C108.526 87.5848 109.024 88.0003 109.274 88.4158C109.523 88.9975 109.606 89.413 109.357 89.8284ZM102.21 96.31C101.961 95.9777 101.629 95.8115 101.296 95.6453C100.881 95.4791 100.631 95.3129 100.216 95.3129C99.6342 95.2298 99.1356 95.4791 98.7202 95.8115C98.6371 95.8946 98.6371 95.8946 98.4709 96.0608C98.0554 96.5593 97.8061 97.0579 97.8061 97.5565C97.8061 98.1382 97.9723 98.6368 98.4709 98.9692C98.554 99.1354 98.6371 99.1354 98.8033 99.2185C99.2187 99.4678 99.5511 99.6339 99.9666 99.5508C100.465 99.5508 100.964 99.3016 101.379 98.803C101.629 98.4706 101.795 98.2213 101.961 97.8889C102.044 97.5565 102.044 97.3072 101.961 96.9748C102.127 97.141 102.376 97.3903 102.46 97.5565C102.626 97.8889 102.875 98.1382 102.875 98.4706C102.958 98.9692 102.792 99.3847 102.46 99.8001L102.376 99.8832C102.21 100.049 102.044 100.216 101.712 100.216C101.545 100.382 101.462 100.382 101.296 100.382C101.296 100.299 101.296 100.299 101.296 100.299C101.296 100.299 101.213 100.299 101.213 100.216C101.213 100.049 101.213 99.8832 101.13 99.8832C101.047 99.8001 100.964 99.717 100.798 99.717C100.631 99.717 100.631 99.8001 100.465 99.8832C100.382 100.049 100.299 100.133 100.299 100.299C100.382 100.382 100.382 100.548 100.548 100.631C100.714 100.797 100.964 100.964 101.296 100.88C101.462 100.88 101.462 100.88 101.545 100.88C101.878 100.797 102.127 100.714 102.376 100.465C102.46 100.299 102.626 100.216 102.792 100.133C103.374 99.5508 103.54 98.8861 103.457 98.2213C103.291 97.5565 103.041 96.8917 102.376 96.31C102.293 96.31 102.293 96.31 102.21 96.31ZM101.296 97.6396C101.213 97.8058 101.13 98.0551 100.881 98.3044C100.548 98.6368 100.299 98.803 99.8835 98.803C99.5511 98.803 99.2187 98.6368 98.8863 98.3875C98.8032 98.3044 98.7202 98.3044 98.7202 98.2213C98.554 97.972 98.4709 97.7227 98.4709 97.4734C98.3878 97.2241 98.554 96.8917 98.7202 96.6424C98.8033 96.5593 98.8032 96.4762 98.8863 96.4762C99.2187 96.0608 99.5511 95.9777 99.8835 95.8946C100.216 95.8946 100.548 96.0608 100.798 96.31C101.047 96.4762 101.213 96.7255 101.213 96.9748C101.296 97.0579 101.296 97.2241 101.296 97.3072C101.379 97.3903 101.379 97.5565 101.296 97.6396ZM86.671 109.523C86.5879 109.356 86.5879 109.273 86.5879 109.19C86.5048 109.024 86.5048 108.858 86.4217 108.525C86.3386 108.359 86.3386 108.193 86.3386 108.193C86.3386 108.11 86.2555 108.11 86.2555 108.11C86.2555 108.027 86.1724 107.944 86.0893 107.944C86.0062 107.861 86.0062 107.861 85.9231 107.861C85.757 107.944 85.757 107.944 85.6739 108.027C85.6739 108.11 85.6739 108.193 85.6739 108.359C85.6739 108.359 85.7569 108.525 85.7569 108.608C85.84 108.775 85.9231 108.941 85.9231 108.941C86.0062 109.273 86.0062 109.439 85.9231 109.606C85.84 109.772 85.5908 109.855 85.2584 109.938L83.9288 110.354C83.7626 110.437 83.5964 110.437 83.5133 110.354C83.4302 110.27 83.3471 110.187 83.264 109.938L82.8485 108.608C82.7654 108.442 82.7654 108.442 82.8485 108.359C82.9316 108.276 83.0147 108.193 83.0978 108.193C83.5133 108.027 83.7626 108.027 83.9288 108.11C84.095 108.11 84.095 108.276 84.2612 108.525C84.2612 108.608 84.2612 108.608 84.2612 108.692C84.3443 108.775 84.3443 108.858 84.3443 108.858C84.4274 109.024 84.4274 109.024 84.5105 109.024C84.5936 109.107 84.6767 109.107 84.7598 109.107C84.8429 109.024 84.926 108.941 84.926 108.941C85.0091 108.775 85.0091 108.692 84.926 108.525C84.926 108.525 84.8429 108.359 84.7598 108.193C84.6767 107.944 84.5936 107.777 84.5105 107.611C84.5105 107.445 84.4274 107.196 84.3443 107.03C84.3443 106.78 84.2612 106.614 84.2612 106.614C84.1781 106.448 84.1781 106.282 84.095 106.199C84.0119 106.116 83.9288 106.116 83.8457 106.116C83.7626 106.116 83.6795 106.199 83.6795 106.199C83.6795 106.365 83.6795 106.365 83.6795 106.448C83.7626 106.531 83.7626 106.614 83.7626 106.697C83.7626 106.78 83.7626 106.863 83.8457 106.947C83.9288 107.113 83.8457 107.362 83.7626 107.362C83.6795 107.445 83.4302 107.528 83.0978 107.694C82.9316 107.778 82.8485 107.778 82.7654 107.694C82.6823 107.694 82.5993 107.528 82.5993 107.445L82.35 106.531C82.2669 106.365 82.2669 106.116 82.2669 106.116C82.35 105.949 82.4331 105.949 82.5993 105.866L83.8457 105.451C84.1781 105.368 84.4274 105.368 84.5105 105.451C84.5936 105.534 84.7598 105.7 84.8429 105.949C84.926 106.116 84.926 106.199 84.926 106.365C84.926 106.531 84.926 106.614 85.0091 106.697C85.0091 106.78 85.0922 106.78 85.1753 106.863C85.2584 106.947 85.3415 106.947 85.5077 106.947C85.5908 106.947 85.6739 106.863 85.6739 106.78C85.757 106.697 85.757 106.614 85.6739 106.531C85.6739 106.448 85.6739 106.365 85.5077 106.116C85.4246 105.949 85.4246 105.7 85.3415 105.534C85.3415 105.451 85.3415 105.368 85.2584 105.201C85.2584 105.035 85.1753 104.869 85.1753 104.786C85.0922 104.62 85.0091 104.62 85.0091 104.537C84.926 104.454 84.8429 104.454 84.6767 104.454C84.6767 104.454 84.5936 104.454 84.5936 104.537C84.3443 104.62 84.095 104.703 83.7626 104.786L82.0176 105.285L81.519 105.368C81.3528 105.451 81.1866 105.451 80.9373 105.534C80.688 105.617 80.5218 105.617 80.4387 105.617H80.3556C80.1894 105.617 80.1894 105.7 80.1063 105.7C80.1063 105.7 80.1063 105.7 80.1063 105.783C80.1894 105.866 80.1894 105.949 80.1894 106.032V106.116C80.2725 106.199 80.3556 106.199 80.3556 106.199H80.6049C80.688 106.199 80.7711 106.116 80.8542 106.032C80.9373 106.032 81.0204 105.949 81.1035 105.949C81.2697 105.866 81.3528 105.866 81.519 105.949C81.6021 106.032 81.6852 106.116 81.6852 106.282L82.6823 109.855C82.7654 110.021 82.7654 110.27 82.6823 110.27C82.6823 110.437 82.5161 110.437 82.35 110.52C82.2669 110.52 82.1838 110.52 82.1007 110.603C82.0176 110.603 81.9345 110.603 81.9345 110.603C81.7683 110.686 81.7683 110.769 81.7683 110.769C81.6852 110.852 81.6852 110.935 81.6852 111.018C81.7683 111.101 81.8514 111.184 81.8514 111.184C81.9345 111.268 82.0176 111.268 82.1838 111.184C82.1838 111.184 82.2669 111.184 82.35 111.101C82.6823 111.018 83.0147 110.935 83.264 110.769L85.6739 110.104C85.9231 110.021 86.1724 110.021 86.3386 110.021C86.4217 109.938 86.4217 109.938 86.5048 109.938H86.5879C86.671 109.855 86.7541 109.772 86.8372 109.772C86.9203 109.606 86.9203 109.523 86.8372 109.439C86.8372 109.772 86.7541 109.772 86.671 109.523ZM99.3849 102.542C99.3018 102.542 99.3018 102.542 99.1356 102.625C99.1356 102.709 99.0525 102.792 98.9694 102.792C98.8863 102.875 98.8033 102.958 98.8033 102.958C98.7202 103.124 98.554 103.124 98.3878 103.124C98.3047 103.124 98.2216 102.958 97.9723 102.875L95.7286 99.9663C95.5624 99.8001 95.4794 99.6339 95.3132 99.5508C95.2301 99.4678 95.2301 99.4677 95.2301 99.4677C95.147 99.3016 95.0639 99.3016 95.0639 99.3016C94.9808 99.3016 94.8977 99.3016 94.8146 99.4677C94.7315 99.4677 94.7315 99.5508 94.5653 99.6339C94.3991 99.717 94.316 99.8832 94.2329 99.9663C94.1498 100.049 94.1498 100.049 93.9836 100.133C93.9005 100.216 93.8174 100.216 93.7343 100.299C93.6512 100.382 93.6512 100.465 93.6512 100.548C93.6512 100.631 93.6512 100.714 93.7343 100.797C93.8174 100.88 93.9005 100.88 93.9005 100.88C93.9836 100.88 93.9836 100.797 94.1498 100.797C94.1498 100.714 94.2329 100.714 94.2329 100.631C94.316 100.548 94.3991 100.548 94.3991 100.548C94.5653 100.382 94.6484 100.382 94.8146 100.382C94.8977 100.382 94.9808 100.548 95.147 100.631L97.3906 103.373C97.4737 103.54 97.5568 103.706 97.5568 103.789C97.5568 103.872 97.4737 104.038 97.3906 104.121C97.3075 104.204 97.2244 104.204 97.2244 104.287C97.1413 104.371 97.1413 104.37 97.0582 104.37C96.9751 104.537 96.892 104.537 96.892 104.703C96.892 104.786 96.892 104.869 96.9751 104.952C97.0582 105.035 97.0582 105.118 97.1413 105.118C97.2244 105.118 97.3075 105.035 97.4737 104.952C97.4737 104.952 97.5568 104.869 97.5568 104.786C97.8061 104.454 98.1385 104.204 98.3878 104.038C98.554 103.872 98.6371 103.872 98.8033 103.706C98.9694 103.54 99.2187 103.456 99.3849 103.29C99.468 103.207 99.5511 103.124 99.5511 103.124C99.6342 102.958 99.7173 102.958 99.7173 102.875C99.7173 102.709 99.7173 102.709 99.6342 102.542C99.5511 102.542 99.468 102.542 99.3849 102.542ZM80.2725 106.365C80.2725 106.365 80.2725 106.282 80.2725 106.199C80.1894 106.116 80.1063 106.116 80.0232 106.116C79.9401 106.116 79.857 106.116 79.5246 106.199C79.2753 106.282 79.1092 106.282 78.8599 106.365C78.6937 106.365 78.4444 106.365 78.1951 106.365C77.9458 106.365 77.7796 106.365 77.6965 106.365C77.5303 106.365 77.4472 106.448 77.281 106.448C77.1979 106.531 77.1979 106.614 77.1979 106.697C77.1979 106.78 77.1979 106.863 77.281 106.947C77.3641 106.947 77.4472 107.03 77.5303 107.03C77.6134 107.03 77.6965 106.947 77.7796 106.947C77.8627 106.947 77.9458 106.947 77.9458 106.947C78.112 106.863 78.1951 106.947 78.2782 107.03C78.3613 107.113 78.4444 107.196 78.4444 107.445L78.5275 108.858C78.4444 108.858 78.1951 108.858 78.0289 108.941C77.8627 108.941 77.5303 108.941 77.1979 109.024C76.7824 109.107 76.5331 109.107 76.2838 109.107C76.1176 109.107 75.8684 109.19 75.7022 109.19L75.6191 107.861C75.6191 107.694 75.6191 107.528 75.7022 107.445C75.7853 107.362 75.8684 107.362 76.0345 107.362C76.0345 107.362 76.1176 107.362 76.2007 107.362C76.2838 107.362 76.3669 107.362 76.3669 107.362C76.5331 107.362 76.5331 107.362 76.6162 107.196C76.6162 107.113 76.6993 107.03 76.6993 106.947C76.6162 106.863 76.6162 106.78 76.5331 106.78C76.45 106.697 76.3669 106.697 76.2007 106.697C76.1176 106.697 75.9515 106.78 75.7022 106.78C75.3698 106.863 75.2036 106.947 74.9543 106.947C74.7881 106.947 74.5388 107.03 74.2895 106.947C74.0402 106.947 73.874 106.947 73.874 106.947C73.7909 107.03 73.6247 107.03 73.5416 107.113C73.5416 107.196 73.4585 107.279 73.4585 107.362C73.5416 107.528 73.5416 107.528 73.5416 107.611C73.6247 107.694 73.6247 107.694 73.7909 107.694C73.874 107.694 73.9571 107.694 74.0402 107.611C74.1233 107.611 74.2064 107.611 74.2895 107.611C74.4557 107.528 74.5388 107.611 74.705 107.694C74.7881 107.778 74.7881 107.861 74.7881 108.11L75.1205 111.766C75.1205 111.932 75.1205 112.099 75.0374 112.182C74.9543 112.265 74.8712 112.265 74.705 112.265C74.6219 112.265 74.5388 112.265 74.3726 112.265C74.2064 112.265 74.2064 112.265 74.2064 112.265C74.1233 112.265 74.0402 112.348 73.9571 112.431C73.874 112.514 73.874 112.597 73.874 112.597C73.874 112.763 73.9571 112.763 73.9571 112.846C74.0402 112.93 74.1233 112.93 74.2064 112.93C74.2895 112.93 74.3726 112.93 74.6219 112.846C74.8712 112.763 75.1205 112.763 75.3698 112.68C75.536 112.68 75.7022 112.68 76.0345 112.68C76.2838 112.68 76.45 112.68 76.5331 112.68C76.6993 112.68 76.7824 112.597 76.8655 112.514C77.0317 112.431 77.0317 112.431 77.0317 112.265C77.0317 112.182 76.9486 112.099 76.8655 112.015C76.7824 112.015 76.7824 111.932 76.6993 111.932C76.6162 111.932 76.5331 112.015 76.45 112.015C76.3669 112.015 76.2838 112.099 76.2838 112.099C76.2007 112.099 76.0346 112.099 75.8684 111.932C75.7853 111.849 75.7853 111.766 75.7022 111.517L75.6191 109.855C75.8684 109.855 76.0345 109.772 76.2838 109.772C76.5331 109.772 76.6993 109.689 76.9486 109.689C77.1979 109.689 77.4472 109.606 77.6965 109.606C77.9458 109.606 78.112 109.523 78.3613 109.523L78.5275 111.184C78.5275 111.351 78.5275 111.517 78.4444 111.6C78.3613 111.683 78.2782 111.683 78.0289 111.683C78.0289 111.683 77.9458 111.683 77.8627 111.683C77.7796 111.683 77.6965 111.683 77.6965 111.683C77.6134 111.683 77.5303 111.683 77.4472 111.766C77.3641 111.849 77.3641 111.932 77.3641 112.015C77.3641 112.182 77.4472 112.182 77.4472 112.265C77.6134 112.348 77.6965 112.348 77.8627 112.348C77.9458 112.348 78.112 112.265 78.3613 112.265C78.6106 112.265 78.8599 112.182 79.0261 112.182C79.2753 112.182 79.5246 112.099 79.7739 112.182C80.0232 112.182 80.1894 112.182 80.1894 112.099H80.2725C80.3556 112.099 80.4387 112.099 80.4387 112.015C80.5218 111.932 80.5218 111.849 80.5218 111.766C80.5218 111.6 80.5218 111.6 80.4387 111.517C80.3556 111.434 80.2725 111.434 80.2725 111.434C80.1894 111.434 80.1894 111.434 80.1894 111.434C80.1063 111.434 80.0232 111.434 79.9401 111.517C79.7739 111.517 79.7739 111.6 79.6908 111.6C79.5246 111.6 79.3584 111.517 79.2754 111.434C79.1923 111.351 79.1923 111.268 79.1923 111.101L78.8599 107.362C78.7768 107.196 78.8599 107.03 78.943 107.03C79.0261 106.863 79.1092 106.863 79.3584 106.863C79.4415 106.863 79.5246 106.863 79.6077 106.863C79.6908 106.863 79.7739 106.863 79.7739 106.863C79.857 106.863 79.9401 106.78 80.0232 106.697V106.614C80.2725 106.531 80.2725 106.448 80.2725 106.365Z" fill="#C6C6C5"/>
<path fill-rule="evenodd" clip-rule="evenodd" d="M110.437 69.2207L111.766 72.7939L115.589 72.9601L112.514 75.2868L113.677 78.9431L110.437 76.7826L107.362 78.9431L108.359 75.2868L105.368 72.9601L109.19 72.7939L110.437 69.2207Z" fill="#C6C6C5"/>
<path fill-rule="evenodd" clip-rule="evenodd" d="M37.6442 69.2207L38.8907 72.7939L42.7132 72.9601L39.7217 75.2868L40.8019 78.9431L37.6442 76.7826L34.4865 78.9431L35.5668 75.2868L32.4922 72.9601L36.3147 72.7939L37.6442 69.2207Z" fill="#C6C6C5"/>
<path fill-rule="evenodd" clip-rule="evenodd" d="M73.2919 75.12C73.2919 75.12 69.8849 73.5411 70.882 67.8905C71.8792 62.2399 72.3778 56.4231 73.6243 56.34C73.6243 56.34 74.7876 55.6752 75.0369 56.8386L75.12 91.324C75.12 91.324 73.2919 92.7367 71.2975 91.0747C71.2975 91.0747 70.6327 90.5761 70.9651 89.4959C70.9651 88.6649 73.2919 75.12 73.2919 75.12Z" fill="#C6C6C5"/>
<path fill-rule="evenodd" clip-rule="evenodd" d="M59.4978 56.0908C59.4978 56.0908 58.4176 65.0653 58.5007 65.3977C58.6668 65.8132 58.4176 67.0597 60.2457 67.6414C60.2457 67.6414 61.4091 68.223 61.4091 69.054C61.4091 69.054 61.4091 78.0285 60.495 85.1749C60.495 85.1749 59.8302 87.1693 59.4147 88.4157C58.9992 89.6622 58.7499 91.8227 62.3231 91.7396C65.8963 91.6565 65.3146 89.3298 64.733 87.7509C64.0682 86.089 63.7358 83.2637 63.5696 81.1862C63.3203 79.0257 62.8217 69.5526 63.071 68.9709C63.071 68.9709 62.9879 68.0569 64.4006 67.5583C65.8132 67.0597 65.9794 66.0625 65.9794 65.0653C65.9794 64.1513 64.9823 56.0908 64.9823 56.0908H64.4837H64.4006V64.4006C64.4006 64.5668 64.2344 64.733 63.9851 64.733H63.6527C63.4034 64.733 63.2372 64.5668 63.2372 64.4006V56.0908H62.7386V64.4006C62.7386 64.5668 62.5724 64.733 62.3231 64.733H61.9907C61.8245 64.733 61.5753 64.5668 61.5753 64.4006V56.0908H60.9936V64.4006C60.9936 64.5668 60.9105 64.733 60.5781 64.733H60.2457C60.0795 64.733 59.8302 64.5668 59.8302 64.4006V56.0908H59.4978Z" fill="#C6C6C5"/>
<path fill-rule="evenodd" clip-rule="evenodd" d="M81.6833 67.1428C76.5312 65.1484 79.5227 55.8415 84.841 56.1739C90.0761 55.7584 92.569 64.5667 87.9987 67.0597C87.0015 67.7244 85.4227 68.0568 85.5058 69.2202C85.3396 69.8019 85.8382 79.1919 86.0043 81.3524C86.2536 83.4299 86.6691 86.2552 87.1677 87.834C87.7494 89.496 88.3311 91.7396 84.7579 91.8227C81.1016 91.9058 81.434 89.7453 81.8495 88.4988C82.265 87.2523 82.8466 85.258 82.8466 85.258C83.7607 78.1947 83.7607 69.2202 83.7607 69.2202C83.8438 68.3061 83.0128 67.6413 81.6833 67.1428Z" fill="#C6C6C5"/>
<path d="M110.687 57.2545L109.856 55.177L109.607 55.2601V55.3432C109.773 55.5925 109.773 55.7587 109.69 55.9249C109.607 56.008 109.524 56.1742 109.274 56.3404L106.698 57.3376L105.452 57.8362C105.203 57.9192 105.036 57.9192 104.87 57.9192C104.704 57.8361 104.538 57.7531 104.538 57.5038L104.455 57.4207L104.288 57.5038L105.119 59.5812L106.2 62.2403L106.698 62.1572L107.114 62.0741L108.028 61.9079L107.945 61.6586C107.363 61.6586 106.948 61.5755 106.615 61.3262C106.532 61.3262 106.449 61.2431 106.449 61.16C106.117 60.9939 105.867 60.4953 105.618 59.9136C105.535 59.6643 105.452 59.4981 105.535 59.415C105.618 59.2488 105.701 59.1657 105.95 59.0826L106.615 58.7502L107.779 58.3347V58.4178C107.945 58.8333 107.945 59.0826 107.862 59.3319C107.779 59.4981 107.446 59.8305 106.948 60.0798L107.031 60.3291L108.443 59.7474L109.856 59.1657L109.773 58.9164C109.191 59.0826 108.859 59.0826 108.61 58.9164C108.36 58.8333 108.194 58.584 108.028 58.2516L107.945 58.0854L109.69 57.4207C109.856 57.2545 110.022 57.2545 110.105 57.3376C110.188 57.3376 110.271 57.5038 110.355 57.67V57.7531C110.604 58.4178 110.77 58.9164 110.687 59.2488C110.604 59.5812 110.272 59.9136 109.773 60.246L109.856 60.4122L110.687 60.0798L111.601 59.6643L110.687 57.2545ZM103.291 54.0968L104.953 53.0165C105.203 53.432 105.286 53.6813 105.286 53.9306C105.203 54.1799 104.953 54.5123 104.538 54.8446L104.621 55.0108L105.867 54.1799L106.615 53.6813L107.114 53.3489L106.948 53.0996C106.865 53.1827 106.698 53.1827 106.532 53.2658C106.2 53.3489 105.95 53.432 105.867 53.3489C105.618 53.2658 105.369 53.0996 105.119 52.6841L106.532 51.77L106.698 51.6038C106.864 51.5207 107.031 51.5207 107.114 51.5207C107.197 51.5207 107.363 51.6038 107.446 51.8531C107.862 52.5179 108.111 53.0165 108.111 53.2658C108.111 53.6813 107.862 53.9306 107.363 54.3461L107.529 54.5123L108.277 54.0137L109.025 53.5151L107.529 51.1884L106.615 49.7757L106.283 49.2771L106.117 49.4433V49.5264C106.283 49.6926 106.366 49.9419 106.283 50.1081C106.283 50.2743 106.2 50.4405 105.867 50.5236L102.46 52.7672H102.377C102.211 52.8503 102.045 52.9334 101.879 52.8503C101.712 52.8503 101.546 52.7672 101.463 52.5179L101.38 52.4348L101.214 52.601L102.045 54.0137L102.377 54.5123L102.876 55.3432L103.125 55.2601L103.042 55.0939C102.876 54.8446 102.793 54.6784 102.793 54.4292C103.042 54.3461 103.125 54.1799 103.291 54.0968ZM102.543 48.4461L103.707 45.9532L103.624 45.8701L103.541 45.787L102.46 46.1194L100.715 46.7011L98.3055 47.5321L98.1393 47.6152C97.89 47.6983 97.7238 47.6983 97.4745 47.6983C97.3914 47.6983 97.2252 47.6152 97.1421 47.5321L96.9759 47.6983L97.6407 48.363L98.2224 49.0278L98.3886 48.8616L98.3055 48.7785C98.2224 48.5292 98.0562 48.363 98.1393 48.1968C98.1393 48.1138 98.3055 47.9476 98.3886 47.8645C98.4717 47.8645 98.4717 47.8645 98.5548 47.7814L99.3857 47.5321L100.549 49.0278L100.134 49.8588C100.051 50.1081 99.8843 50.1912 99.8012 50.1912C99.635 50.1912 99.4688 50.1081 99.3026 49.8588L99.2195 49.7757L99.0533 49.9419L99.9674 51.0222L100.715 51.8531L100.965 52.1855L101.131 52.0193H101.048C100.965 51.8531 100.881 51.77 100.881 51.6038C100.881 51.4376 101.048 51.2715 101.131 50.9391L102.543 48.4461ZM100.715 48.6954L99.635 47.449L100.715 47.1166L101.712 46.7842L100.715 48.6954ZM96.9759 45.787C96.5604 45.8701 96.0618 45.8701 95.7294 45.8701C95.314 45.787 94.9816 45.7039 94.6492 45.4546C94.2337 45.1222 93.9844 44.7068 93.9844 44.1251C93.9844 43.5434 94.3168 42.9617 94.7323 42.2138C95.2309 41.466 95.8125 41.0505 96.3111 40.8012C96.8097 40.635 97.3083 40.7181 97.7238 40.9674C98.0562 41.1336 98.2224 41.3829 98.3886 41.7983C98.4717 41.8814 98.4717 41.9645 98.5548 42.0476C98.6379 42.4631 98.6379 42.9617 98.3886 43.4603V43.5434L98.5548 43.7096L99.8012 41.8814L99.635 41.7983L99.5519 41.8814C99.3857 41.9645 99.3026 41.9645 99.1364 41.9645C98.9702 41.9645 98.9702 41.8814 98.8871 41.7152C98.721 41.466 98.5548 41.2167 98.3055 41.0505C98.2224 40.8843 97.9731 40.7181 97.8069 40.5519C97.059 40.0533 96.3111 39.8871 95.3971 40.0533C94.5661 40.1364 93.9013 40.7181 93.4027 41.3829C92.9041 42.1307 92.7379 42.9617 92.821 43.7927C92.9872 44.6237 93.4027 45.2884 94.1506 45.787C94.5661 46.1194 94.9816 46.2856 95.4802 46.3687C95.8956 46.4518 96.3942 46.3687 96.9759 46.2025V45.787ZM69.5537 33.0731L69.6368 33.3224L69.7199 33.2393C69.9692 33.2393 70.2185 33.3224 70.3016 33.4055C70.4678 33.5717 70.4678 33.821 70.5509 34.0703L70.8833 36.7294L67.227 33.3224L66.3129 33.4055L65.482 33.5717H65.3158V33.821H65.3989C65.3989 33.821 65.3989 33.821 65.482 33.821C65.5651 33.821 65.6482 33.821 65.8144 33.9041C65.9806 33.9872 66.1468 34.0703 66.3129 34.3196L66.8115 38.3082C66.8946 38.6406 66.8115 38.8899 66.7284 38.973C66.5622 39.0561 66.4791 39.2223 66.1467 39.3054H66.0637L66.1467 39.5547L67.0608 39.3885L68.058 39.3054V39.0561H67.8918C67.6425 39.1392 67.4763 39.0561 67.3101 38.973C67.227 38.8899 67.1439 38.5575 67.0608 38.3082L66.6453 34.8182L71.1326 39.1392H71.2157H71.465L70.8002 34.1534C70.8002 33.821 70.8002 33.5717 70.9664 33.4886C71.0495 33.3224 71.2157 33.2393 71.465 33.1562H71.5481V32.9069L70.5509 32.99L69.5537 33.0731ZM72.7945 32.8238V33.0731H72.8776C73.1269 33.0731 73.2931 33.1562 73.4593 33.1562C73.5424 33.3224 73.6255 33.4886 73.6255 33.7379L73.5424 37.8928C73.5424 38.2252 73.4593 38.3913 73.3762 38.4744C73.21 38.6406 73.0438 38.6406 72.7945 38.6406H72.7114V38.8899H74.2072L75.7861 38.973V38.7237H75.6199C75.3706 38.6406 75.2044 38.6406 75.0382 38.5575C74.9551 38.4744 74.9551 38.2252 74.9551 37.9759L75.0382 33.821C75.0382 33.5717 75.1213 33.4055 75.2044 33.2393C75.2875 33.0731 75.5368 33.0731 75.7861 33.0731H75.8692V32.7407H74.3734H72.7945V32.8238ZM81.6029 33.5717V33.821H81.686C81.9353 33.9041 82.1015 33.9872 82.1846 34.1534C82.3508 34.3196 82.3508 34.5689 82.2677 34.9013L81.7691 37.5604L79.4423 33.1562L78.5283 33.0731L77.6142 32.9069L77.5311 33.1562C77.6142 33.1562 77.7804 33.2393 77.8635 33.4055C78.0297 33.4886 78.1128 33.6548 78.279 33.9872L77.6142 37.8928C77.5311 38.2252 77.5311 38.4744 77.3649 38.5575C77.2818 38.7237 77.0325 38.7237 76.7001 38.7237H76.4508V38.8068L77.448 38.973L78.4452 39.0561V38.8068H78.3621C78.1128 38.7237 77.9466 38.6406 77.8635 38.4744C77.6973 38.3082 77.6973 38.059 77.7804 37.7266L78.4452 34.3196L81.5198 39.7209L81.686 39.804H81.7691L82.6831 34.9013C82.7662 34.5689 82.7662 34.3196 82.9324 34.2365C83.0155 34.1534 83.2648 34.1534 83.5141 34.1534H83.5972L83.6803 33.9041L82.6831 33.7379L81.6029 33.5717ZM86.838 35.8984C87.2535 35.4829 87.7521 35.3998 88.1676 35.566C88.5831 35.7322 88.9986 36.0646 89.2478 36.4801C89.4971 36.8956 89.5802 37.3942 89.5802 38.059L89.7464 38.1421L90.4943 36.1477L90.3281 36.0646L90.1619 36.2308C90.0788 36.3139 89.9957 36.397 89.8295 36.397C89.7464 36.397 89.6633 36.3139 89.5802 36.2308C89.1647 35.8153 88.7493 35.566 88.0845 35.3167C87.3366 34.9844 86.5056 34.9844 85.8408 35.3998C85.093 35.8153 84.5113 36.3139 84.1789 37.228C83.7634 38.1421 83.7634 38.973 84.1789 39.7209C84.5944 40.3857 85.1761 40.9674 86.1732 41.2998C86.9211 41.6321 87.669 41.7152 88.3338 41.7152L88.8324 40.4688C88.9155 40.2195 89.0816 40.0533 89.1647 40.0533C89.3309 39.9702 89.4971 39.9702 89.7464 40.1364H89.8295L89.9957 39.9702L88.5 39.3885L87.0042 38.8068L86.9211 39.0561H87.0042C87.3366 39.1392 87.5028 39.3054 87.5859 39.4716C87.669 39.6378 87.669 39.804 87.5859 40.0533L87.3366 40.635C87.1704 40.9674 87.0873 41.1336 86.9211 41.2167C86.838 41.2998 86.5887 41.2998 86.3394 41.2167L86.1732 41.1336C85.6746 40.9674 85.3423 40.5519 85.2592 40.0533C85.1761 39.4716 85.3423 38.8068 85.5916 37.8928C86.007 36.8956 86.3394 36.2308 86.838 35.8984ZM65.3989 39.7209C65.1496 39.804 64.9834 39.8871 64.8172 39.7209C64.651 39.6378 64.5679 39.5547 64.4017 39.3054L63.1552 35.3998C63.0721 35.1505 63.0721 34.9844 63.1552 34.8182C63.2383 34.652 63.3214 34.5689 63.5707 34.4027H63.6538L63.5707 34.1534L62.1581 34.652L60.7454 35.0675H60.6623L60.7454 35.3167H60.8285C61.0778 35.2336 61.244 35.2336 61.4933 35.2336C61.5764 35.3167 61.7426 35.4829 61.8257 35.7322L63.0721 39.7209C63.1552 39.9702 63.1552 40.1364 63.1552 40.3026C63.0721 40.4688 62.9059 40.5519 62.6567 40.635L62.5736 40.7181L62.6567 40.9674L64.0693 40.4688L65.482 40.0533H65.6482L65.3989 39.7209ZM60.5792 38.3082C60.1637 37.3942 59.5821 36.8956 58.8342 36.6463C58.5018 36.5632 58.2525 36.5632 58.0032 36.5632C57.5046 36.5632 57.006 36.7294 56.5074 36.9787L55.261 37.6435L53.9314 38.3082V38.3913L54.0145 38.5575L54.0976 38.4744C54.3469 38.3913 54.5131 38.3913 54.6793 38.3913C54.7624 38.3913 54.9286 38.5575 55.0948 38.8068L57.006 42.4631C57.1722 42.7124 57.1722 42.8786 57.1722 43.0448C57.0891 43.211 57.006 43.3772 56.7567 43.4603H56.5074L56.5905 43.7096L58.0032 43.0448L59.0004 42.5462C59.9144 42.0476 60.5792 41.3829 60.8285 40.635C60.9116 40.5519 60.9116 40.4688 60.9116 40.4688C61.0778 39.9702 61.0778 39.5547 60.9116 38.973C60.7454 38.8068 60.7454 38.5575 60.5792 38.3082ZM59.7482 40.9674C59.6651 41.466 59.4159 41.8814 58.9173 42.1307C58.7511 42.2138 58.5849 42.2969 58.5018 42.2138C58.4187 42.2138 58.3356 42.1307 58.2525 41.8814L58.0032 41.3829L56.2581 37.9759C56.1751 37.8097 56.092 37.6435 56.1751 37.5604C56.1751 37.4773 56.2582 37.3942 56.5074 37.228C57.006 36.9787 57.5046 36.9787 57.9201 37.3111H58.0032C58.4187 37.5604 58.9173 38.059 59.2497 38.8899C59.6651 39.804 59.8313 40.4688 59.7482 40.9674ZM53.5159 44.7068L53.1004 43.8758L52.8512 44.042C53.0173 44.7068 53.0173 45.2053 52.8512 45.6208C52.7681 46.0363 52.4357 46.3687 51.9371 46.7842C51.7709 46.9504 51.6047 47.0335 51.5216 47.0335C51.3554 47.0335 51.1892 46.8673 51.1061 46.7011L49.8596 45.2053L49.9427 45.1222C50.2751 44.8729 50.6075 44.7068 50.8568 44.7068C51.1061 44.7068 51.5216 44.8729 51.854 45.2884L52.0202 45.1222L50.9399 44.042L49.9427 42.8786L49.7766 43.0448C50.1089 43.4603 50.192 43.8758 50.192 44.1251C50.192 44.3744 50.0258 44.6237 49.6935 44.8729L49.5273 45.0391L48.3639 43.5434C48.1977 43.4603 48.1977 43.2941 48.1977 43.211C48.1977 43.1279 48.2808 43.0448 48.447 42.8786V42.7955C49.0287 42.38 49.4442 42.1307 49.8596 42.0476C50.192 42.0476 50.6075 42.2138 51.023 42.6293L51.1892 42.4631L50.5244 41.7983L49.9427 41.1336L47.7822 42.9617L47.616 43.0448L46.0372 44.4575L46.2034 44.6237L46.2865 44.5406C46.4527 44.3744 46.7019 44.2913 46.785 44.2913C46.9512 44.2913 47.1174 44.3744 47.2836 44.6237L47.6991 45.1222L49.9427 47.7814C50.1089 47.9476 50.192 48.1968 50.192 48.2799C50.192 48.4461 50.0258 48.6123 49.8596 48.7785L49.7766 48.8616L49.9427 49.0278L51.6878 47.6152L53.8483 45.7039H53.9314L53.8483 45.6208L53.5159 44.7068ZM45.3724 46.8673C45.1231 46.7011 44.9569 46.4518 44.9569 46.2856C44.8738 46.1194 44.9569 45.8701 45.1231 45.7039L45.2062 45.6208L45.04 45.5377L44.4583 46.2856L43.7935 47.0335L43.9597 47.1997L44.0428 47.1166C44.209 46.9504 44.4583 46.7842 44.6245 46.7842C44.7076 46.7842 45.04 46.8673 45.2893 47.1166L47.3667 48.7785H43.4611H42.3809L41.7992 49.5264L41.1344 50.2743L41.3006 50.4405L41.3837 50.3574C41.4668 50.2743 41.5499 50.2743 41.7161 50.2743C41.8823 50.1912 42.1316 50.1912 42.3809 50.1912L43.4611 51.1053L45.5386 52.7672C45.7879 52.9334 45.871 53.1827 45.9541 53.3489C45.9541 53.5151 45.871 53.7644 45.7879 53.9306L45.7048 54.0137L45.871 54.1799L46.5357 53.3489L47.1174 52.601L46.9512 52.4348L46.8681 52.5179C46.7019 52.6841 46.5357 52.7672 46.3696 52.7672C46.2034 52.7672 45.9541 52.6841 45.7048 52.4348L43.4611 50.6067L42.9626 50.1912H43.4611L47.7822 50.1081H49.278L49.3611 50.025L49.4442 49.9419L47.7822 48.6123L45.3724 46.8673ZM45.3724 54.6785C45.2893 54.9277 45.1231 55.0939 44.9569 55.0939C44.8738 55.177 44.6245 55.0939 44.3752 55.0108L43.2949 54.3461L40.9682 53.0165L40.802 52.9334C40.6358 52.7672 40.3865 52.601 40.3865 52.5179C40.3034 52.4348 40.3865 52.1855 40.5527 51.9362L40.6358 51.8531L40.3865 51.6869L39.6387 53.0165L38.8908 54.3461L39.057 54.5123L39.1401 54.4292C39.2232 54.263 39.3894 54.0137 39.5556 54.0137C39.6387 53.9306 39.888 54.0137 40.1372 54.1799L41.0513 54.6785L43.378 56.0911L43.7104 56.2573C43.8766 56.3404 44.1259 56.5066 44.1259 56.6728C44.209 56.839 44.1259 57.0052 43.9597 57.2545L43.8766 57.3376L44.1259 57.5038L44.8738 56.1742L45.6217 54.7615L45.3724 54.6785ZM42.8795 59.6643C42.7964 59.9967 42.6302 60.1629 42.5471 60.246C42.3809 60.3291 42.2147 60.3291 41.9654 60.1629L41.0513 59.8305L40.1372 59.415H40.2203C40.3865 58.9995 40.6358 58.7502 40.802 58.6671C40.9682 58.584 40.9682 58.584 41.1344 58.584C41.3837 58.584 41.633 58.584 42.0485 58.7502L42.1316 58.5009L41.0513 58.1685L40.6358 58.0023L39.2232 57.4207L39.057 57.5869C39.4725 57.8362 39.8049 58.1685 39.888 58.3347C40.0541 58.584 39.9711 58.9164 39.8049 59.2488L38.0598 58.584C37.8936 58.5009 37.7274 58.4178 37.7274 58.3347C37.6443 58.1685 37.6443 58.0854 37.8105 57.9192C38.0598 57.2545 38.3922 56.7559 38.6415 56.5897C38.9739 56.4235 39.3894 56.4235 39.971 56.5897L40.0541 56.3404L39.2232 56.008L38.3922 55.5925L37.3119 58.2516L36.481 60.3291L36.6471 60.4953L36.7302 60.3291C36.8133 60.0798 36.8964 59.9136 37.0626 59.9136C37.2288 59.8305 37.395 59.8305 37.6443 59.9967L41.0513 61.4093L41.4668 61.5755C41.7161 61.6586 41.7992 61.7417 41.8823 61.9079C41.9654 62.0741 41.9654 62.2403 41.7992 62.4896V62.5727L42.0485 62.6558L42.6302 61.2431L43.2949 59.8305L42.8795 59.6643Z" fill="#C6C6C5"/>
</svg>
