<svg width="165" height="147" viewBox="0 0 165 147" fill="none" xmlns="http://www.w3.org/2000/svg">
<path d="M164.741 73.4126L163.605 73.3252H164.479C159.672 70.6159 158.536 67.3823 158.536 67.3823C156.002 53.2241 142.718 55.2342 142.718 55.2342C147.262 41.8627 133.716 42.1249 133.716 42.1249C134.59 34.6962 131.356 30.8508 131.356 30.8508C124.714 19.8389 111.168 25.17 111.168 25.17C107.497 12.3228 98.0583 10.6623 98.0583 10.6623C86.085 8.91439 82.6766 0.786564 82.327 0.087396V0V0.087396C82.0648 0.786564 78.569 8.91439 66.6831 10.7497C66.6831 10.7497 57.2444 12.4102 53.5737 25.2574C53.5737 25.2574 40.0273 19.9263 33.3853 30.9382C33.3853 30.9382 30.0642 34.6962 31.0256 42.2122C31.0256 42.2122 17.5666 41.9501 22.0238 55.3216C22.0238 55.3216 8.7396 53.3115 6.20511 67.4697C6.20511 67.4697 5.06897 70.7033 0.262188 73.4126L0 73.5L0.349584 73.5874C4.98157 76.2967 6.11772 79.5303 6.11772 79.5303C8.6522 93.6885 21.9364 91.6784 21.9364 91.6784C17.3918 105.05 30.9382 104.788 30.9382 104.788C29.9768 112.216 33.2979 116.062 33.2979 116.062C39.9399 127.074 53.4863 121.743 53.4863 121.743C57.157 134.59 66.5957 136.25 66.5957 136.25C78.4816 138.086 81.9774 146.213 82.2396 146.913V147V146.825C82.5018 146.126 85.9976 137.998 97.8835 136.163C97.8835 136.163 107.322 134.502 110.993 121.655C110.993 121.655 124.539 126.986 131.181 115.974C131.181 115.974 134.502 112.216 133.541 104.7C133.541 104.7 147 104.963 142.543 91.591C142.543 91.591 155.827 93.6011 158.361 79.4429C158.361 79.4429 159.498 76.2093 164.304 73.5H163.605L164.741 73.4126Z" fill="#B8B8B6" fill-opacity="0.1"/>
<path fill-rule="evenodd" clip-rule="evenodd" d="M66.7693 70.9651C66.7693 70.7903 66.8567 70.7029 67.0315 70.7029H67.1189C67.3811 70.7903 67.6432 70.7903 67.9054 70.7903C69.4786 70.7903 71.2265 70.1786 73.324 68.7802C74.5475 67.9937 75.5089 67.2071 76.3828 66.4205C77.2568 65.634 78.6551 63.9735 80.6652 61.439C83.1123 58.4675 84.9476 56.5448 86.346 55.496C86.783 55.2339 87.0451 54.9717 87.1325 54.9717V55.0591C87.1325 55.0591 87.0452 55.2339 86.8704 55.3213C85.9964 56.1952 85.1224 57.8557 84.2485 60.2154C83.3745 62.4003 82.7627 63.9735 82.3258 65.0222C81.8888 66.071 81.3644 66.9449 80.84 67.5567C80.6652 67.7315 80.6652 67.8189 80.6652 67.8189L80.84 67.7315L80.9274 67.5567L81.1896 67.2945C81.6266 66.7701 82.588 65.4592 84.2485 63.3617C86.783 60.0406 88.9679 57.5935 90.8032 56.1078C91.8519 55.3213 92.4637 54.8843 92.5511 54.8843L92.6385 54.9717L92.5511 55.0591C91.2402 56.2826 90.0166 58.0305 88.7931 60.3902C87.6569 62.7499 87.0451 64.5852 87.0451 65.9836C87.0451 67.0323 87.2199 67.7315 87.7443 68.3433C88.1813 68.8676 88.7931 69.2172 89.667 69.2172C91.3275 69.2172 93.0755 68.2559 94.736 66.3331C96.3965 64.4104 97.2705 62.5751 97.2705 60.565C97.2705 59.7785 97.0957 59.0793 96.6587 58.6423C96.2217 58.1179 95.6973 57.9431 94.9982 57.9431C93.5124 57.8557 92.1141 58.9045 90.8032 60.9146C89.9292 62.2255 89.4922 63.3617 89.4922 64.4104C89.4922 64.9348 89.667 65.2844 89.9292 65.634C90.1914 65.8962 90.4536 66.071 90.8906 66.071C91.1528 66.071 91.4149 65.9836 91.5897 65.8962C91.7645 65.8088 91.9393 65.7214 91.9393 65.634L91.8519 65.5466L91.6771 65.634C91.5023 65.634 91.4149 65.7214 91.4149 65.7214C91.1528 65.7214 90.978 65.5466 90.978 65.197C90.978 65.0222 91.0654 64.76 91.2402 64.6726C91.4149 64.5852 91.5897 64.4978 91.7645 64.4978C92.2015 64.4978 92.3763 64.6726 92.3763 65.197C92.3763 65.634 92.2015 65.8962 91.8519 66.1584C91.5897 66.4205 91.2402 66.5953 90.8032 66.5953C90.3662 66.5953 89.9292 66.4205 89.7544 66.071C89.4922 65.7214 89.4048 65.2844 89.4048 64.76C89.4048 63.5365 89.9292 62.1381 91.1528 60.565C92.3763 58.9045 93.6872 58.0305 95.0856 58.0305C95.9595 58.1179 96.6587 58.3801 97.1831 58.9919C97.7075 59.6037 97.8822 60.4776 97.8822 61.3516C97.8822 62.2255 97.6201 63.1869 97.1831 64.2356C96.6587 65.197 96.0469 66.071 95.173 66.9449C93.2503 68.7802 91.5023 69.6542 89.7544 69.6542C88.7057 69.6542 87.9191 69.2172 87.2199 68.4307C86.5208 67.6441 86.1712 66.5953 86.1712 65.4592C86.1712 64.2356 86.6956 62.6625 87.7443 60.9146C88.7931 59.0793 90.104 57.5936 91.5023 56.2826C91.6771 56.1952 91.7645 56.1078 91.7645 56.1078L91.6771 56.0204C91.5023 56.0204 90.8032 56.6322 89.667 57.7683C88.1813 59.3415 85.9964 61.876 83.3745 65.4592C82.588 66.4205 81.8888 67.3819 81.1022 68.0811C80.3157 68.8676 79.8787 69.3046 79.7039 69.3046L79.6165 69.2172L79.7039 69.1298C80.1409 68.6054 80.4905 67.9937 80.7526 67.4693C81.0148 66.7701 81.4518 65.634 82.0636 63.7987C82.6754 61.7886 83.2871 60.3028 83.8115 59.3415C84.3359 58.2053 85.1224 57.3314 85.909 56.4574L85.9964 56.37L85.909 56.2826C85.8216 56.2826 85.3846 56.7196 84.5107 57.5936C83.8989 58.2053 82.3258 60.128 79.6165 63.3617C78.3056 65.0222 76.9946 66.3331 75.9459 67.2071C74.8097 68.1685 73.5862 69.0424 72.2752 69.829C70.4399 70.7903 68.8668 71.4021 67.4685 71.4021C67.0315 71.2273 66.7693 71.1399 66.7693 70.9651Z" fill="#C6C6C5"/>
<path fill-rule="evenodd" clip-rule="evenodd" d="M97.1838 71.4031C95.8729 71.4031 94.2997 70.8787 92.377 69.83C91.0661 69.1308 89.8426 68.2568 88.7938 67.2081C87.7451 66.2467 86.4341 64.9358 85.1232 63.1879C82.5013 59.9542 80.8408 58.0315 80.3164 57.4197C79.4424 56.5458 79.0055 56.1088 78.9181 56.1088L78.8307 56.1962L78.9181 56.2836C79.792 57.1576 80.4038 58.1189 81.0156 59.1677C81.5399 60.2164 82.0643 61.7021 82.6761 63.7123C83.2879 65.5476 83.7248 66.7711 83.987 67.3829C84.2492 67.9073 84.5988 68.519 84.9484 69.0434L85.0358 69.2182L84.9484 69.3056C84.7736 69.3056 84.3366 68.8686 83.6374 68.0821C82.8509 67.2955 82.1517 66.3341 81.3651 65.3728C78.7433 61.8769 76.6458 59.2551 75.0726 57.6819C74.0239 56.5458 73.4121 55.934 73.1499 55.934C73.1499 55.934 73.2373 56.0214 73.3247 56.1088C74.8105 57.4197 76.034 58.9929 77.0827 60.8282C78.0441 62.6635 78.5685 64.1492 78.5685 65.4602C78.5685 66.5963 78.2189 67.6451 77.5197 68.4316C76.8206 69.2182 75.9466 69.6552 74.9852 69.5678C73.2373 69.5678 71.4894 68.6938 69.5667 66.7711C68.6927 65.8972 68.081 65.1106 67.5566 64.0618C67.0322 63.1005 66.8574 62.1391 66.8574 61.2652C66.8574 60.3038 67.1196 59.5172 67.7314 58.8181C68.2558 58.2063 68.9549 57.9441 69.7415 57.9441C71.1398 57.9441 72.5382 58.8181 73.7617 60.566C74.8979 62.1391 75.4222 63.5375 75.4222 64.761C75.4222 65.2854 75.2474 65.7224 75.0726 66.0719C74.8105 66.4215 74.3735 66.5963 73.9365 66.5963C73.5869 66.5963 73.1499 66.4215 72.8877 66.1593C72.6256 65.8971 72.4508 65.635 72.4508 65.2854C72.4508 64.8484 72.7129 64.6736 73.0625 64.6736C73.2373 64.6736 73.4121 64.761 73.5869 64.9358C73.7617 65.1106 73.8491 65.198 73.8491 65.4602C73.7617 65.8098 73.6743 65.9845 73.3247 65.9845C73.3247 65.9845 73.1499 65.8972 73.0625 65.8972V65.5476L72.9751 65.635C72.9751 65.7224 73.1499 65.8098 73.4121 65.9845C73.5869 66.1593 73.8491 66.1593 74.0239 66.1593C74.4609 66.1593 74.7231 65.9845 74.9852 65.8098C75.2474 65.5476 75.4222 65.1106 75.4222 64.5862C75.4222 63.5375 74.9852 62.3139 74.1113 61.0904C72.8003 59.0803 71.402 58.0315 69.9163 58.0315C69.2171 58.0315 68.6053 58.2937 68.1684 58.7307C67.7314 59.2551 67.5566 59.8668 67.5566 60.6534C67.4692 62.5761 68.3432 64.4988 70.0037 66.4215C71.5768 68.3442 73.2373 69.3056 74.9852 69.3056C75.7718 69.3056 76.471 69.0434 76.908 68.519C77.3449 67.9073 77.6071 67.2081 77.6071 66.1593C77.6071 64.761 77.0828 62.9257 75.8592 60.566C74.7231 58.2063 73.4995 56.4584 72.276 55.2348L72.1012 55.0601L72.1886 54.9727C72.3634 54.9727 72.8877 55.4096 73.9365 56.1962C75.7718 57.6819 77.8693 60.129 80.4038 63.5375C81.9769 65.635 83.0257 66.9459 83.3753 67.4703L83.6374 67.8199L83.7248 67.9073L83.8996 67.9947C83.8996 67.9073 83.8122 67.8199 83.7248 67.7325C83.2005 67.0333 82.7635 66.2467 82.3265 65.198C81.8021 64.2366 81.2778 62.5761 80.4912 60.3912C79.6172 57.9441 78.8307 56.2836 77.9567 55.4096C77.7819 55.2348 77.6945 55.1474 77.6945 55.1474V55.0601C77.7819 55.0601 78.0441 55.2348 78.4811 55.5844C79.8794 56.6332 81.7147 58.6433 84.1618 61.5274C86.1719 63.9744 87.5703 65.7224 88.3568 66.5963C89.2308 67.3829 90.1921 68.1694 91.4157 68.956C93.5132 70.3543 95.3485 70.9661 96.8342 70.9661C97.0964 70.9661 97.3586 70.9661 97.6208 70.9661H97.7956C97.9704 70.9661 98.0578 71.0535 98.0578 71.2283C97.883 71.3157 97.6208 71.4031 97.1838 71.4031Z" fill="#C6C6C5"/>
<path d="M123.577 51.5634L117.459 55.2341L119.993 49.029L116.061 46.2323L115.187 47.1936C115.624 47.5432 115.798 47.8054 115.886 48.0676C115.973 48.2424 115.798 48.5046 115.624 48.7668L111.866 53.1366C111.516 53.4861 111.079 53.6609 110.555 53.3988C110.467 53.3114 110.292 53.3114 110.03 53.1366L109.244 54.0979L110.555 55.0593L112.74 56.545L113.526 55.5837C113.089 55.3215 112.827 54.9719 112.74 54.7097C112.652 54.4475 112.827 54.2727 113.002 53.9231L116.76 49.6407L113.614 57.2442L115.099 58.2929L122.441 53.8357L118.77 58.0307C118.508 58.2929 118.245 58.4677 117.983 58.4677C117.721 58.4677 117.284 58.2929 116.847 57.9433L115.973 58.9047L120.693 62.1383L121.479 61.177C121.042 60.9148 120.78 60.6526 120.78 60.3904C120.693 60.1282 120.78 59.8661 121.042 59.6039L124.8 55.2341C125.062 54.8845 125.325 54.7971 125.587 54.7971C125.849 54.7971 126.199 54.9719 126.636 55.2341L127.509 54.2727L123.577 51.5634ZM110.555 45.1835C110.817 45.0961 111.079 45.1835 111.429 45.2709L111.953 44.1348L110.555 43.6978L107.758 42.7364L107.321 43.8726C108.195 44.1348 108.457 44.5718 108.195 45.2709L106.36 49.5533C105.835 50.7769 104.874 51.1265 103.388 50.6021C102.776 50.3399 102.427 50.0777 102.252 49.5533C102.077 49.1164 102.077 48.6794 102.339 48.2424L104.175 43.8726C104.262 43.523 104.524 43.3482 104.787 43.2608C105.049 43.1734 105.398 43.1734 105.835 43.3482L106.36 42.2121L101.116 40.3768L100.679 41.5129C101.465 41.7751 101.815 42.2121 101.465 42.9112L99.4554 47.718C99.1058 48.5046 99.1932 49.3785 99.7176 50.0777C100.242 50.8643 101.116 51.476 102.427 51.913C105.223 52.8744 107.059 52.2626 107.845 50.2525L109.681 45.7953C109.855 45.4457 110.118 45.1835 110.555 45.1835ZM59.7776 49.6407C59.3406 49.8155 58.991 49.8155 58.5541 49.8155C58.3793 49.8155 58.1171 49.7281 57.6801 49.5533L54.5338 48.2424C55.233 47.718 55.67 47.1936 55.8448 46.5819C56.0196 45.9701 55.9322 45.3583 55.67 44.7466C55.1456 43.7852 54.2716 43.3482 53.0481 43.3482C52.4363 43.4356 51.7372 43.523 51.038 43.7852C50.9506 43.8726 50.7758 43.8726 50.6884 43.96L44.4833 46.8441L44.3959 46.9315L44.4833 47.1936L44.9203 47.9802C45.4447 47.8054 45.8816 47.718 46.1438 47.8054C46.3186 47.8928 46.4934 47.9802 46.6682 48.3298L49.4649 53.224C49.6397 53.5735 49.7271 53.7483 49.6397 54.0105C49.5523 54.1853 49.2901 54.4475 48.7657 54.7097L49.3775 55.7584L51.1254 54.9719L54.7086 53.3114L54.0969 52.2626C53.5725 52.5248 53.1355 52.6122 52.7859 52.5248C52.5237 52.4374 52.3489 52.2626 52.1741 52.0004L51.1254 50.1651V50.0777L51.8246 49.8155L57.1557 52.1752L59.7776 50.9517L60.4768 50.6021L59.865 49.5533C59.865 49.6407 59.7776 49.6407 59.7776 49.6407ZM52.7859 47.3684C52.4363 47.8054 52.0868 48.155 51.5624 48.3298L51.1254 48.592L50.2514 48.9416L49.2901 47.1936C49.0279 46.8441 49.0279 46.4945 49.0279 46.4071C49.1153 46.2323 49.4649 46.0575 50.0766 45.7079C50.3388 45.6205 50.601 45.5331 50.9506 45.4457C51.038 45.4457 51.1254 45.4457 51.2128 45.4457C51.912 45.3583 52.4363 45.6205 52.7859 46.1449C53.1355 46.4945 53.0481 46.9315 52.7859 47.3684ZM68.6046 47.0188C67.9928 47.4558 67.2063 47.8054 66.3323 47.9802C65.8079 48.0676 65.5457 48.0676 65.2835 47.9802C65.1961 47.8928 65.1087 47.718 65.0214 47.3684L64.4096 44.9213L65.0214 44.834C65.5457 44.7466 65.8953 44.7466 66.2449 45.0087C66.4197 45.1835 66.6819 45.5331 66.9441 46.0575L68.1676 45.7953L67.0315 41.3381L65.8079 41.6003C65.8953 42.2995 65.8953 42.7364 65.8953 42.9112C65.8079 43.086 65.3709 43.3482 64.6718 43.4356L64.1474 43.523L63.7978 42.0373C63.7104 41.6003 63.7104 41.3381 63.8852 41.1633C64.06 40.9885 64.4096 40.8137 65.1087 40.7263C65.9827 40.5515 66.8567 40.6389 67.6432 40.8137C68.255 41.0759 68.9542 41.4255 69.7407 42.0373L70.7021 41.3381L68.3424 38.7162L59.865 40.4642L59.0784 40.6389L59.3406 41.7751C59.5154 41.7751 59.6028 41.6877 59.7776 41.6877C60.0398 41.6877 60.302 41.7751 60.4768 41.7751C60.6516 41.8625 60.7389 42.0373 60.8263 42.3869L62.2247 47.8054C62.3121 48.0676 62.3121 48.2424 62.1373 48.4172C62.0499 48.592 61.7003 48.8542 61.1759 49.029L61.4381 50.1651L70.8769 48.155L71.7508 44.397L70.5273 44.1348C70.0903 45.6205 69.3912 46.4945 68.6046 47.0188ZM81.1022 44.1348L79.0047 37.7549L73.9357 37.6675L73.8483 38.891C74.3727 38.9784 74.7223 38.9784 74.9845 39.1532C75.1593 39.328 75.2467 39.5028 75.2467 39.8524L75.1593 45.4457C75.1593 46.1449 74.7223 46.4945 73.761 46.4945V47.718L78.2181 47.8054V46.5819C77.6938 46.5819 77.2568 46.4945 77.082 46.3197C76.8198 46.2323 76.8198 45.9701 76.8198 45.6205L76.9072 40.202L79.5291 47.8928H81.3644L84.2485 40.3768L84.1611 45.7079C84.1611 46.0575 84.0737 46.3197 83.8115 46.4945C83.5493 46.5819 83.1997 46.6693 82.6753 46.6693V47.8928L88.5309 47.9802V46.7567C88.0065 46.7567 87.5695 46.6693 87.3947 46.4945C87.2199 46.4071 87.1325 46.0575 87.1325 45.7079L87.2199 40.202C87.2199 39.8524 87.3073 39.5902 87.5695 39.4154C87.7443 39.2406 88.1813 39.2406 88.7057 39.2406V38.0171L83.4619 37.9297L81.1022 44.1348ZM92.1141 39.765C93.0755 40.0272 93.425 40.3768 93.2502 41.0759L91.8519 46.4945C91.7645 46.8441 91.5897 47.1062 91.3275 47.1936C91.0653 47.281 90.7158 47.281 90.104 47.1936L89.8418 48.4172L95.5225 49.5533L95.7847 48.4172C95.2604 48.3298 94.9108 48.155 94.736 47.9802C94.5612 47.8054 94.4738 47.5432 94.6486 47.1936L96.0469 41.7751C96.1343 41.4255 96.3091 41.1633 96.5713 41.0759C96.8335 40.9885 97.2705 40.9885 97.7948 41.0759L98.057 39.8524L92.3763 38.7162L92.1141 39.765ZM43.6967 58.2929C42.9976 58.8173 42.4732 58.8173 41.9488 58.2929L40.6379 56.8946L41.8614 56.0206C44.2211 54.2727 44.6581 52.6122 43.2598 51.1265C42.4732 50.2525 41.5118 49.9029 40.2883 50.1651C40.0261 50.2525 39.7639 50.3399 39.5017 50.4273C39.0648 50.6021 38.6278 50.8643 38.1908 51.1265L33.1218 54.9719L33.9958 55.8458C34.695 55.3215 35.3067 55.3215 35.7437 55.8458L39.5017 59.7787L39.7639 60.0408C40.0261 60.303 40.1135 60.5652 40.1135 60.8274C40.1135 61.0022 39.8513 61.2644 39.5017 61.614L39.4143 61.7014L39.5017 61.7888L40.2883 62.6627L44.3959 59.6039L44.5707 59.5165L44.3959 59.4291L43.6967 58.2929ZM40.2883 55.4963L39.7639 55.8458L39.5891 55.6711L38.016 54.0105C37.7538 53.7483 37.7538 53.4862 37.8412 53.224C37.8412 53.1366 38.1034 52.9618 38.3656 52.787C38.7152 52.5248 39.0647 52.35 39.4143 52.35C39.4143 52.35 39.5017 52.35 39.5891 52.35C40.1135 52.35 40.5505 52.5248 40.9875 52.9618C41.337 53.3988 41.5118 53.7483 41.4244 54.2727C41.1623 54.6223 40.8127 55.0593 40.2883 55.4963Z" fill="#C6C6C5"/>
<path d="M132.579 80.4039C132.404 80.1417 132.142 79.967 131.705 79.967C131.181 79.967 130.569 80.1417 129.87 80.4913C129.17 80.8409 128.384 81.4527 127.51 82.1518C126.286 83.2006 124.975 84.5989 123.577 86.2595C123.315 86.609 123.053 86.9586 122.703 87.3082C122.528 87.5704 122.266 87.8326 122.091 88.0948C122.354 87.046 122.616 85.9973 122.79 85.1233C122.79 84.9485 122.79 84.7737 122.878 84.5989C123.053 83.4628 123.14 82.5014 123.14 81.8023C123.14 81.4527 123.14 81.0157 123.14 80.7535C123.053 80.4039 123.053 80.1417 122.878 79.8796V79.7922L122.79 79.8796C122.703 79.967 122.616 79.967 122.616 79.967C122.616 80.0543 122.528 80.0543 122.528 80.0543L120.78 81.0157L118.945 81.8897C118.945 81.8897 118.858 81.9771 118.77 81.9771H118.683H118.595V82.0645L118.77 82.5888V82.6762H118.858C118.945 82.5888 119.032 82.5888 119.032 82.5888H119.12C119.295 82.5014 119.469 82.5014 119.557 82.414C119.732 82.414 119.819 82.3266 119.906 82.3266C120.343 82.3266 120.606 82.6762 120.606 83.4628C120.606 85.0359 120.256 87.3956 119.469 90.4545C119.382 91.0662 119.207 91.678 119.032 92.3772C118.858 92.9889 118.683 93.6881 118.508 94.4747L118.333 95.1738V95.2612H118.421H119.12H119.207L119.382 94.9117C119.819 93.9503 120.256 92.9889 120.78 92.115C121.48 90.8041 122.266 89.6679 123.053 88.4444C123.315 88.0074 123.577 87.6578 123.927 87.3082C124.189 86.9586 124.451 86.609 124.801 86.1721C125.675 85.1233 126.461 84.2493 127.16 83.6376C127.335 83.5502 127.422 83.4628 127.597 83.288C128.384 82.6762 129.083 82.414 129.607 82.414C129.957 82.414 130.132 82.5014 130.307 82.7636C130.481 83.0258 130.569 83.3754 130.569 83.8998V83.9872C130.569 84.5115 130.481 85.2107 130.219 86.0847C130.132 86.1721 130.132 86.3469 130.044 86.5216C130.044 86.609 129.957 86.7838 129.87 86.9586C129.695 87.5704 129.433 88.1822 129.083 88.7065C128.821 89.2309 128.471 89.7553 128.209 90.2797C127.597 91.0662 126.986 91.8528 126.286 92.552C125.587 93.2511 124.801 93.7755 124.014 94.3873C123.315 94.8243 122.441 95.1738 121.392 95.3486C121.13 95.3486 121.043 95.436 120.78 95.436C120.606 95.436 120.343 95.436 120.081 95.5234C118.683 95.6108 117.722 95.7856 116.935 95.9604C116.848 95.9604 116.673 96.0478 116.585 96.0478C116.498 96.0478 116.411 96.0478 116.236 96.1352C116.236 96.2226 116.148 96.2226 116.148 96.2226C115.886 96.31 115.624 96.4848 115.274 96.6596C114.925 96.9218 114.663 97.184 114.313 97.5335C113.701 98.2327 113.264 98.9319 112.915 99.5436C112.565 100.155 112.478 100.855 112.478 101.466C112.478 101.991 112.565 102.428 112.74 102.865C113.002 103.302 113.264 103.651 113.701 104.001C114.051 104.263 114.4 104.438 114.925 104.613C115.012 104.7 115.012 104.7 115.187 104.7C115.449 104.787 115.799 104.875 116.148 104.875C116.411 104.875 116.673 104.962 116.935 104.962C117.984 104.962 118.858 104.7 119.469 104.35C120.081 103.913 120.518 103.302 120.693 102.515V102.428L120.606 102.515C120.081 102.777 119.469 103.039 118.858 103.214C118.246 103.389 117.634 103.476 116.935 103.476C116.673 103.476 116.411 103.389 116.148 103.389C115.711 103.389 115.274 103.214 114.925 103.127C114.837 103.127 114.663 103.039 114.575 103.039C114.488 102.952 114.4 102.952 114.313 102.865C113.964 102.603 113.701 102.428 113.527 102.166C113.352 101.903 113.352 101.641 113.352 101.292C113.352 100.68 113.527 100.068 113.876 99.631C113.964 99.5436 114.051 99.4563 114.138 99.4563C114.226 99.3689 114.313 99.2815 114.4 99.2815C114.75 99.0193 115.187 98.8445 115.799 98.5823C115.886 98.4949 116.061 98.4949 116.148 98.4949C116.673 98.4075 117.197 98.2327 117.809 98.1453C118.858 97.9705 119.819 97.7083 120.78 97.4461C121.043 97.3587 121.305 97.2713 121.567 97.184C121.742 97.0966 122.004 97.0092 122.179 96.8344C122.354 96.747 122.616 96.6596 122.79 96.5722C123.49 96.1352 124.276 95.6108 125.063 94.9117C125.849 94.2999 126.636 93.5133 127.51 92.552C128.996 90.8914 130.219 89.3183 131.093 87.8326C131.268 87.5704 131.355 87.3082 131.53 86.9586C132.404 85.2107 132.928 83.5502 132.928 81.9771C132.841 81.1905 132.754 80.7535 132.579 80.4039ZM114.575 93.5133C114.663 93.4259 114.75 93.3385 114.925 93.2511C115.012 93.1637 115.1 93.1637 115.187 93.0763L115.274 92.9889V92.9016L114.925 92.3772H114.837C114.4 92.6394 113.963 92.9016 113.527 93.1637C113.439 93.2511 113.352 93.2511 113.264 93.2511C112.827 93.4259 112.478 93.5133 112.128 93.5133C111.866 93.5133 111.691 93.4259 111.516 93.3385C111.429 93.2511 111.342 92.9889 111.342 92.8142C111.342 92.4646 111.516 91.678 112.041 90.4545C112.128 90.1923 112.216 90.0175 112.303 89.7553C112.39 89.4931 112.478 89.2309 112.653 88.9687C113.002 88.0948 113.352 87.3082 113.701 86.609C113.964 85.9099 114.226 85.2981 114.488 84.7737C115.012 83.5502 115.449 82.5888 115.799 81.8023L115.886 81.5401C116.148 80.9283 116.323 80.5787 116.411 80.3165L116.585 80.0543H119.207L119.295 79.967L119.557 79.4426V79.3552H119.469H116.935L117.022 79.0056L117.634 77.6947C117.896 77.0829 118.071 76.5585 118.159 76.2089L118.246 76.0341L118.333 75.8593V75.7719H118.246C117.984 75.8593 117.809 75.8593 117.547 75.9467H117.372C117.11 76.0341 116.76 76.0341 116.498 76.0341H116.411C116.323 76.0341 116.323 76.0341 116.236 76.0341H116.148C116.061 76.1215 116.061 76.2963 115.974 76.3837C115.624 77.3451 115.274 78.0442 115.012 78.4812C114.925 78.5686 114.925 78.656 114.837 78.7434C114.837 78.8308 114.75 78.9182 114.75 78.9182C114.575 79.093 114.313 79.1804 113.963 79.2678C113.614 79.3552 113.177 79.3552 112.565 79.3552H112.39H112.303H112.216L111.953 79.967L111.866 80.0543H111.953H114.313L114.226 80.4039C114.051 80.6661 113.701 81.6275 113.09 82.9384L112.74 83.8124L112.303 84.7737L110.73 88.4444L110.38 89.3183C109.943 90.2797 109.594 91.1536 109.332 91.8528C109.244 91.9402 109.244 92.115 109.157 92.2898C108.895 93.0763 108.72 93.6007 108.72 93.8629C108.72 94.2125 108.807 94.5621 109.069 94.7369C109.157 94.8243 109.157 94.8243 109.332 94.9117C109.506 94.9991 109.856 95.0865 110.205 95.0865C110.38 95.0865 110.468 95.0865 110.73 95.0865C111.079 94.9991 111.516 94.9991 111.866 94.8243C111.953 94.7369 112.128 94.7369 112.216 94.6495C112.303 94.6495 112.478 94.5621 112.565 94.5621C113.352 94.2125 114.051 93.8629 114.575 93.5133ZM110.555 76.2963C110.555 76.2963 110.642 76.2963 110.73 76.2963C110.905 76.2963 111.079 76.2089 111.254 76.1215C111.342 76.1215 111.342 76.0341 111.342 76.0341C111.342 75.9467 111.429 75.9467 111.429 75.9467C111.516 75.7719 111.604 75.6846 111.691 75.5098C111.779 75.4224 111.779 75.2476 111.779 75.0728C111.779 74.8106 111.691 74.5484 111.604 74.3736C111.429 74.2862 111.167 74.1988 110.905 74.1988C110.817 74.1988 110.817 74.1988 110.73 74.1988C110.642 74.2862 110.555 74.2862 110.38 74.2862C110.293 74.3736 110.118 74.461 109.943 74.6358C109.856 74.7232 109.681 74.898 109.681 75.0728C109.594 75.2476 109.594 75.335 109.594 75.5098C109.594 75.8593 109.594 76.0341 109.856 76.2089C109.943 76.2963 110.205 76.2963 110.555 76.2963ZM105.836 90.1923C105.923 89.9301 106.01 89.7553 106.098 89.5805L106.185 89.4931L107.584 86.2595C108.37 84.5115 108.982 83.0258 109.332 81.8023C109.681 80.6661 109.856 79.7922 109.856 79.1804V79.0056V78.9182L109.768 79.0056L109.332 79.1804L109.244 79.2678C108.195 79.7048 107.147 80.1417 106.185 80.5787C106.01 80.6661 105.748 80.6661 105.573 80.7535C105.399 80.8409 105.224 80.9283 104.962 80.9283L104.612 81.0157L104.525 81.1031H104.437V81.1905L104.525 81.4527L104.612 81.8023V81.8897H104.7C104.787 81.8023 104.874 81.8023 104.874 81.8023C104.962 81.7149 104.962 81.7149 104.962 81.7149L105.748 81.4527C105.836 81.4527 105.923 81.3653 106.098 81.3653C106.185 81.3653 106.273 81.3653 106.36 81.3653C106.535 81.3653 106.622 81.3653 106.71 81.4527C106.797 81.5401 106.797 81.7149 106.797 81.8023C106.797 82.1518 106.447 83.1132 105.748 84.6863C105.573 85.0359 105.486 85.3855 105.311 85.7351C105.137 86.0847 104.962 86.5216 104.787 86.8712L104.7 86.9586C104.612 87.2208 104.437 87.3956 104.35 87.6578C103.913 88.5318 103.651 89.3183 103.301 89.9301C102.952 90.8041 102.689 91.4158 102.515 91.9402C102.34 92.4646 102.252 92.9889 102.165 93.5133C102.078 94.0377 102.078 94.6495 101.99 95.2612V95.3486L102.078 95.2612C102.689 95.0865 103.476 94.7369 104.35 94.3873C104.612 94.2999 104.962 94.1251 105.224 94.0377C105.486 93.9503 105.748 93.7755 106.01 93.6881C106.273 93.6007 106.535 93.4259 106.797 93.2511H106.884L106.797 93.1637L106.535 92.6394L106.447 92.7268C106.185 92.8142 105.923 92.9016 105.748 92.9889C105.573 92.9889 105.399 93.0763 105.311 93.0763C105.137 93.0763 104.962 93.0763 104.874 92.9889C104.787 92.9016 104.787 92.7268 104.787 92.6394C104.787 92.3772 104.962 91.7654 105.399 90.8041C105.661 90.6293 105.748 90.4545 105.836 90.1923ZM101.291 92.0276L101.029 92.2024C100.417 92.7268 99.8928 93.0763 99.5432 93.1637C99.4558 93.1637 99.3684 93.2511 99.281 93.2511C99.1936 93.3385 99.1936 93.3385 99.1062 93.3385C98.9314 93.3385 98.7566 93.2511 98.6692 93.1637C98.5818 93.0763 98.4944 92.9016 98.4944 92.552C98.5818 91.678 99.4558 88.9687 101.291 84.5989C101.641 83.725 102.078 82.7636 102.515 81.8023C102.952 80.8409 103.389 79.7048 103.913 78.656V78.5686C104.175 77.9568 104.437 77.4325 104.612 76.9081C105.137 75.6845 105.573 74.461 105.923 73.4996C106.01 73.2375 106.098 72.9753 106.185 72.7131C106.71 71.14 106.972 70.0038 106.972 69.2172V69.1299L106.884 69.2172C106.36 69.4794 105.573 69.829 104.612 70.1786C104.35 70.266 104.175 70.4408 103.913 70.4408C103.651 70.5282 103.389 70.6156 103.126 70.703C102.864 70.8778 102.602 70.9652 102.252 71.0526L101.99 71.14L101.903 71.2274L102.078 71.7517V71.8391C102.165 71.7517 102.252 71.7517 102.252 71.7517C102.34 71.6643 102.34 71.6643 102.34 71.6643C102.602 71.5769 102.777 71.4895 102.952 71.4895C103.126 71.4021 103.301 71.4021 103.301 71.4021C103.476 71.4021 103.651 71.4895 103.738 71.4895C103.738 71.5769 103.826 71.6643 103.826 71.8391C103.826 72.0139 103.651 72.5383 103.476 73.3249C103.214 74.1114 102.777 75.0728 102.252 76.3837L100.417 80.7535C99.4558 83.1132 98.6692 85.1233 97.97 86.6964C97.7952 87.3082 97.5331 87.8326 97.3583 88.357C97.0961 89.1435 96.8339 89.7553 96.6591 90.1923C96.3969 90.8914 96.2221 91.5906 96.0473 92.2024C95.9599 92.8142 95.8725 93.2511 95.8725 93.6881C95.8725 94.2125 95.9599 94.6495 96.1347 94.9117C96.3095 95.1738 96.6591 95.3486 97.0961 95.3486C97.1835 95.3486 97.2709 95.3486 97.3583 95.2612C98.0574 95.1738 98.9314 94.7369 99.9801 93.8629C100.242 93.6881 100.505 93.5133 100.767 93.2511C101.029 92.9889 101.291 92.8142 101.553 92.552L101.641 92.4646H101.553L101.291 92.0276ZM84.5985 87.3082C84.948 86.7838 85.385 86.1721 85.9094 85.6477C87.0455 84.4241 88.2691 83.3754 89.6674 82.6762C89.9296 82.5014 90.1918 82.414 90.454 82.3266C92.1145 81.5401 93.9498 81.1905 95.8725 81.1905C96.2221 81.1905 96.6591 81.1905 97.0961 81.2779C97.2709 81.2779 97.3583 81.2779 97.5331 81.2779C97.7952 81.2779 98.0574 81.3653 98.407 81.3653H98.4944C98.5818 81.0157 98.7566 80.8409 98.844 80.5787C98.844 80.4913 98.844 80.4913 98.844 80.4913C98.9314 80.2291 99.0188 80.0543 99.0188 79.967C99.0188 79.7922 98.9314 79.7048 98.844 79.53C98.6692 79.53 98.5818 79.4426 98.3196 79.4426C98.0574 79.4426 97.7952 79.4426 97.5331 79.4426C94.9112 79.53 92.2893 80.4039 89.6674 81.8897C87.8321 82.9384 86.1716 84.162 84.7733 85.6477C84.5111 85.9099 84.2489 86.1721 83.9867 86.5216C83.7245 86.7838 83.4623 87.1334 83.2875 87.3956C82.6757 88.1822 82.1514 88.9687 81.8018 89.6679C81.627 90.0175 81.5396 90.2797 81.3648 90.6293C80.9278 91.678 80.6656 92.7268 80.6656 93.6007C80.6656 94.2125 80.753 94.6495 81.0152 94.9117C81.19 95.0864 81.4522 95.2612 81.8018 95.3486C81.8892 95.3486 81.9766 95.3486 82.064 95.3486C82.7631 95.3486 83.6371 95.0865 84.7733 94.3873C85.0354 94.2999 85.2102 94.1251 85.385 93.9503C85.6472 93.8629 85.822 93.6007 86.0842 93.5133C86.9581 92.9016 87.8321 92.115 88.6187 91.3284C89.3178 90.6293 90.1044 89.8427 90.8036 89.0561C89.8422 91.0662 89.3178 92.7268 88.9683 93.9503C88.8809 94.2125 88.7935 94.3873 88.7935 94.6495C88.7061 94.8243 88.7061 95.0865 88.7061 95.2612V95.3486L88.7935 95.2612C89.9296 94.9991 90.9784 94.6495 91.9397 94.2999C92.8137 93.8629 93.6002 93.4259 94.2994 92.9016V92.8142V92.7268L93.9498 92.2898V92.2024L93.8624 92.2898C93.4254 92.552 93.0759 92.7268 92.8137 92.8142C92.5515 92.9015 92.2893 92.9889 92.2019 92.9889C92.0271 92.9889 91.9397 92.989 91.8523 92.9016C91.7649 92.8142 91.7649 92.7268 91.7649 92.552C91.7649 92.2898 92.1145 91.3284 92.7263 89.8427C92.8137 89.5805 92.9885 89.2309 93.0759 88.8813C93.2507 88.6191 93.3381 88.1822 93.5128 87.8326L93.6876 87.5704V87.483L93.6002 87.5704C93.1633 87.6578 92.7263 87.8326 92.3767 87.92C92.1145 88.0074 91.7649 88.0074 91.5027 88.0948C91.9397 87.483 92.3767 86.8712 92.6389 86.2595C92.7263 86.1721 92.7263 85.9973 92.8137 85.9099C93.0759 85.2107 93.2507 84.5115 93.2507 83.8998C93.2507 83.2006 93.0759 82.6762 92.8137 82.3266C92.7263 82.2392 92.7263 82.2392 92.5515 82.1518C92.4641 82.0645 92.4641 82.0645 92.2893 81.9771L92.2019 81.8897V81.9771C91.9397 83.0258 91.5901 84.0746 91.1532 85.1233C90.7162 86.1721 90.1918 87.1334 89.4926 88.1822C88.8809 89.2309 88.0943 90.1923 87.3077 90.9788C87.1329 91.1536 86.9581 91.3284 86.8708 91.5032C86.696 91.5906 86.5212 91.7654 86.3464 91.9402C85.822 92.3772 85.385 92.7268 85.0354 92.9889C84.948 93.0763 84.8606 93.0763 84.7733 93.0763C84.3363 93.3385 83.9867 93.4259 83.6371 93.4259C83.2875 93.4259 83.1127 93.3385 82.9379 93.0763C82.7631 92.8142 82.6757 92.4646 82.6757 92.0276C82.6757 90.8914 82.9379 89.8427 83.3749 88.7939C83.8993 88.357 84.2489 87.8326 84.5985 87.3082ZM66.0705 91.241H65.9831C65.8957 91.3284 65.8957 91.3284 65.8083 91.3284L65.1966 91.9402C64.9344 92.2024 64.6722 92.3772 64.4974 92.4646C64.41 92.4646 64.41 92.4646 64.41 92.4646C64.2352 92.552 64.1478 92.552 64.0604 92.552H63.973C63.7108 92.552 63.0117 92.115 61.9629 91.3284C61.7881 91.1536 61.5259 90.9788 61.3511 90.8041C61.0889 90.6293 60.8268 90.4545 60.5646 90.1923L60.4772 90.1049L60.215 89.9301C61.4385 88.7065 62.3999 87.483 63.099 86.1721C63.1864 85.9099 63.3612 85.6477 63.4486 85.3855C64.1478 83.8124 64.5848 82.2392 64.5848 80.6661C64.5848 79.3552 64.3226 78.219 63.7982 77.3451C63.7108 77.1703 63.6234 76.9955 63.536 76.8207C63.4486 76.6459 63.2738 76.5585 63.1864 76.3837C62.6621 75.8593 62.0503 75.335 61.2637 74.898C60.5646 74.5484 59.6032 74.1114 58.6419 73.8492V73.7618C59.1662 72.6257 59.6032 71.4895 59.9528 70.4408C60.0402 70.1786 60.0402 70.0912 60.215 69.829C60.215 69.6542 60.3024 69.392 60.3898 69.2172V69.0425H60.3024C59.4284 68.9551 58.5545 68.8677 57.7679 68.7803C56.9813 68.6929 56.1948 68.6929 55.4082 68.6929H55.2334C51.0384 68.6929 47.193 69.3046 43.7845 70.6156C43.0854 70.8778 42.3862 71.14 41.7744 71.4895C41.1627 71.7517 40.4635 72.1013 39.9391 72.4509C38.6282 73.1501 37.492 74.024 36.5307 74.898C35.5693 75.7719 34.7828 76.8207 34.0836 77.8694C33.5592 78.7434 33.0348 79.7048 32.6853 80.5787C32.6853 80.7535 32.5105 81.0157 32.5105 81.1031C32.1609 82.2392 31.9861 83.4628 31.9861 84.6863C31.9861 87.1334 32.5979 89.2309 33.8214 90.8914C34.0836 91.241 34.3458 91.5032 34.608 91.8528C34.9575 92.115 35.2197 92.3772 35.5693 92.7268C36.7929 93.6881 38.1912 94.3873 39.9391 94.9117C41.5996 95.3486 43.5224 95.6108 45.7073 95.6108C47.3678 95.6108 48.9409 95.436 50.6014 95.0865C50.8636 94.9991 51.2132 94.9991 51.5628 94.9117C51.825 94.8243 52.1746 94.7369 52.5241 94.6495C53.4855 94.3873 54.4468 94.0377 55.3208 93.6007C55.4956 93.6007 55.4956 93.5133 55.6704 93.5133C56.6317 92.9889 57.5057 92.4646 58.2923 91.8528C58.7292 92.2024 59.341 92.6394 59.9528 93.1637C60.5646 93.6881 61.3511 94.3873 62.2251 95.0865L62.8369 95.6108H62.9243L63.3612 95.2612C63.536 95.0865 63.7108 94.9117 64.0604 94.6495C64.3226 94.3873 64.5848 94.1251 64.9344 93.7755C65.5461 93.2511 66.0705 92.7268 66.4201 92.2898L66.6823 92.0276L66.8571 91.8528L66.9445 91.7654H66.8571L66.0705 91.241ZM55.146 92.552C54.3595 92.9889 53.4855 93.4259 52.6989 93.6881C51.0384 94.2999 49.1157 94.5621 47.1056 94.5621C44.3089 94.5621 41.9492 94.1251 40.0265 93.1637C39.6769 92.9889 39.24 92.8142 38.8904 92.6394C38.5408 92.3772 38.2786 92.2024 37.929 91.9402C36.7929 91.0662 36.0063 89.9301 35.4819 88.7939C34.9575 87.5704 34.608 86.1721 34.608 84.5115C34.608 83.4628 34.6954 82.414 34.9575 81.3653C35.1323 80.3165 35.4819 79.3552 36.0063 78.3938C36.7055 76.9955 37.5794 75.7719 38.6282 74.8106C38.803 74.6358 39.0652 74.3736 39.24 74.1988C39.4147 74.024 39.6769 73.8492 39.9391 73.6744C41.0753 72.8005 42.561 72.1013 44.2215 71.4895C44.4837 71.4021 44.8333 71.3148 45.1829 71.2274C47.2804 70.703 49.6401 70.4408 52.4367 70.4408C53.3981 70.4408 54.3595 70.5282 55.146 70.5282H55.3208C56.1948 70.6156 57.0687 70.703 57.8553 70.7904C57.7679 71.3148 57.6805 71.7517 57.5931 72.1887C57.5057 72.6257 57.4183 73.0627 57.2435 73.4996C56.457 73.4123 55.9326 73.4123 55.4082 73.3249C55.3208 73.3249 55.2334 73.3249 55.146 73.3249C54.7964 73.3249 54.3595 73.3249 54.0099 73.3249C52.4367 73.3249 50.951 73.4123 49.6401 73.7618C48.2417 74.024 47.1056 74.5484 46.0568 75.1602C44.9207 75.7719 44.1341 76.5585 43.6097 77.3451C43.0854 78.1316 42.8232 79.0056 42.8232 79.967C42.8232 80.2291 42.8232 80.5787 42.9106 80.8409C42.998 80.9283 42.998 81.1031 43.0854 81.2779C43.1728 81.3653 43.1728 81.4527 43.2602 81.6275L43.3476 81.7149V81.5401C43.6097 79.967 44.3963 78.5686 45.4451 77.4325C45.6199 77.2577 45.882 76.9955 46.1442 76.8207C46.319 76.5585 46.5812 76.3837 46.8434 76.2089C47.63 75.6845 48.5039 75.1602 49.3779 74.8106C49.5527 74.7232 49.7275 74.7232 49.9023 74.6358C51.0384 74.2862 52.1746 74.1114 53.4855 74.1114C54.0099 74.1114 54.6216 74.1114 55.146 74.1988V74.2862C55.6704 74.3736 56.1948 74.3736 56.8065 74.461C56.3696 75.6845 55.8452 76.7333 55.146 77.6947C54.2721 79.093 53.3107 80.1417 52.0872 81.0157C50.077 82.5014 47.63 83.288 44.8333 83.288C44.5711 83.288 44.1341 83.288 43.6971 83.288L43.435 83.2006H43.1728H42.9106H42.8232C42.6484 83.5502 42.3862 83.8998 42.0366 84.3367C41.7744 84.6863 41.3375 85.1233 40.9879 85.6477L41.0753 85.7351C41.4248 85.6477 41.687 85.6477 42.0366 85.5603C42.124 85.5603 42.124 85.5603 42.2114 85.5603C42.561 85.4729 42.998 85.4729 43.5224 85.4729C44.4837 85.4729 45.5325 85.5603 46.6686 85.9099C47.8048 86.1721 48.9409 86.5216 50.2518 87.046C51.9998 87.7452 53.6603 88.7065 55.3208 89.7553L55.4956 89.8427C55.8452 90.1049 56.1948 90.2797 56.5443 90.5419C56.8065 90.7167 57.1561 90.9788 57.4183 91.241C56.5443 91.678 55.8452 92.2024 55.146 92.552ZM59.6032 88.357C59.5158 88.5318 59.4284 88.6191 59.2536 88.7939C59.1662 88.8813 58.9914 89.0561 58.904 89.2309C57.6805 88.2696 56.457 87.483 55.0586 86.6964C53.9225 86.0847 52.6989 85.4729 51.388 84.9485C50.8636 84.6863 50.3392 84.5115 49.7275 84.3367C49.2905 84.162 48.7661 83.9872 48.2417 83.8998C49.2905 83.5502 50.1644 83.1132 51.0384 82.5888C51.9998 82.0645 52.8737 81.4527 53.5729 80.7535C54.0973 80.3165 54.5342 79.7922 54.9712 79.2678C55.583 78.5686 56.1074 77.8694 56.6318 76.9955C56.8065 76.7333 56.9813 76.3837 57.1561 76.0341C57.3309 75.7719 57.5057 75.4224 57.6805 75.0728L57.8553 74.6358C58.7292 74.898 59.4284 75.335 60.0402 76.0341C60.1276 76.2089 60.215 76.2963 60.3898 76.3837C60.4772 76.4711 60.5646 76.6459 60.652 76.8207C60.9142 77.2577 61.0889 77.782 61.2637 78.3938C61.3511 78.4812 61.3511 78.5686 61.3511 78.656C61.5259 79.3552 61.6133 80.1417 61.6133 81.0157C61.6133 81.9771 61.4385 83.0258 61.2637 84.0746C61.1763 84.2493 61.1763 84.4241 61.0889 84.6863C61.0015 84.8611 61.0015 85.0359 60.9141 85.2981C60.7394 86.5216 60.215 87.483 59.6032 88.357ZM79.7917 92.2898C79.4421 92.3772 79.2673 92.4646 79.0051 92.4646H78.9177C78.6555 92.552 78.4807 92.552 78.3059 92.552C78.1312 92.552 77.9564 92.4646 77.869 92.4646C77.7816 92.3772 77.6942 92.2898 77.6942 92.115C77.7816 91.8528 77.9564 91.3284 78.2186 90.3671C78.5681 89.4931 79.0051 88.2696 79.7043 86.6964C80.4908 84.7737 81.19 83.2006 81.8018 81.8023C81.8892 81.5401 81.9766 81.3653 82.1514 81.1031C82.2388 80.8409 82.4136 80.5787 82.501 80.3165C82.5884 80.0543 82.7631 79.7922 82.8505 79.53H82.6757C82.3262 79.6174 81.9766 79.7922 81.627 79.8796C81.3648 79.967 81.0152 80.0543 80.753 80.1417C80.6656 80.1417 80.5782 80.1417 80.4035 80.1417C80.3161 80.2291 80.2287 80.2291 80.1413 80.2291V80.3165L79.8791 80.9283C79.0051 83.2006 77.9564 85.2981 76.6454 87.2208C76.3832 87.5704 76.1211 88.0074 75.8589 88.357C75.5967 88.7065 75.3345 89.1435 75.0723 89.4931C74.0235 90.8041 73.1496 91.7654 72.363 92.3772C71.5765 92.9889 70.8773 93.3385 70.2655 93.3385C70.0907 93.3385 69.9159 93.2511 69.7411 93.1637C69.6537 93.0763 69.5663 92.9016 69.5663 92.6394C69.5663 92.3772 69.7411 91.8528 70.0907 90.9788C70.3529 90.1923 70.8773 89.1435 71.4891 87.8326L73.0622 84.4241C73.4992 83.4628 73.9361 82.5888 74.1983 81.8897C74.2857 81.8023 74.2857 81.6275 74.3731 81.4527C74.6353 80.5787 74.8101 79.967 74.8101 79.4426V79.3552H74.7227C74.1109 79.6174 73.4992 79.8796 72.7126 80.1417C72.0134 80.4039 71.2269 80.6661 70.3529 80.9283L70.0033 81.0157V81.1031L70.1781 81.7149H70.2655C70.5277 81.6275 70.7025 81.6275 70.8773 81.5401C71.0521 81.4527 71.1395 81.4527 71.2269 81.4527C71.4017 81.4527 71.5765 81.4527 71.6639 81.6275C71.7513 81.7149 71.8386 81.8023 71.8386 81.9771C71.8386 82.1519 71.7513 82.5014 71.5765 82.851C71.4891 83.2006 71.3143 83.6376 71.0521 84.162L69.479 87.3082C68.8672 88.7065 68.3428 89.8427 67.9058 90.8041C67.8184 90.9788 67.8184 91.1536 67.731 91.3284C67.3815 92.4646 67.2067 93.2511 67.2067 93.7755C67.2067 94.2125 67.2941 94.5621 67.4688 94.8243C67.731 94.9991 67.9932 95.1738 68.4302 95.1738C69.1294 95.1738 70.0033 94.9117 70.8773 94.2999C71.0521 94.2125 71.2269 94.0377 71.4891 93.9503C71.6639 93.7755 71.8386 93.6881 72.1008 93.5133C72.8 92.9016 73.5866 92.2024 74.3731 91.4158C75.0723 90.7167 75.7715 89.8427 76.4706 88.9687C76.121 90.0175 75.7715 91.0662 75.4219 92.0276C75.1597 93.0763 74.8975 94.2125 74.7227 95.1738V95.2612L74.8101 95.1738L75.3345 94.9991C76.8202 94.3873 78.0438 93.8629 78.9177 93.5133C79.0925 93.4259 79.2673 93.3385 79.4421 93.2511C79.6169 93.1637 79.7043 93.1637 79.8791 93.0763V92.9889L79.7917 92.2898Z" fill="#C6C6C5"/>
<path d="M81.9771 137.649C79.6174 134.765 75.4224 131.444 68.4307 130.308C68.1685 130.22 61.3516 128.647 58.5549 118.334L58.2053 114.489L55.2339 116.761H55.1465C55.1465 116.761 52.5246 117.81 49.3784 117.81C45.1833 117.81 42.0371 116.062 39.9396 112.566L39.6774 112.217C39.59 112.042 37.9295 109.857 37.9295 105.574C37.9295 104.875 37.9295 104.176 38.1043 103.39L38.9782 99.4567L35.5698 100.593H35.4824C35.395 100.593 31.637 100.593 29.8891 98.3206C29.2773 97.4466 29.1025 96.4853 29.1025 95.3491C29.1025 94.0382 29.4521 92.6399 29.8017 91.5037L30.4134 88.1827H26.9176C26.8302 88.1827 26.7428 88.1827 26.6554 88.1827C26.4806 88.1827 26.131 88.1827 25.7814 88.1827C21.8486 88.2701 16.6923 86.4347 15.4687 78.7439L15.3813 78.3069C15.2939 78.0447 14.5074 76.0346 12.1477 73.7623L11.7981 73.4128L12.1477 73.0632C14.5074 70.7909 15.2939 68.7808 15.3813 68.5186L15.4687 68.0816C16.7797 60.3908 21.936 58.5554 25.7814 58.5554C26.3932 58.5554 26.8302 58.6428 26.9176 58.6428L30.9378 59.5168L29.7143 55.4092C29.3647 54.273 29.0151 52.8747 29.0151 51.5638C29.0151 50.515 29.1899 49.4663 29.8017 48.6797C31.5496 46.32 35.3076 46.4074 35.4824 46.4074L38.6287 46.8444L38.0169 43.5233C37.9295 42.7368 37.8421 42.0376 37.8421 41.4258C37.8421 37.1434 39.5026 34.9585 39.59 34.8711L39.8522 34.5216C41.8623 30.9383 45.096 29.1904 49.291 29.1904C52.4372 29.1904 55.0591 30.2391 55.1465 30.2391L58.118 31.6375L58.5549 28.4912C61.3516 18.1785 68.1685 16.6054 68.6055 16.518C75.5097 15.3818 79.6174 12.0608 82.0644 9.17673L82.414 8.73975L82.7636 9.17673C85.1233 12.0608 89.3183 15.3818 96.31 16.518C96.5722 16.6054 103.389 18.1785 106.186 28.4912L106.71 31.5501L109.594 30.1518C109.682 30.1518 112.216 29.103 115.45 29.103C119.645 29.103 122.791 30.8509 124.801 34.3468L125.063 34.6963C125.151 34.8711 126.811 37.056 126.811 41.3384C126.811 42.0376 126.811 42.7368 126.636 43.5233L126.025 46.4948L129.258 46.32C129.346 46.32 133.104 46.32 134.852 48.5923C135.463 49.4663 135.638 50.515 135.638 51.4764C135.638 52.7873 135.289 54.1856 134.939 55.4092L133.628 59.2546L137.823 58.7302C137.91 58.7302 137.998 58.7302 138.085 58.7302C138.26 58.7302 138.61 58.7302 138.959 58.7302C142.892 58.6428 148.048 60.4781 149.272 68.169L149.359 68.606C149.447 68.8682 150.233 70.8783 152.593 73.1506L152.943 73.5001L152.593 73.8497C150.233 76.122 149.447 78.2195 149.359 78.3943L149.272 78.8313C147.961 86.5221 142.805 88.3575 138.959 88.3575C138.435 88.3575 138.085 88.3575 137.91 88.2701H137.823L133.628 87.3961L134.939 91.5037C135.289 92.6399 135.638 94.0382 135.638 95.4365C135.638 96.4853 135.463 97.534 134.852 98.408C133.104 100.768 129.346 100.68 129.258 100.68H129.171L126.462 99.8937L126.636 103.477C126.724 104.264 126.724 104.963 126.724 105.662C126.724 109.944 125.063 112.129 124.976 112.217L124.714 112.566C122.704 116.149 119.557 117.897 115.275 117.897C112.129 117.897 109.507 116.849 109.507 116.849H109.419L106.273 114.576L106.011 118.509C103.214 128.734 96.3974 130.395 96.0478 130.395C89.1435 131.531 85.0359 134.852 82.5888 137.736L82.2392 138.173L81.9771 137.649ZM82.3266 137.387L82.6762 137.124L82.3266 137.387ZM59.5163 118.159C62.2256 128.035 68.6055 129.346 68.6929 129.434C75.5971 130.57 79.8795 133.803 82.414 136.687C84.9485 133.803 89.2309 130.57 96.0478 129.434C96.2226 129.346 102.602 128.035 105.312 118.247L105.661 112.654L110.031 115.8C110.468 115.975 112.74 116.761 115.45 116.761C119.383 116.761 122.179 115.188 124.102 111.867L124.364 111.517C124.451 111.43 125.937 109.507 125.937 105.487C125.937 104.875 125.937 104.176 125.85 103.39L125.588 98.4954L129.346 99.5441C129.783 99.5441 133.016 99.282 134.152 97.6214C134.589 97.0097 134.764 96.1357 134.764 95.2617C134.764 94.0382 134.415 92.7273 134.065 91.6785L132.23 86.0852L137.91 87.2213C138.085 87.2213 138.347 87.3087 138.959 87.3087C142.63 87.2213 147.087 85.9104 148.398 78.5691L148.485 78.0447C148.573 77.6952 149.359 75.685 151.632 73.4128C149.359 71.1405 148.66 69.1303 148.485 68.7808L148.398 68.2564C147.087 60.9151 142.63 59.6042 138.959 59.5168C138.26 59.5168 137.998 59.6042 137.91 59.6042L132.23 60.3034L134.065 55.0596C134.415 53.9235 134.764 52.6125 134.677 51.4764C134.677 50.515 134.502 49.7285 134.065 49.1167C132.841 47.2814 129.171 47.194 129.258 47.194L124.888 47.4562L125.762 43.3485C125.85 42.6494 125.85 41.9502 125.85 41.3384C125.85 37.3182 124.364 35.3081 124.277 35.2207L124.014 34.7837C122.092 31.4627 119.383 29.977 115.362 29.8896C113.877 29.8896 112.478 30.1518 111.517 30.4139C110.556 30.6761 109.944 30.9383 109.944 30.8509L106.011 32.861L105.312 28.5786C102.515 18.8777 96.1352 17.4793 96.0478 17.4793C89.1435 16.3432 84.8611 13.1095 82.3266 10.2255C79.7921 13.1095 75.5097 16.3432 68.6929 17.4793C68.5181 17.5667 62.1382 18.8777 59.4289 28.666L58.9045 32.9484L54.7969 31.0257C54.7969 31.0257 54.1851 30.7635 53.1364 30.5013C52.175 30.2392 50.7767 29.977 49.291 29.977C45.3581 29.977 42.5615 31.5501 40.6388 34.8711L40.3766 35.3081C40.3766 35.3081 38.8034 37.3182 38.8034 41.3384C38.8034 41.9502 38.8908 42.6494 38.8908 43.3485L39.7648 47.8931L35.395 47.2814C35.395 47.2814 31.8118 47.3688 30.5008 49.2041C30.0639 49.8158 29.8891 50.6898 29.8891 51.5638C29.8891 52.7873 30.2386 54.0982 30.5882 55.147L32.2488 60.7403L26.8302 59.6042C26.6554 59.6042 26.3932 59.5168 25.7814 59.5168C22.1108 59.6042 17.6536 60.9151 16.3427 68.2564L16.1679 68.7808C16.0805 69.1303 15.2939 71.1405 13.0216 73.4128C15.2939 75.685 15.9931 77.6952 16.1679 78.0447L16.2553 78.5691C17.5662 85.9104 22.0234 87.2213 25.6941 87.3087C26.3932 87.3087 26.6554 87.2213 26.8302 87.2213L31.3748 87.3087L30.5008 91.7659C30.1512 92.902 29.8017 94.213 29.8017 95.3491C29.8017 96.3105 29.9765 97.0971 30.4134 97.7088C31.5496 99.3694 34.6958 99.6315 35.2202 99.6315L40.027 97.971L38.716 103.477C38.6287 104.176 38.6287 104.875 38.6287 105.487C38.6287 109.507 40.1144 111.517 40.2018 111.517L40.464 111.954C42.3867 115.275 45.096 116.761 49.1162 116.849C51.8254 116.849 54.0977 116.062 54.5347 115.887L58.7297 112.741L59.5163 118.159Z" fill="#989883"/>
</svg>
