<svg width="194" height="147" viewBox="0 0 194 147" fill="none" xmlns="http://www.w3.org/2000/svg">
<path d="M179.712 128.667L176.095 126.733C167.265 121.855 135.309 114.203 134.973 114.118L131.272 113.193L134.384 111.007L143.635 104.616L149.605 83.5076L150.11 81.8257L151.792 82.3303C156.669 83.7599 188.626 97.2993 190.055 97.888L193.587 99.4017L190.139 101L173.993 108.652L178.618 124.715L179.712 128.667Z" fill="#B8B8B6" fill-opacity="0.12"/>
<path d="M151.373 84.0122L145.234 105.709L135.479 112.437C135.479 112.437 167.855 120.173 177.022 125.219L171.976 107.811L189.468 99.4858C189.384 99.4858 156.166 85.4418 151.373 84.0122Z" fill="#B8B8B6" fill-opacity="0.12"/>
<path d="M13.8758 128.668L17.4919 126.733C26.322 121.856 58.2784 114.203 58.6147 114.119L62.315 113.194L59.2034 111.007L49.9529 104.616L43.9821 83.5081L43.4775 81.8262L41.7956 82.3307C36.918 83.7604 4.96165 97.2998 3.53202 97.8885L0 99.4022L3.44793 101L19.5943 108.653L14.969 124.715L13.8758 128.668Z" fill="#B8B8B6" fill-opacity="0.12"/>
<path d="M42.2164 84.0122L48.3554 105.709L58.1105 112.437C58.1105 112.437 25.7336 120.173 16.5672 125.219L21.6129 107.811L4.20508 99.4858C4.20508 99.4858 37.3388 85.4418 42.2164 84.0122Z" fill="#B8B8B6" fill-opacity="0.12"/>
<path d="M156.093 45.8148V46.4212V100.442C155.523 105.738 152.505 110.084 149.541 113.15C148.061 114.68 146.616 115.871 145.541 116.677C145.005 117.08 144.562 117.386 144.257 117.589C144.104 117.691 143.985 117.767 143.907 117.817C143.867 117.842 143.838 117.86 143.819 117.872L143.798 117.884L143.795 117.887L143.794 117.887L143.794 117.887L143.794 117.887L143.785 117.892L110.503 138.399C103.805 142.104 97.2065 141.929 92.2434 140.81C89.7587 140.25 87.6955 139.455 86.2559 138.802C85.5368 138.475 84.9754 138.185 84.5972 137.978C84.4082 137.875 84.2651 137.793 84.1711 137.738C84.1242 137.71 84.0895 137.689 84.0675 137.676L84.0442 137.661L84.0402 137.659L84.0397 137.659L84.0396 137.659L84.0393 137.658L84.0295 137.652L84.0186 137.646L49.9598 117.463L49.9553 117.46C45.505 114.854 42.803 111.056 41.2089 107.878C40.4131 106.291 39.8991 104.87 39.585 103.85C39.4281 103.34 39.3215 102.931 39.2548 102.654C39.2215 102.515 39.1981 102.41 39.1835 102.34C39.1827 102.337 39.1819 102.333 39.1812 102.329V44.5867C39.1819 44.5831 39.1827 44.5794 39.1835 44.5756C39.1981 44.5064 39.2215 44.4006 39.2548 44.262C39.3215 43.9846 39.4281 43.5762 39.585 43.0664C39.8991 42.0458 40.4131 40.6247 41.2089 39.0381C42.803 35.8602 45.505 32.0618 49.9553 29.4558L49.9582 29.4541L84.017 9.35522L84.0287 9.34832L84.0393 9.34163L84.0396 9.34147L84.0397 9.34139L84.0402 9.34111L84.0442 9.33863L84.0675 9.32433C84.0895 9.31098 84.1242 9.29012 84.1711 9.2625C84.2651 9.20725 84.4082 9.12501 84.5972 9.02174C84.9754 8.81514 85.5368 8.52479 86.2559 8.19828C87.6955 7.54461 89.7587 6.74985 92.2433 6.18979C97.2068 5.07097 103.806 4.89622 110.505 8.60144L143.872 29.0253L143.878 29.029L143.878 29.0291L143.879 29.0293L143.879 29.0294L143.883 29.0317L143.903 29.0442C143.922 29.0558 143.951 29.0741 143.991 29.099C144.069 29.1488 144.188 29.2249 144.341 29.3267C144.646 29.5302 145.089 29.8361 145.625 30.2389C146.7 31.0454 148.145 32.2355 149.625 33.766C152.465 36.704 155.355 40.8167 156.093 45.8148Z" stroke="#B8B8B6" stroke-width="2"/>
<path d="M35.1527 111.764L34.7322 110.166L26.8272 82.1623L26.4067 80.5645L27.9205 80.0599C49.3649 72.9959 72.5753 69.4639 96.9631 69.4639C136.656 69.4639 166.09 79.1349 166.426 79.219L167.94 79.7236L167.519 81.3214L159.614 109.325L159.194 110.923L157.596 110.503C140.693 106.382 121.94 104.364 101.925 104.364C65.5113 104.364 37.0869 111.344 36.7505 111.428L35.1527 111.764Z" fill="#EDEDED"/>
<path d="M28.4248 81.6573L36.3298 109.661C36.3298 109.661 98.0561 94.3557 158.016 108.82L165.921 80.8163C165.837 80.8163 98.897 58.5309 28.4248 81.6573Z" fill="#B8B8B6"/>
<path d="M51.1309 113.866C51.0468 113.446 51.215 113.025 51.6355 112.941C51.6355 112.941 53.1492 112.521 56.0084 111.932C56.4289 111.848 56.7653 112.1 56.8494 112.521C56.9335 112.941 56.6812 113.277 56.2607 113.362C53.4015 113.95 52.0559 114.371 52.0559 114.371C51.9718 114.371 51.8877 114.371 51.8037 114.371C51.5514 114.455 51.2991 114.203 51.1309 113.866ZM141.029 113.782C140.525 113.698 140.104 113.614 139.6 113.53C139.179 113.446 138.927 113.109 139.011 112.689C139.095 112.268 139.431 112.016 139.852 112.1C140.356 112.184 140.777 112.268 141.282 112.352C141.702 112.437 141.954 112.773 141.87 113.193C141.786 113.53 141.534 113.782 141.113 113.782C141.113 113.866 141.113 113.866 141.029 113.782ZM135.311 112.941C133.797 112.689 132.367 112.521 130.938 112.352C130.517 112.268 130.265 111.932 130.349 111.511C130.433 111.091 130.77 110.839 131.19 110.839C132.62 111.007 134.133 111.259 135.563 111.427C135.984 111.511 136.236 111.848 136.152 112.268C136.068 112.605 135.815 112.857 135.395 112.857C135.395 112.941 135.311 112.941 135.311 112.941ZM59.7927 111.932C59.7087 111.511 59.9609 111.175 60.3814 111.091C61.727 110.839 63.1566 110.67 64.7544 110.418C65.1749 110.334 65.5113 110.67 65.5954 111.007C65.6795 111.427 65.3431 111.764 65.0067 111.848C63.4089 112.1 61.9792 112.268 60.6337 112.521C60.5496 112.521 60.5496 112.521 60.5496 112.521C60.1291 112.605 59.8768 112.352 59.7927 111.932ZM126.565 111.848C125.051 111.68 123.621 111.511 122.192 111.343C121.771 111.343 121.519 110.923 121.519 110.502C121.603 110.082 121.94 109.83 122.36 109.83C123.79 109.998 125.303 110.166 126.733 110.334C127.153 110.418 127.406 110.755 127.406 111.175C127.322 111.511 126.985 111.848 126.565 111.848ZM68.5387 110.67C68.5387 110.25 68.791 109.914 69.2115 109.83C70.6411 109.661 72.0707 109.493 73.6685 109.409C74.089 109.409 74.4254 109.661 74.4254 110.082C74.4254 110.502 74.1731 110.839 73.7526 110.923C72.2389 111.091 70.7252 111.259 69.3797 111.343H69.2956C68.8751 111.343 68.6228 111.007 68.5387 110.67ZM117.735 110.923C116.221 110.755 114.791 110.67 113.362 110.586C112.941 110.586 112.689 110.166 112.689 109.83C112.689 109.409 113.109 109.157 113.446 109.157C114.875 109.241 116.389 109.409 117.903 109.493C118.323 109.493 118.576 109.914 118.576 110.334C118.492 110.67 118.239 110.923 117.735 110.923C117.819 110.923 117.819 110.923 117.735 110.923ZM77.3688 109.83C77.3688 109.409 77.6211 109.073 78.0415 109.073C79.4712 108.989 80.9849 108.904 82.4986 108.82C82.9191 108.82 83.2555 109.157 83.2555 109.493C83.2555 109.914 82.9191 110.25 82.5827 110.25C81.069 110.334 79.6394 110.418 78.2097 110.502C78.2097 110.502 78.2097 110.502 78.1256 110.502C77.7052 110.502 77.3688 110.166 77.3688 109.83ZM108.989 110.334C107.475 110.25 106.045 110.166 104.616 110.166C104.195 110.166 103.859 109.83 103.943 109.409C103.943 108.989 104.279 108.652 104.7 108.736C106.13 108.82 107.643 108.82 109.157 108.989C109.577 108.989 109.83 109.325 109.83 109.745C109.746 109.998 109.409 110.334 108.989 110.334ZM86.1988 109.325C86.1988 108.904 86.5352 108.568 86.8716 108.568C88.3012 108.484 89.8149 108.484 91.3287 108.484C91.7491 108.484 92.0855 108.82 92.0855 109.241C92.0855 109.661 91.7491 109.998 91.3287 109.998C89.8149 109.998 88.3853 110.082 86.9557 110.082C86.5352 110.082 86.1988 109.745 86.1988 109.325ZM100.159 109.998C98.645 109.998 97.2154 109.914 95.7857 109.914C95.3653 109.914 95.0289 109.577 95.0289 109.157C95.0289 108.736 95.3653 108.4 95.7857 108.4C97.2154 108.4 98.7291 108.4 100.243 108.484C100.663 108.484 101 108.82 101 109.241C100.916 109.661 100.579 109.998 100.159 109.998Z" fill="#E0E2D2"/>
<path d="M58.1098 57.4378C58.362 55.5877 58.5302 53.1489 58.5302 50.3737C58.5302 47.5986 58.362 45.328 58.1098 43.4779C57.8575 41.7119 57.5211 40.3663 56.9324 39.6095C55.9233 38.0957 53.9891 38.0117 51.1298 39.3572C48.2706 40.7027 46.4204 42.6369 45.4113 44.7393C44.9067 45.7485 44.4862 47.094 44.234 48.6918C43.9817 50.2896 43.8135 52.1397 43.8135 54.3262C43.8135 56.3445 43.8976 58.1105 44.1499 59.4561C44.4021 60.8016 44.7385 61.8948 45.2431 62.6517C46.2523 64.2495 48.1865 65.0905 51.0457 64.9223C52.3071 64.8382 53.064 64.67 53.4845 64.2495C54.4095 65.4269 55.4187 66.6883 56.3437 67.9497C57.3529 66.8565 58.2779 65.8474 59.2871 64.67C57.8575 62.7358 57.0165 61.7267 56.9324 61.6426C57.5211 60.6334 57.8575 59.2879 58.1098 57.4378ZM52.9799 58.8674C52.6435 60.1288 52.0549 60.7175 51.2139 60.8857C50.3729 60.9698 49.7843 60.4652 49.4479 59.372C49.1115 58.2787 48.9433 56.0922 48.9433 52.7284C48.9433 51.0465 49.0274 49.5328 49.0274 48.3554C49.1115 47.1781 49.2797 46.253 49.4479 45.5803C49.7843 44.4029 50.2889 43.562 51.2139 43.2256C52.139 42.8892 52.6435 43.2256 52.9799 44.2347C53.1481 44.7393 53.2322 45.6644 53.3163 46.8417C53.4004 48.019 53.4845 49.6169 53.4845 51.467C53.4004 55.1672 53.2322 57.606 52.9799 58.8674ZM70.8082 43.2256C70.8082 46.8417 70.8082 50.4578 70.8082 54.0739C70.8082 55.9241 70.64 57.2696 70.3877 57.9423C70.1354 58.6992 69.6309 59.0356 68.874 59.1197C68.1172 59.2038 67.6126 58.8674 67.3603 58.2787C67.0239 57.606 66.8557 56.3445 66.8557 54.4103C66.8557 50.9624 66.8557 47.4304 66.8557 43.9825C66.8557 40.5345 66.8557 37.0025 66.8557 33.5546C65.1738 34.0592 63.576 34.5637 61.9782 35.2365C61.9782 38.348 61.9782 41.4596 61.9782 44.5711C61.9782 47.6827 61.9782 50.7942 61.9782 53.9058C61.9782 57.7742 62.5668 60.4652 63.6601 61.9789C64.6692 63.4086 66.4352 64.0813 68.874 63.9972C71.2287 63.9131 72.9947 62.9881 74.0879 61.138C75.1812 59.2879 75.7699 56.3445 75.7699 52.2238C75.7699 48.6918 75.7699 45.1598 75.7699 41.7119C75.7699 38.1798 75.7699 34.6478 75.7699 31.1999C74.0879 31.6204 72.4901 32.0409 70.8082 32.3772C70.8082 35.9934 70.8082 39.6095 70.8082 43.2256ZM89.5616 29.0975C87.4592 29.3498 85.3568 29.518 83.3385 29.7703C82.4134 35.4888 81.5725 41.1232 80.7315 46.6735C79.8906 52.2238 78.9655 57.6901 78.1245 63.1563C79.8065 63.1563 81.4884 63.0722 83.1703 63.0722C83.4226 60.9698 83.759 58.8674 84.0953 56.765C85.6932 56.6809 87.2069 56.6809 88.8047 56.5968C89.1411 58.6992 89.3934 60.8016 89.7298 62.904C91.4117 62.904 93.0936 62.904 94.7755 62.904C93.9345 57.2696 93.0095 51.6352 92.1685 46.0008C91.3276 40.3663 90.4025 34.7319 89.5616 29.0975ZM84.5999 50.626C84.9363 48.1872 85.1886 45.7485 85.525 43.3097C85.8614 40.8709 86.1136 38.348 86.45 35.9093C86.7023 38.348 87.0387 40.7868 87.291 43.2256C87.5433 45.6644 87.8797 48.1031 88.1319 50.5419C86.9546 50.4578 85.7773 50.5419 84.5999 50.626ZM102.176 42.721C102.176 38.1798 102.176 33.6387 102.176 29.0134C100.494 28.9293 98.8962 28.9293 97.2143 28.8452C97.2143 34.4796 97.2143 40.1981 97.2143 45.8326C97.2143 51.467 97.2143 57.1855 97.2143 62.8199C101.167 62.8199 105.119 62.904 109.072 62.904C109.072 60.7175 109.072 58.6151 109.072 56.4286C106.717 56.3445 104.447 56.2604 102.092 56.2604C102.176 51.8875 102.176 47.2622 102.176 42.721ZM112.015 46.6735C112.015 52.1397 112.015 57.606 112.015 63.1563C113.697 63.1563 115.295 63.2404 116.893 63.2404C116.893 57.8582 116.893 52.5602 116.893 47.1781C116.893 41.796 116.893 36.4979 116.893 31.1158C115.295 30.7794 113.613 30.5271 112.015 30.1907C112.015 35.657 112.015 41.1232 112.015 46.6735ZM119.5 38.0117C120.929 38.2639 122.359 38.6003 123.873 38.9367C123.873 43.0574 123.873 47.094 123.873 51.2147C123.873 55.3354 123.873 59.372 123.873 63.4927C125.47 63.5768 127.152 63.6609 128.75 63.6609C128.75 59.7925 128.75 55.84 128.75 51.9715C128.75 48.1031 128.75 44.1506 128.75 40.2822C130.18 40.7027 131.609 41.1232 133.123 41.6278C133.123 39.7777 133.123 37.9276 133.123 36.0775C128.582 34.3955 124.041 32.9659 119.5 31.7886C119.5 33.8069 119.5 35.9093 119.5 38.0117ZM144.644 41.2073C144.224 42.4687 143.803 43.8143 143.383 45.0757C142.962 46.4212 142.542 47.8509 142.121 49.1964C142.121 49.1964 142.121 49.1964 142.037 49.1964C141.617 47.5145 141.28 45.8326 140.86 44.0665C140.439 42.3005 140.103 40.5345 139.683 38.7685C137.833 37.9276 136.067 37.1707 134.216 36.4138C135.141 39.5254 135.982 42.5528 136.907 45.4962C137.833 48.4395 138.673 51.2988 139.599 54.0739C139.599 55.7559 139.599 57.3537 139.599 59.0356C139.599 60.7175 139.599 62.3153 139.599 63.9972C141.196 64.0813 142.878 64.1654 144.56 64.2495C144.56 62.7358 144.56 61.2221 144.56 59.7084C144.56 58.1946 144.56 56.6809 144.56 55.1672C145.401 53.0648 146.326 51.0465 147.251 49.1123C148.092 47.2622 149.017 45.4962 149.942 43.8143C148.26 43.0574 146.41 42.1323 144.644 41.2073Z" fill="#C6C6C5"/>
<path d="M52.9804 92.0857L45.7482 93.3472L46.1687 95.7018L47.0937 95.5336L47.7665 99.2339L43.0571 100.075L42.3844 96.3746L43.3094 96.2064L41.7116 86.9559L40.7865 87.1241L40.1138 83.508L51.0462 81.5738C52.8122 81.2374 53.9055 82.2465 54.3259 84.6012L54.9987 88.6378C55.3351 90.6561 54.6623 91.8334 52.9804 92.0857ZM51.3826 86.199C51.2985 85.6103 50.878 85.4422 50.2053 85.5262L44.5708 86.5354L45.1595 89.8992L50.878 88.8901C51.5508 88.806 51.8031 88.3855 51.6349 87.7968L51.3826 86.199ZM68.3699 89.8992L70.6405 92.338L71.6497 92.2539L71.9861 95.87L66.2675 96.4587L65.8471 92.8426L66.7721 92.7585L64.6697 90.4879L61.6423 90.8243L61.8946 93.179L62.8196 93.0949L63.2401 96.8792L58.4466 97.3838L58.0262 93.5994L59.0353 93.5153L58.0262 84.1807L57.1011 84.2648L56.6806 80.5646L67.6972 79.3873C69.4632 79.2191 70.4723 80.3123 70.7246 82.667L71.1451 86.7877C71.3133 88.806 70.5564 89.8992 68.6222 90.0674L68.3699 89.8992ZM67.8654 83.9284C67.7813 83.3398 67.4449 83.0875 66.7721 83.1716L61.0536 83.7602L61.39 87.2082L67.1926 86.6195C67.7813 86.5354 68.1177 86.199 68.0336 85.6103L67.8654 83.9284ZM85.105 84.3489L84.9368 81.826L78.125 82.1624L78.2932 85.3581L83.9277 85.1058L84.0958 88.806L78.4614 89.0583L78.6296 91.4971L85.3573 91.1607L85.2732 88.8901L88.3006 88.7219L88.637 94.6927L74.9294 95.4496L74.7612 91.7493L75.7704 91.6652L75.2658 82.2465L74.2566 82.3306L74.0885 78.6304L87.7961 77.8735L88.1324 84.0966L85.105 84.3489ZM103.101 94.945V91.2448H103.942V84.8535L100.074 94.945H98.3921L94.4396 84.5171V91.4971H95.3647V94.945H90.6553V91.5811H91.4963V82.2465H90.8235V78.0417H95.2806L99.3172 88.7219L103.354 77.9576H107.727V82.1624H106.886V91.0766H107.727V94.8609H103.101V94.945ZM110.25 95.1132L110.418 91.3289L111.511 91.413L112.016 81.9942L110.922 81.9101L111.091 78.2099L116.136 78.4622L115.968 82.2465L114.959 82.1624L114.454 91.4971L115.464 91.5811L115.295 95.3655L110.25 95.1132ZM131.946 83.9284L130.937 93.5153C130.685 95.7859 129.844 96.7951 128.414 96.6269L121.098 95.87C119.668 95.7018 119.08 94.5245 119.332 92.2539L120.341 82.4988L119.416 82.4147L119.837 78.7145L124.714 79.2191L124.294 82.9193L123.284 82.8352L122.359 91.1607C122.275 91.8334 122.528 92.1698 123.032 92.1698L127.237 92.5903C127.742 92.6744 128.078 92.4221 128.162 91.8334L129.087 83.3398L127.994 83.2557L128.414 79.4714L133.544 79.9759L133.124 83.8443L131.946 83.9284ZM145.99 99.0657L146.495 95.4496L147.336 95.5336L148.261 89.1424L143.047 98.6452L141.365 98.3929L138.926 87.5445L138.001 94.4404L138.926 94.6086L138.422 98.0565L133.712 97.3838L134.217 94.0199L135.058 94.104L136.319 84.8535L135.731 84.7694L136.319 80.5646L140.692 81.2374L143.215 92.4221L148.681 82.3306L153.054 82.9193L152.466 87.1241L151.625 87.04L150.363 95.87L151.204 95.9541L150.7 99.6543L145.99 99.0657Z" fill="white"/>
<path d="M76.863 115.212C76.3584 115.212 75.8539 115.296 75.4334 115.464C75.097 115.548 74.8447 115.8 74.5924 116.052C74.3401 116.305 74.1719 116.641 74.0038 116.978C73.8356 117.398 73.7515 117.987 73.7515 118.659C73.7515 119.669 74.0038 120.51 74.5924 121.098C75.1811 121.687 75.938 121.939 76.863 121.939C77.7881 121.939 78.5449 121.687 79.1336 121.014C79.7223 120.425 79.9746 119.585 79.9746 118.575C79.9746 117.482 79.7223 116.725 79.1336 116.052C78.5449 115.464 77.7881 115.212 76.863 115.212ZM78.1244 120.257C77.7881 120.678 77.3676 120.846 76.863 120.846C76.3584 120.846 75.938 120.678 75.6016 120.257C75.2652 119.921 75.097 119.332 75.097 118.575C75.097 117.819 75.2652 117.23 75.6016 116.893C75.938 116.557 76.3584 116.305 76.9471 116.305C77.4517 116.305 77.9563 116.473 78.2926 116.893C78.629 117.23 78.7972 117.819 78.7972 118.575C78.629 119.332 78.4608 119.837 78.1244 120.257ZM85.8613 119.5C85.6931 119.332 85.4408 119.164 85.1885 118.996C85.7772 118.912 86.1976 118.744 86.4499 118.407C86.7022 118.071 86.8704 117.65 86.8704 117.23C86.8704 116.809 86.7863 116.473 86.6181 116.221C86.4499 115.968 86.1976 115.716 85.8613 115.632C85.5249 115.548 85.0203 115.464 84.3475 115.464H81.5724V121.939H82.9179V119.248H83.1702C83.5066 119.248 83.6748 119.248 83.843 119.332C84.0111 119.416 84.0952 119.5 84.2634 119.585C84.3475 119.753 84.5998 120.005 84.9362 120.51L85.8613 121.939H87.4591L86.7022 120.678C86.2817 120.005 86.0294 119.669 85.8613 119.5ZM83.843 118.071H82.8338V116.389H83.843C84.3475 116.389 84.6839 116.389 84.768 116.389C85.0203 116.389 85.1044 116.473 85.2726 116.641C85.3567 116.809 85.4408 116.978 85.4408 117.146C85.4408 117.314 85.3567 117.482 85.2726 117.65C85.1885 117.819 85.0203 117.903 84.9362 117.903C84.8521 118.071 84.4316 118.071 83.843 118.071ZM88.5523 121.855H89.8979V115.38H88.5523V121.855ZM94.6913 119.416H96.205V120.257C96.0368 120.425 95.7846 120.51 95.5323 120.678C95.28 120.762 94.9436 120.846 94.6913 120.846C94.1026 120.846 93.6822 120.678 93.3458 120.257C93.0094 119.837 92.8412 119.332 92.8412 118.491C92.8412 117.734 93.0094 117.23 93.3458 116.893C93.6822 116.557 94.1026 116.305 94.6913 116.305C95.1118 116.305 95.3641 116.389 95.6164 116.557C95.8686 116.725 96.0368 116.978 96.1209 117.314L97.3824 117.062C97.2142 116.473 96.9619 115.968 96.5414 115.632C96.1209 115.296 95.4482 115.127 94.6072 115.127C94.0185 115.127 93.4299 115.212 93.0935 115.464C92.5048 115.716 92.0843 116.137 91.8321 116.641C91.5798 117.146 91.4116 117.734 91.4116 118.407C91.4116 118.996 91.4957 119.585 91.8321 120.173C92.0843 120.678 92.5048 121.098 92.9253 121.435C93.4299 121.687 94.0185 121.855 94.6913 121.855C95.1959 121.855 95.7846 121.771 96.2891 121.519C96.7937 121.351 97.2142 121.098 97.4665 120.846V118.239H94.6072V119.416H94.6913ZM99.1484 121.855H100.494V115.38H99.1484V121.855ZM106.212 119.669L103.521 115.296H102.26V121.771H103.521V117.566L106.128 121.771H107.474V115.296H106.297V119.669H106.212ZM111.174 115.296L108.651 121.771H109.997L110.501 120.257H113.108L113.697 121.771H115.127L112.52 115.296H111.174ZM110.922 119.248L111.847 116.809L112.772 119.248H110.922ZM117.734 120.678V115.296H116.388V121.771H121.013V120.678H117.734Z" fill="#C6C6C5"/>
</svg>
