<?xml version="1.0" encoding="utf-8"?>
<!-- Generator: Adobe Illustrator 22.1.0, SVG Export Plug-In . SVG Version: 6.00 Build 0)  -->
<svg height="44px" version="1.1" id="Слой_1" xmlns="http://www.w3.org/2000/svg" xmlns:xlink="http://www.w3.org/1999/xlink" x="0px" y="0px"
	 viewBox="0 0 30 44" style="enable-background:new 0 0 30 44;" xml:space="preserve">
<style type="text/css">
	.st0{fill:#FFD910;}
	.st1{fill:#192330;}
</style>
<path class="st0" d="M22,31c0.2,0.1,0.5,0.2,0.8,0.3c0.3,0,0.6,0,0.8-0.1c0.3-0.1,0.5-0.2,0.8-0.4c0.2-0.2,0.4-0.4,0.5-0.7
	c2.8-5.4,5-10.9,5-14.2c0-4-1.6-7.8-4.4-10.6C22.8,2.6,19,1,15,1S7.2,2.6,4.4,5.4C1.6,8.2,0,12,0,16c0,6.4,9.3,21.4,13.5,27
	c0.2,0.3,0.5,0.5,0.9,0.7c0.3,0.2,0.7,0.3,1.1,0.2s0.7-0.1,1.1-0.3c0.3-0.2,0.6-0.4,0.8-0.7c0.9-1.3,2.1-3.1,3.4-5.2
	c0.1-0.2,0.2-0.5,0.3-0.8c0-0.3,0-0.6-0.1-0.9c-0.1-0.3-0.2-0.5-0.4-0.8c-0.2-0.2-0.4-0.4-0.6-0.6c-0.5-0.3-1.1-0.3-1.6-0.2
	c-0.5,0.1-1,0.5-1.3,1c-0.6,0.9-1.1,1.9-1.7,2.7C10.4,31.1,4.3,20,4.3,16c0-2.8,1.1-5.6,3.1-7.6c2-2,4.7-3.1,7.6-3.1
	s5.6,1.1,7.6,3.1c2,2,3.1,4.7,3.1,7.6c0,2.4-2,7.2-4.6,12.2c-0.3,0.5-0.3,1.1-0.1,1.6C21.2,30.3,21.5,30.8,22,31L22,31z"/>
<path class="st1" d="M15,13c0.6,0,1.2,0.2,1.7,0.5c0.5,0.3,0.9,0.8,1.1,1.3c0.2,0.5,0.3,1.2,0.2,1.7c-0.1,0.6-0.4,1.1-0.8,1.5
	c-0.4,0.4-1,0.7-1.5,0.8c-0.6,0.1-1.2,0.1-1.7-0.2c-0.5-0.2-1-0.6-1.3-1.1C12.2,17.2,12,16.6,12,16c0-0.8,0.3-1.6,0.9-2.1
	C13.4,13.3,14.2,13,15,13z M15,8.7c-1.4,0-2.8,0.4-4,1.2c-1.2,0.8-2.1,1.9-2.7,3.3c-0.6,1.3-0.7,2.8-0.4,4.2s1,2.7,2,3.7
	c1,1,2.3,1.7,3.7,2c1.4,0.3,2.9,0.1,4.2-0.4c1.3-0.6,2.5-1.5,3.3-2.7c0.8-1.2,1.2-2.6,1.2-4.1c0-1.9-0.8-3.8-2.1-5.2
	C18.8,9.5,16.9,8.7,15,8.7z"/>
</svg>
