<svg width="30" height="44" viewBox="0 0 30 44" fill="none" xmlns="http://www.w3.org/2000/svg">
<path d="M28.8306 35.1577L20.6597 25.9137C20.2146 25.4055 19.6373 25.0285 18.991 24.8239C18.3446 24.6193 17.654 24.5951 16.9947 24.7538L16.3219 24.912C15.9698 24.9972 15.5986 24.9556 15.2744 24.7947C14.9502 24.6338 14.6941 24.364 14.5514 24.0333C14.0089 22.7622 13.6197 21.432 13.3917 20.0703C13.3486 19.784 13.4157 19.492 13.5798 19.2526C13.7439 19.0132 13.9928 18.8439 14.277 18.7786C14.8332 18.6514 15.3521 18.398 15.7929 18.0381C16.2337 17.6783 16.5845 17.2219 16.8177 16.7049C17.0564 16.151 17.1567 15.5481 17.1098 14.9474L16.2688 4.13934C16.2231 3.46494 16.0227 2.80982 15.683 2.22399C15.3434 1.63816 14.8733 1.13709 14.3088 0.759028C13.7444 0.380967 13.1003 0.135902 12.4259 0.0425368C11.7514 -0.0508283 11.0644 0.00997372 10.4173 0.220303L4.42409 2.50494C3.29371 2.8697 2.29488 3.55344 1.54968 4.47258C0.804483 5.39173 0.345202 6.50647 0.22798 7.68053C-1.06449 19.5255 3.16703 32.8467 12.1966 41.7304C12.429 41.952 12.7111 42.1153 13.0197 42.207C13.3284 42.2986 13.6545 42.316 13.9712 42.2576C14.288 42.1992 14.5861 42.0667 14.8409 41.8711C15.0958 41.6755 15.3 41.4225 15.4367 41.1329L15.4898 41.0363C15.6669 40.6531 15.7195 40.2248 15.6401 39.8106C15.5608 39.3965 15.3536 39.0172 15.0472 38.7253C7.16839 30.9311 3.45916 19.341 4.28245 8.98102C4.33277 8.33984 4.5756 7.72836 4.97958 7.22555C5.38356 6.72275 5.93013 6.35171 6.54871 6.16037L10.6209 4.49961C10.7928 4.44788 10.9742 4.43498 11.1518 4.46188C11.3294 4.48877 11.4986 4.55477 11.6472 4.65504C11.7957 4.7553 11.9198 4.88729 12.0103 5.04133C12.1007 5.19537 12.1554 5.36756 12.1701 5.54527L12.8075 13.6733C12.8337 14.0044 12.7404 14.3339 12.5441 14.6028C12.3478 14.8717 12.0614 15.0624 11.7363 15.1408L10.3553 15.4747C9.83683 15.6022 9.3847 15.9166 9.08689 16.3568C8.78909 16.7969 8.66691 17.3313 8.74414 17.856C9.4789 22.4692 10.5147 25.6589 13.0553 29.4988C13.3278 29.8994 13.7302 30.1955 14.1956 30.3377C14.661 30.48 15.1614 30.4599 15.6137 30.2809L17.4816 29.534C17.7562 29.4257 18.0583 29.4064 18.3445 29.4791C18.6308 29.5517 18.8865 29.7124 19.0751 29.9382L24.9886 36.9151C25.1147 37.0611 25.2032 37.2354 25.2464 37.4229C25.2897 37.6104 25.2863 37.8055 25.2366 37.9914C25.187 38.1773 25.0925 38.3485 24.9614 38.4901C24.8303 38.6317 24.6664 38.7396 24.484 38.8044L21.1731 39.9642C20.8955 40.0604 20.6414 40.2136 20.4275 40.414C20.2136 40.6143 20.0447 40.8572 19.9319 41.1268C19.8191 41.3963 19.7649 41.6865 19.7729 41.9783C19.7808 42.2701 19.8507 42.5569 19.978 42.82C20.2003 43.285 20.5894 43.6509 21.0692 43.8459C21.549 44.041 22.0849 44.0512 22.5718 43.8745L26.9981 42.2928C27.6957 42.0575 28.323 41.653 28.8233 41.1162C29.3235 40.5793 29.6808 39.9269 29.8628 39.2183C30.0448 38.5097 30.0457 37.7672 29.8655 37.0581C29.6852 36.349 29.3295 35.6958 28.8306 35.1577Z" fill="#FFD910"/>
<path d="M19.9704 2.94623C20.0043 3.39476 20.1778 3.82179 20.4669 4.16836C20.756 4.51493 21.1465 4.76396 21.5844 4.88107C22.4846 5.10656 23.2908 5.60667 23.8892 6.31085C24.4875 7.01502 24.8479 7.88773 24.9194 8.80587C24.9909 9.72401 24.77 10.6413 24.2878 11.4282C23.8055 12.2152 23.0864 12.8321 22.2317 13.1921C21.8155 13.3765 21.4674 13.6845 21.2354 14.0737C21.0035 14.4628 20.8992 14.9139 20.937 15.3644C20.9684 15.7179 21.0849 16.0589 21.2768 16.3585C21.4688 16.6581 21.7304 16.9076 22.0398 17.086C22.3492 17.2644 22.6973 17.3665 23.0547 17.3837C23.4122 17.4009 23.7686 17.3327 24.094 17.1849C25.7675 16.4469 27.1695 15.2131 28.1075 13.653C29.0455 12.093 29.4735 10.2831 29.3326 8.47212C29.1917 6.66112 28.4888 4.93781 27.3206 3.53893C26.1523 2.14005 24.576 1.13421 22.8081 0.659599C22.463 0.560643 22.0988 0.54601 21.7468 0.616951C21.3947 0.687891 21.0652 0.842296 20.7864 1.06698C20.5075 1.29166 20.2877 1.57994 20.1456 1.90719C20.0035 2.23444 19.9434 2.59094 19.9704 2.94623Z" fill="#192330"/>
</svg>
