<?xml version="1.0" encoding="utf-8"?>
<!-- Generator: Adobe Illustrator 22.1.0, SVG Export Plug-In . SVG Version: 6.00 Build 0)  -->
<svg height="44px" version="1.1" id="Слой_1" xmlns="http://www.w3.org/2000/svg" xmlns:xlink="http://www.w3.org/1999/xlink" x="0px" y="0px"
	 viewBox="0 0 43 44" style="enable-background:new 0 0 43 44;" xml:space="preserve">
<style type="text/css">
	.st0{fill:#192330;}
	.st1{fill:#FFD910;}
</style>
<path class="st1" d="M22.2,29.7L12.7,22c-0.5-0.3-1.1-0.4-1.6-0.3c-0.6,0.1-1,0.5-1.3,1c-0.2,0.2-0.3,0.5-0.3,0.8c0,0.3,0,0.6,0,0.8
	c0.1,0.3,0.2,0.5,0.3,0.8c0.2,0.2,0.4,0.4,0.6,0.6l9.5,7.7c0.5,0.3,1.1,0.3,1.6,0.2c0.5-0.1,1-0.5,1.3-0.9c0.3-0.5,0.4-1,0.3-1.6
	C23,30.5,22.7,30,22.2,29.7L22.2,29.7z"/>
<path class="st0" d="M22.2,33.3l9.5-7.7c0.2-0.1,0.4-0.3,0.6-0.6c0.2-0.2,0.3-0.5,0.3-0.8c0.1-0.3,0.1-0.6,0-0.8
	c0-0.3-0.1-0.5-0.3-0.8c-0.3-0.5-0.8-0.8-1.3-1c-0.6-0.1-1.1,0-1.6,0.3l-9.5,7.7c-0.2,0.1-0.4,0.3-0.6,0.6C19.1,30.5,19,30.7,19,31
	c-0.1,0.3-0.1,0.6,0,0.8c0,0.3,0.1,0.5,0.3,0.8c0.1,0.2,0.3,0.5,0.6,0.6s0.5,0.3,0.8,0.3c0.3,0.1,0.6,0.1,0.8,0
	C21.7,33.6,22,33.5,22.2,33.3z"/>
<path class="st1" d="M35.9,13H7.1c-1.9,0-3.7,0.7-5,2.1c-1.3,1.3-2.1,3.1-2.1,5v16.8c0,1.9,0.7,3.7,2.1,5s3.1,2.1,5,2.1h28.9
	c1.9,0,3.7-0.7,5-2.1c1.3-1.3,2.1-3.1,2.1-5V20.1c0-1.9-0.7-3.7-2.1-5C39.6,13.7,37.8,13,35.9,13L35.9,13z M38.7,36.9
	c0,0.7-0.3,1.4-0.8,2c-0.5,0.5-1.2,0.8-2,0.8H7.1c-0.7,0-1.4-0.3-2-0.8s-0.8-1.2-0.8-2V20.1c0-0.7,0.3-1.4,0.8-2
	c0.5-0.5,1.2-0.8,2-0.8h28.9c0.7,0,1.4,0.3,2,0.8c0.5,0.5,0.8,1.2,0.8,2V36.9z"/>
</svg>
