<svg width="1623" height="456" viewBox="0 0 1623 456" fill="none" xmlns="http://www.w3.org/2000/svg">
<path d="M46.4761 4.93079L46.4844 4.94513L41.7561 13.1408L41.7418 13.1491L37 4.93604L46.4761 4.93079Z" fill="white" fill-opacity="0.4"/>
<path d="M21.6985 333.924L21.7175 333.957L10.8906 352.723L10.8578 352.742L0 333.936L21.6985 333.924Z" fill="white" fill-opacity="0.4"/>
<path d="M470.546 44.6021L470.556 44.6198L465.875 54.077L465.86 54.0859L460 43.936L470.546 44.6021Z" fill="white" fill-opacity="0.4"/>
<path d="M1548.55 367.602L1548.56 367.62L1543.88 377.077L1543.86 377.086L1538 366.936L1548.55 367.602Z" fill="white" fill-opacity="0.4"/>
<path d="M1620.23 20.9307L1620.24 20.9461L1615.13 29.7922L1615.12 29.8011L1610 20.936L1620.23 20.9307Z" fill="white" fill-opacity="0.4"/>
<path d="M686.124 441.263L686.138 441.289L678.384 455.402L678.36 455.416L670 440.936L686.124 441.263Z" fill="white" fill-opacity="0.4"/>
</svg>
