<svg width="904" height="326" viewBox="0 0 904 326" fill="none" xmlns="http://www.w3.org/2000/svg">
<mask id="mask0" mask-type="alpha" maskUnits="userSpaceOnUse" x="15" y="15" width="874" height="297">
<rect width="874" height="296" transform="matrix(-1 0 0 1 889 15.001)" fill="#1C1C1C"/>
</mask>
<g mask="url(#mask0)">
<g style="mix-blend-mode:overlay" opacity="0.4">
<g style="mix-blend-mode:overlay" opacity="0.4">
<path d="M241.374 64.6028L337.09 64.6028L289.148 147.556L241.374 64.6028Z" fill="white" fill-opacity="0.8"/>
<path d="M349.912 75.7701L384.946 136.268L384.946 136.39L314.755 136.39L349.912 75.7701Z" fill="white" fill-opacity="0.5"/>
<path d="M289.165 -31.9104L289.298 -31.9104L327.518 34.1594L327.518 34.2929L250.945 34.2928L289.165 -31.9104Z" fill="white" fill-opacity="0.4"/>
<path d="M8.62159 173.309L43.9139 173.309L26.237 203.709L8.62159 173.309Z" fill="white" fill-opacity="0.6"/>
<path d="M100.345 128.497L121.482 165.188L79.208 165.188L79.208 165.114L100.345 128.497Z" fill="white" fill-opacity="0.4"/>
<path d="M132.057 208.172L125.639 219.343L119.198 208.188L132.057 208.172Z" fill="white"/>
<path d="M44.7407 96.5923L97.7246 96.5923L71.2327 142.444L44.7407 96.5923Z" fill="white" fill-opacity="0.4"/>
<path d="M28.6956 112.545L28.7882 112.545L55.2801 158.396L55.2801 158.489L2.20361 158.489L28.6956 112.545Z" fill="white" fill-opacity="0.7"/>
</g>
<g style="mix-blend-mode:overlay" opacity="0.5">
<path d="M305.983 172.283L394.52 172.283L350.174 249.653L305.983 172.283Z" fill="white" fill-opacity="0.8"/>
<path d="M410.558 185.045L459.128 269.423L459.128 269.593L361.817 269.593L410.558 185.045Z" fill="white" fill-opacity="0.5"/>
<path d="M0.425595 16.7448L0.556455 16.7448L37.9796 81.2225L37.9796 81.3527L-36.9976 81.3527L0.425595 16.7448Z" fill="white" fill-opacity="0.4"/>
<path d="M100.006 263.522L221.162 263.522L160.478 368.396L100.006 263.522Z" fill="white" fill-opacity="0.6"/>
<path d="M289.631 170.687L336.292 251.248L242.97 251.248L242.97 251.085L289.631 170.687Z" fill="white" fill-opacity="0.5"/>
<path d="M160.688 158.647L281.633 158.647L221.161 263.31L160.688 158.647Z" fill="white" fill-opacity="0.6"/>
<path d="M152.76 172.283L152.916 172.283L197.505 249.497L197.505 249.653L108.171 249.653L152.76 172.283Z" fill="white" fill-opacity="0.4"/>
</g>
<g style="mix-blend-mode:overlay" opacity="0.5">
<path d="M409.998 157.792L349.42 52.8683L470.586 52.9845L409.998 157.792Z" fill="white" fill-opacity="0.8"/>
<path d="M386.065 31.81L397.784 11.4967L397.82 11.4762L409.572 31.8325L386.065 31.81Z" fill="white" fill-opacity="0.5"/>
<path d="M129.652 44.2156L129.585 44.0997L167.819 -22.1736L167.935 -22.2406L206.279 44.1732L129.652 44.2156Z" fill="white" fill-opacity="0.9"/>
<path d="M582.891 227.11L541.126 154.772L624.663 154.852L582.891 227.11Z" fill="white" fill-opacity="0.6"/>
<path d="M457.663 154.818L499.435 82.5602L541.126 154.772L541 154.845L457.663 154.818Z" fill="white" fill-opacity="0.5"/>
<path d="M562.952 94.0305L582.348 60.2767L601.809 93.984L562.952 94.0305Z" fill="white"/>
<path d="M625.291 195.224L635.359 177.829L645.39 195.203L625.291 195.224Z" fill="white"/>
<path d="M502.227 217.578L472.047 165.306L532.373 165.325L502.227 217.578Z" fill="white" fill-opacity="0.6"/>
<path d="M499.428 254.652L499.355 254.526L541 182.34L541.127 182.268L582.891 254.606L499.428 254.652Z" fill="white" fill-opacity="0.4"/>
</g>
<g opacity="0.1">
<path d="M781.462 93.3172L759.85 55.8854L803.077 55.9269L781.462 93.3172Z" fill="white" fill-opacity="0.6"/>
<path d="M673.652 141.485L716.09 141.508L694.892 178.225L694.827 178.188L673.652 141.485Z" fill="white" fill-opacity="0.5"/>
<path d="M820.546 138.25L836.824 109.922L853.157 138.211L820.546 138.25Z" fill="white"/>
<path d="M888.135 151.432L896.584 136.833L905.002 151.415L888.135 151.432Z" fill="white"/>
<path d="M743.406 216.95L718.078 173.08L768.706 173.096L743.406 216.95Z" fill="white" fill-opacity="0.6"/>
<path d="M777.172 200.924L777.151 200.888L789.195 180.011L789.232 179.99L801.311 200.911L777.172 200.924Z" fill="white" fill-opacity="0.4"/>
</g>
</g>
</g>
</svg>
