<svg width="1920" height="462" viewBox="0 0 1920 462" fill="none" xmlns="http://www.w3.org/2000/svg">
<mask id="mask0" mask-type="alpha" maskUnits="userSpaceOnUse" x="0" y="0" width="1920" height="462">
<rect width="1920" height="462" fill="white"/>
</mask>
<g mask="url(#mask0)">
<g opacity="0.6">
<rect width="3.11722" height="11.8298" transform="matrix(0.731055 0.682318 -0.731055 0.682318 1811.78 68.3054)" fill="#FFD910"/>
<rect width="3.11722" height="11.8424" transform="matrix(0.731055 -0.682318 0.731055 0.682318 1803.04 70.3948)" fill="#FFD910"/>
</g>
<g opacity="0.4">
<rect width="6.46838" height="24.5475" transform="matrix(0.706637 -0.707577 0.706637 0.707577 1512.04 396.897)" fill="#FFD910"/>
<rect width="6.46838" height="24.5737" transform="matrix(-0.706637 -0.707577 0.706637 -0.707577 1516.53 414.453)" fill="#FFD910"/>
</g>
<g opacity="0.5">
<rect x="232.358" y="54.4555" width="5.37132" height="20.3841" transform="rotate(-45 232.358 54.4555)" fill="#FFD910"/>
<rect x="236.09" y="69.0244" width="5.37132" height="20.4059" transform="rotate(-135 236.09 69.0244)" fill="#FFD910"/>
</g>
<g opacity="0.3">
<rect width="2.08304" height="7.90511" transform="matrix(0.706637 -0.707577 0.706637 0.707577 1617.3 130.153)" fill="#FFD910"/>
<rect width="2.08304" height="7.91355" transform="matrix(-0.706637 -0.707576 0.706637 -0.707576 1618.75 135.807)" fill="#FFD910"/>
</g>
<g opacity="0.3">
<rect width="1.3912" height="5.27958" transform="matrix(0.706636 -0.707577 0.706636 0.707577 1728.87 414.247)" fill="#FFD910"/>
<rect width="1.3912" height="5.28522" transform="matrix(-0.706636 -0.707577 0.706636 -0.707577 1729.83 418.023)" fill="#FFD910"/>
</g>
<g opacity="0.5">
<rect x="1329.66" y="49.9771" width="4.0822" height="15.4919" transform="rotate(45 1329.66 49.9771)" fill="#FFD910"/>
<rect x="1318.58" y="52.813" width="4.0822" height="15.5085" transform="rotate(-45 1318.58 52.813)" fill="#FFD910"/>
</g>
<g opacity="0.3">
<rect width="3.17938" height="12.0657" transform="matrix(-0.706636 -0.707577 0.706636 -0.707577 982.159 79.2435)" fill="#FFD910"/>
<rect width="3.17938" height="12.0786" transform="matrix(-0.706636 0.707578 -0.706636 -0.707577 990.776 77.0333)" fill="#FFD910"/>
</g>
<g opacity="0.4">
<rect width="6.46838" height="24.5475" transform="matrix(-0.706637 -0.707577 -0.706637 0.707577 211.045 378.897)" fill="#FFD910"/>
<rect width="6.46838" height="24.5737" transform="matrix(0.706637 -0.707577 -0.706637 -0.707577 206.554 396.453)" fill="#FFD910"/>
</g>
<g opacity="0.3">
<rect width="2.08304" height="7.90511" transform="matrix(-0.706637 -0.707577 -0.706637 0.707577 602.387 451.153)" fill="#FFD910"/>
<rect width="2.08304" height="7.91355" transform="matrix(0.706637 -0.707576 -0.706637 -0.707576 600.941 456.807)" fill="#FFD910"/>
</g>
<g opacity="0.3">
<rect width="1.3912" height="5.27958" transform="matrix(-0.706636 -0.707577 -0.706636 0.707577 535.085 380.915)" fill="#FFD910"/>
<rect width="1.3912" height="5.28522" transform="matrix(0.706636 -0.707577 -0.706636 -0.707577 534.119 384.691)" fill="#FFD910"/>
</g>
<g opacity="0.3">
<rect width="3.17938" height="12.0657" transform="matrix(0.706636 -0.707577 -0.706636 -0.707577 614.629 431.243)" fill="#FFD910"/>
<rect width="3.17938" height="12.0786" transform="matrix(0.706636 0.707578 0.706636 -0.707577 606.012 429.033)" fill="#FFD910"/>
</g>
</g>
</svg>
