<svg width="1920" height="506" viewBox="0 0 1920 506" fill="none" xmlns="http://www.w3.org/2000/svg">
<mask id="mask0" mask-type="alpha" maskUnits="userSpaceOnUse" x="0" y="0" width="1920" height="506">
<rect width="1920" height="506" fill="white"/>
</mask>
<g mask="url(#mask0)">
<g style="mix-blend-mode:overlay" opacity="0.8">
<path d="M1424 406L1304 406L1364.1 302L1424 406Z" fill="white" fill-opacity="0.8"/>
<path d="M1287.92 391.999L1244 316.152L1244 315.999L1332 315.999L1287.92 391.999Z" fill="white" fill-opacity="0.5"/>
<path d="M1364.08 527L1363.92 527L1316 444.167L1316 444L1412 444L1364.08 527Z" fill="white" fill-opacity="0.4"/>
<path d="M1715.81 269.714L1671.56 269.714L1693.72 231.6L1715.81 269.714Z" fill="white" fill-opacity="0.6"/>
<path d="M1600.81 325.894L1574.31 279.894L1627.31 279.894L1627.31 279.987L1600.81 325.894Z" fill="white" fill-opacity="0.4"/>
<path d="M1561.05 226.005L1569.1 212L1577.17 225.985L1561.05 226.005Z" fill="white"/>
<path d="M1718.74 248.577L1708.17 230.228L1729.31 230.228L1718.74 248.577Z" fill="white"/>
<path d="M1670.52 365.894L1604.1 365.894L1637.31 308.409L1670.52 365.894Z" fill="white" fill-opacity="0.4"/>
<path d="M1690.64 345.894L1690.52 345.894L1657.31 288.409L1657.31 288.293L1723.85 288.293L1690.64 345.894Z" fill="white" fill-opacity="0.7"/>
</g>
<g style="mix-blend-mode:overlay" opacity="0.9">
<path d="M1343 271L1232 271L1287.6 174L1343 271Z" fill="white" fill-opacity="0.8"/>
<path d="M1211.89 255L1151 149.214L1151 149L1273 149L1211.89 255Z" fill="white" fill-opacity="0.5"/>
<path d="M1726.08 466L1725.92 466L1679 385.164L1679 385L1773 385L1726.08 466Z" fill="white" fill-opacity="0.4"/>
<path d="M1601.24 156.613L1449.34 156.613L1525.42 25.1294L1601.24 156.613Z" fill="white" fill-opacity="0.6"/>
<path d="M1363.5 273L1305 172L1422 172L1422 172.204L1363.5 273Z" fill="white" fill-opacity="0.5"/>
<path d="M1373.54 86.0002L1363 67.0002L1384 67.0002L1373.54 86.0002Z" fill="white"/>
<path d="M1589.57 65.9528L1565.45 24.0691L1613.7 24.0691L1589.57 65.9528Z" fill="white"/>
<path d="M1525.16 288.096L1373.53 288.096L1449.34 156.878L1525.16 288.096Z" fill="white" fill-opacity="0.6"/>
<path d="M1535.1 271L1534.9 271L1479 174.196L1479 174L1591 174L1535.1 271Z" fill="white" fill-opacity="0.4"/>
</g>
<g style="mix-blend-mode:overlay" opacity="0.9">
<path d="M1212.59 289.167L1288.54 420.711L1136.63 420.566L1212.59 289.167Z" fill="white" fill-opacity="0.8"/>
<path d="M1242.6 447.113L1227.91 472.58L1227.86 472.605L1213.13 447.084L1242.6 447.113Z" fill="white" fill-opacity="0.5"/>
<path d="M1564.07 431.56L1564.15 431.705L1516.22 514.793L1516.07 514.877L1468 431.613L1564.07 431.56Z" fill="white" fill-opacity="0.9"/>
<path d="M995.836 202.262L1048.2 292.953L943.467 292.853L995.836 202.262Z" fill="white" fill-opacity="0.6"/>
<path d="M1152.84 292.895L1100.47 383.486L1048.2 292.953L1048.35 292.862L1152.84 292.895Z" fill="white" fill-opacity="0.5"/>
<path d="M1020.83 369.106L996.518 411.424L972.119 369.164L1020.83 369.106Z" fill="white"/>
<path d="M942.678 242.238L930.056 264.046L917.48 242.264L942.678 242.238Z" fill="white"/>
<path d="M1096.97 214.212L1134.8 279.747L1059.17 279.722L1096.97 214.212Z" fill="white" fill-opacity="0.6"/>
<path d="M1100.47 167.732L1100.57 167.891L1048.35 258.39L1048.2 258.482L995.836 167.79L1100.47 167.732Z" fill="white" fill-opacity="0.4"/>
</g>
<g style="mix-blend-mode:overlay" opacity="0.5">
<path d="M990.047 446.439L936.842 446.41L963.419 400.377L963.499 400.423L990.047 446.439Z" fill="white" fill-opacity="0.5"/>
<path d="M805.884 450.495L785.476 486.01L765 450.543L805.884 450.495Z" fill="white"/>
<path d="M721.147 433.968L710.554 452.271L700 433.99L721.147 433.968Z" fill="white"/>
<path d="M902.596 351.828L934.35 406.828L870.877 406.808L902.596 351.828Z" fill="white" fill-opacity="0.6"/>
<path d="M860.263 371.919L860.289 371.965L845.189 398.139L845.143 398.165L830 371.936L860.263 371.919Z" fill="white" fill-opacity="0.4"/>
</g>
</g>
</svg>
