<svg width="1631" height="411" viewBox="0 0 1631 411" fill="none" xmlns="http://www.w3.org/2000/svg">
<g opacity="0.6">
<rect width="5.90943" height="22.4262" transform="matrix(0.719844 0.694136 -0.719844 0.694136 478.125 41.627)" fill="#FFD910"/>
<rect width="5.90942" height="22.4502" transform="matrix(0.719844 -0.694136 0.719844 0.694136 461.808 45.6567)" fill="#FFD910"/>
</g>
<g opacity="0.6">
<rect width="3.11722" height="11.8298" transform="matrix(0.731055 0.682318 -0.731055 0.682318 1626.78 20.8804)" fill="#FFD910"/>
<rect width="3.11722" height="11.8424" transform="matrix(0.731055 -0.682318 0.731055 0.682318 1618.04 22.9702)" fill="#FFD910"/>
</g>
<g opacity="0.4">
<rect width="6.46838" height="24.5475" transform="matrix(0.706637 -0.707577 0.706637 0.707577 1327.04 349.472)" fill="#FFD910"/>
<rect width="6.46838" height="24.5737" transform="matrix(-0.706637 -0.707577 0.706637 -0.707577 1331.53 367.028)" fill="#FFD910"/>
</g>
<g opacity="0.5">
<rect x="47.3584" y="7.03076" width="5.37132" height="20.3841" transform="rotate(-45 47.3584 7.03076)" fill="#FFD910"/>
<rect x="51.0894" y="21.5996" width="5.37132" height="20.4059" transform="rotate(-135 51.0894 21.5996)" fill="#FFD910"/>
</g>
<g opacity="0.3">
<rect width="2.08304" height="7.90511" transform="matrix(0.706637 -0.707577 0.706637 0.707577 1432.3 82.7285)" fill="#FFD910"/>
<rect width="2.08304" height="7.91355" transform="matrix(-0.706637 -0.707576 0.706637 -0.707576 1433.75 88.3823)" fill="#FFD910"/>
</g>
<g opacity="0.3">
<rect width="1.3912" height="5.27958" transform="matrix(0.706636 -0.707577 0.706636 0.707577 1543.87 366.822)" fill="#FFD910"/>
<rect width="1.3912" height="5.28522" transform="matrix(-0.706636 -0.707577 0.706636 -0.707577 1544.83 370.598)" fill="#FFD910"/>
</g>
<g opacity="0.5">
<rect x="1092.19" y="73.6416" width="9.02381" height="34.2453" transform="rotate(45 1092.19 73.6416)" fill="#FFD910"/>
<rect x="1067.71" y="79.9102" width="9.02381" height="34.2818" transform="rotate(-45 1067.71 79.9102)" fill="#FFD910"/>
</g>
<g opacity="0.3">
<rect width="3.17938" height="12.0657" transform="matrix(-0.706636 -0.707577 0.706636 -0.707577 538.609 248.475)" fill="#FFD910"/>
<rect width="3.17938" height="12.0786" transform="matrix(-0.706636 0.707578 -0.706636 -0.707577 547.227 246.265)" fill="#FFD910"/>
</g>
<g opacity="0.4">
<rect width="6.46838" height="24.5475" transform="matrix(-0.706637 -0.707577 -0.706637 0.707577 26.0449 331.472)" fill="#FFD910"/>
<rect width="6.46838" height="24.5737" transform="matrix(0.706637 -0.707577 -0.706637 -0.707577 21.5542 349.028)" fill="#FFD910"/>
</g>
<g opacity="0.4">
<rect width="6.90691" height="26.2117" transform="matrix(-0.706636 -0.707577 -0.706636 0.707577 648.811 147.047)" fill="#FFD910"/>
<rect width="6.90691" height="26.2397" transform="matrix(0.706636 -0.707577 -0.706636 -0.707577 644.016 165.793)" fill="#FFD910"/>
</g>
<g opacity="0.3">
<rect width="2.08304" height="7.90511" transform="matrix(-0.706637 -0.707577 -0.706637 0.707577 417.387 403.729)" fill="#FFD910"/>
<rect width="2.08304" height="7.91355" transform="matrix(0.706637 -0.707576 -0.706637 -0.707576 415.941 409.382)" fill="#FFD910"/>
</g>
<g opacity="0.3">
<rect width="1.3912" height="5.27958" transform="matrix(-0.706636 -0.707577 -0.706636 0.707577 350.085 333.49)" fill="#FFD910"/>
<rect width="1.3912" height="5.28522" transform="matrix(0.706636 -0.707577 -0.706636 -0.707577 349.119 337.266)" fill="#FFD910"/>
</g>
<g opacity="0.3">
<rect width="3.17938" height="12.0657" transform="matrix(0.706636 -0.707577 -0.706636 -0.707577 311.629 171.818)" fill="#FFD910"/>
<rect width="3.17938" height="12.0786" transform="matrix(0.706636 0.707578 0.706636 -0.707577 303.011 169.608)" fill="#FFD910"/>
</g>
</svg>
