<svg width="133" height="46" viewBox="0 0 133 46" fill="none" xmlns="http://www.w3.org/2000/svg">
<path d="M69.156 19.4694H63.972V15.8694C63.972 15.2694 63.66 14.9694 63.036 14.9694H61.56C60.912 14.9694 60.588 15.2694 60.588 15.8694V29.9094C60.588 30.2454 60.66 30.4854 60.804 30.6294C60.948 30.7494 61.2 30.8094 61.56 30.8094H63.036C63.372 30.8094 63.612 30.7494 63.756 30.6294C63.9 30.4854 63.972 30.2454 63.972 29.9094V26.4174H69.156V30.3774C69.156 33.0174 67.632 34.3374 64.584 34.3374H59.976C56.952 34.3374 55.44 33.0174 55.44 30.3774V15.4014C55.44 12.7614 56.952 11.4414 59.976 11.4414H64.584C67.632 11.4414 69.156 12.7614 69.156 15.4014V19.4694Z" fill="#192330"/>
<path d="M76.939 25.7694V34.3374H71.827V11.4414H81.259C84.283 11.4414 85.795 12.7614 85.795 15.4014V21.8094C85.795 23.9214 84.835 25.1934 82.915 25.6254L86.947 34.3374H81.439L77.839 25.7694H76.939ZM76.939 15.2214V22.1334H79.711C80.047 22.1334 80.287 22.0734 80.431 21.9534C80.575 21.8094 80.647 21.5814 80.647 21.2694V16.1214C80.647 15.5214 80.335 15.2214 79.711 15.2214H76.939Z" fill="#192330"/>
<path d="M93.85 30.5574H101.194V34.3374H88.702V11.4414H100.906V15.2214H93.85V20.8014H99.862V24.5814H93.85V30.5574Z" fill="#192330"/>
<path d="M115.529 11.4414V15.2214H111.317V34.3374H106.169V15.2214H101.993V11.4414H115.529Z" fill="#192330"/>
<path d="M121.747 11.4414H126.571C129.595 11.4414 131.107 12.7614 131.107 15.4014V30.3414C131.107 33.0054 129.595 34.3374 126.571 34.3374H121.747C118.699 34.3374 117.175 33.0054 117.175 30.3414V15.4014C117.175 12.7614 118.699 11.4414 121.747 11.4414ZM125.959 29.6574V16.1214C125.959 15.5214 125.647 15.2214 125.023 15.2214H123.295C122.647 15.2214 122.323 15.5214 122.323 16.1214V29.6574C122.323 30.2574 122.647 30.5574 123.295 30.5574H125.023C125.647 30.5574 125.959 30.2574 125.959 29.6574Z" fill="#192330"/>
<path d="M45 24.8051C45 30.4357 40.4876 35.0003 34.9212 35.0003C29.3547 35.0003 24.8423 30.4357 24.8423 24.8051C24.8423 19.1744 29.3547 14.6099 34.9212 14.6099C40.4876 14.6099 45 19.1744 45 24.8051Z" fill="#FFD910"/>
<path fill-rule="evenodd" clip-rule="evenodd" d="M34.9212 31.0003C38.2353 31.0003 41 28.27 41 24.8051C41 21.3401 38.2353 18.6099 34.9212 18.6099C31.607 18.6099 28.8423 21.3401 28.8423 24.8051C28.8423 28.27 31.607 31.0003 34.9212 31.0003ZM34.9212 35.0003C40.4876 35.0003 45 30.4357 45 24.8051C45 19.1744 40.4876 14.6099 34.9212 14.6099C29.3547 14.6099 24.8423 19.1744 24.8423 24.8051C24.8423 30.4357 29.3547 35.0003 34.9212 35.0003Z" fill="#192330"/>
<path d="M20.1577 24.8051C20.1577 30.4357 15.6453 35.0003 10.0789 35.0003C4.51246 35.0003 0 30.4357 0 24.8051C0 19.1744 4.51246 14.6099 10.0789 14.6099C15.6453 14.6099 20.1577 19.1744 20.1577 24.8051Z" fill="#FFD910"/>
<path fill-rule="evenodd" clip-rule="evenodd" d="M10.0789 31.0003C13.393 31.0003 16.1577 28.27 16.1577 24.8051C16.1577 21.3401 13.393 18.6099 10.0789 18.6099C6.76476 18.6099 4 21.3401 4 24.8051C4 28.27 6.76476 31.0003 10.0789 31.0003ZM10.0789 35.0003C15.6453 35.0003 20.1577 30.4357 20.1577 24.8051C20.1577 19.1744 15.6453 14.6099 10.0789 14.6099C4.51246 14.6099 0 19.1744 0 24.8051C0 30.4357 4.51246 35.0003 10.0789 35.0003Z" fill="#192330"/>
<path fill-rule="evenodd" clip-rule="evenodd" d="M17.1083 13.7646C17.1704 13.7178 17.246 13.6655 17.3377 13.6087C18.2067 13.0699 19.8349 12.5566 21.9387 12.5072C26.055 12.4106 31.4849 14.0998 35.3861 19.9544C35.9986 20.8736 37.2403 21.1222 38.1595 20.5097C39.0787 19.8972 39.3273 18.6555 38.7148 17.7363C33.9567 10.5959 27.1481 8.38382 21.8448 8.50835C19.2386 8.56954 16.8617 9.19746 15.23 10.2091C14.431 10.7044 13.6197 11.4114 13.1927 12.3787C12.7026 13.4892 12.8273 14.7196 13.5881 15.736C15.4637 18.2419 16.725 20.0096 17.5356 21.2631C17.7082 21.53 17.8568 21.7681 17.984 21.9801L8.94964 22.5938C7.84761 22.6686 7.01491 23.6226 7.08976 24.7247C7.16461 25.8267 8.11866 26.6594 9.22069 26.5846L18.8816 25.9284L19.0283 25.8959C19.2058 25.8567 19.3811 25.8316 19.6264 25.7965C19.6486 25.7933 19.6713 25.7901 19.6946 25.7867L19.7133 25.784C19.9413 25.7514 20.3264 25.6962 20.6901 25.5797C21.0685 25.4585 21.7281 25.1794 22.1786 24.4842C22.6466 23.762 22.6338 22.9932 22.531 22.4496C22.3506 21.4958 21.7237 20.3732 20.8945 19.091C20.0568 17.7956 18.8271 16.0698 17.1083 13.7646Z" fill="#192330"/>
<path fill-rule="evenodd" clip-rule="evenodd" d="M35.855 9.23552C35.2732 9.01977 34.1263 8.85747 32.0418 9.18951C30.951 9.36327 29.9258 8.61984 29.7521 7.52902C29.5783 6.43821 30.3217 5.41307 31.4125 5.23931C33.8352 4.85341 35.7581 4.93345 37.2457 5.48504C38.8298 6.07241 39.7966 7.15287 40.2507 8.39391C40.6694 9.53833 40.5979 10.6619 40.4783 11.3939C40.4156 11.777 40.3318 12.1006 40.2622 12.3331C40.227 12.4504 40.1947 12.5471 40.1692 12.6196C40.1564 12.6559 40.1452 12.6864 40.1361 12.7106L40.1241 12.7421L40.1194 12.7542L40.1173 12.7594L40.1164 12.7617C40.116 12.7629 40.1155 12.7639 38.2571 12.0248L40.1155 12.7639C39.7073 13.7903 38.5444 14.2914 37.518 13.8832C36.4969 13.4771 35.9956 12.3239 36.3926 11.3014C36.3926 11.3014 36.3926 11.3014 36.3926 11.3014C36.3933 11.2993 36.3947 11.2956 36.3965 11.2904C36.4029 11.2722 36.4152 11.2361 36.4304 11.1853C36.4614 11.0819 36.5012 10.9287 36.5306 10.7487C36.5951 10.3543 36.5812 10.0061 36.4943 9.76842C36.4426 9.62737 36.3404 9.41548 35.855 9.23552ZM36.3978 11.2881C36.3978 11.288 36.3979 11.2879 36.3979 11.2877C36.3979 11.2878 36.3979 11.2878 36.3979 11.2878L36.3978 11.2881Z" fill="#192330"/>
</svg>
